<?xml version="1.0" encoding="utf-8"?>
<!-- Generator: Adobe Illustrator 16.0.0, SVG Export Plug-In . SVG Version: 6.00 Build 0)  -->
<!DOCTYPE svg PUBLIC "-//W3C//DTD SVG 1.1//EN" "http://www.w3.org/Graphics/SVG/1.1/DTD/svg11.dtd">
<svg version="1.1" id="Layer_1" xmlns="http://www.w3.org/2000/svg" xmlns:xlink="http://www.w3.org/1999/xlink" x="0px" y="0px"
	 width="384px" height="384px" viewBox="0 0 384 384" enable-background="new 0 0 384 384" xml:space="preserve">
<g>
	<linearGradient id="SVGID_1_" gradientUnits="userSpaceOnUse" x1="21.8623" y1="118.0864" x2="357.0194" y2="266.9842">
		<stop  offset="0" style="stop-color:#4B5763"/>
		<stop  offset="1" style="stop-color:#101E29"/>
	</linearGradient>
	<path fill-rule="evenodd" clip-rule="evenodd" fill="url(#SVGID_1_)" d="M0.49,219.097l12.776,51.098
		c0.709,2.845,3.265,4.839,6.196,4.839h344.906c2.93,0,5.488-1.994,6.198-4.839l12.773-51.098h-0.007
		c0.128-0.505,0.195-1.026,0.195-1.55v-76.645c-0.012-17.627-14.309-31.921-31.934-31.935H32.236
		c-17.626,0.014-31.92,14.308-31.935,31.937v76.644c0,0.521,0.067,1.042,0.195,1.547L0.49,219.097L0.49,219.097z M332.435,261.38
		H51.397v-11.604h281.037V261.38L332.435,261.38z M357.348,261.319l-12.158,0.069l0.019-18.292c0-3.526-2.863-6.972-6.387-6.972
		H45.011c-3.527,0-6.387,3.448-6.387,6.972v18.292l-12.231-0.088l-8.828-37.653l348.192,0.362L357.348,261.319L357.348,261.319z
		 M17.4,141.136c2.925-8.252,5.396-13.352,14.834-14.718h319.36c8.317,2.462,11.192,6.308,14.309,14.334l-0.177,66.107
		l-348.501,0.384L17.4,141.136L17.4,141.136z M236.625,134.514c3.526,0,6.39,2.861,6.39,6.388v25.548
		c0,3.527-2.863,6.387-6.39,6.387h-89.42c-3.527,0-6.387-2.86-6.387-6.387v-25.548c0-3.527,2.86-6.388,6.387-6.388H236.625
		L236.625,134.514z M230.427,162.006h-76.601l0.06-15.595l76.353,0.06L230.427,162.006z"/>
</g>
</svg>
