<?xml version="1.0" encoding="utf-8"?>
<!-- Generator: Adobe Illustrator 16.0.0, SVG Export Plug-In . SVG Version: 6.00 Build 0)  -->
<!DOCTYPE svg PUBLIC "-//W3C//DTD SVG 1.1//EN" "http://www.w3.org/Graphics/SVG/1.1/DTD/svg11.dtd">
<svg version="1.1" id="Layer_1" xmlns="http://www.w3.org/2000/svg" xmlns:xlink="http://www.w3.org/1999/xlink" x="0px" y="0px"
	 width="384px" height="384px" viewBox="0 0 384 384" enable-background="new 0 0 384 384" xml:space="preserve">
<linearGradient id="SVGID_1_" gradientUnits="userSpaceOnUse" x1="95.7056" y1="22.6069" x2="287.4189" y2="361.3736">
	<stop  offset="0" style="stop-color:#3ABCA8"/>
	<stop  offset="1" style="stop-color:#009383"/>
</linearGradient>
<path fill-rule="evenodd" clip-rule="evenodd" fill="url(#SVGID_1_)" d="M191.9,230.78c-21.059,0-38.192,17.133-38.192,38.192
	c0,21.061,17.134,38.191,38.192,38.191c21.059,0,38.192-17.131,38.192-38.191C230.092,247.913,212.959,230.78,191.9,230.78
	L191.9,230.78z M191.9,78.014c-21.059,0-38.192,17.132-38.192,38.191s17.134,38.191,38.192,38.191
	c21.059,0,38.192-17.132,38.192-38.191S212.959,78.014,191.9,78.014L191.9,78.014z M268.284,1.63L268.284,1.63
	c21.058,0,38.192,17.132,38.192,38.192v305.533c0,21.059-17.135,38.193-38.192,38.193H115.518
	c-21.061,0-38.193-17.135-38.193-38.193V39.822c0-21.06,17.132-38.192,38.193-38.192H268.284L268.284,1.63z M191.9,332.624
	c-35.098,0-63.653-28.553-63.653-63.651c0-35.097,28.555-63.651,63.653-63.651s63.655,28.555,63.655,63.651
	C255.555,304.071,226.998,332.624,191.9,332.624L191.9,332.624z M191.9,179.859c-35.098,0-63.653-28.555-63.653-63.652
	c0-35.1,28.555-63.655,63.653-63.655s63.655,28.556,63.655,63.655C255.555,151.304,226.998,179.859,191.9,179.859z"/>
</svg>
