<?xml version="1.0" encoding="utf-8"?>
<!-- Generator: Adobe Illustrator 16.0.0, SVG Export Plug-In . SVG Version: 6.00 Build 0)  -->
<!DOCTYPE svg PUBLIC "-//W3C//DTD SVG 1.1//EN" "http://www.w3.org/Graphics/SVG/1.1/DTD/svg11.dtd">
<svg version="1.1" id="Layer_1" xmlns="http://www.w3.org/2000/svg" xmlns:xlink="http://www.w3.org/1999/xlink" x="0px" y="0px"
	 width="384px" height="384px" viewBox="0 0 384 384" enable-background="new 0 0 384 384" xml:space="preserve">
<linearGradient id="SVGID_1_" gradientUnits="userSpaceOnUse" x1="97.4102" y1="22.8281" x2="286.3735" y2="362.4902">
	<stop  offset="0" style="stop-color:#4B5763"/>
	<stop  offset="1" style="stop-color:#101E29"/>
</linearGradient>
<path fill-rule="evenodd" clip-rule="evenodd" fill="url(#SVGID_1_)" d="M268.026,2.455H115.815
	c-20.982,0-38.052,17.071-38.052,38.053v304.411c0,20.981,17.069,38.055,38.052,38.055h152.211
	c20.983,0,38.055-17.073,38.055-38.055V40.508C306.081,19.526,289.01,2.455,268.026,2.455L268.026,2.455z M280.709,344.919
	c0,6.995-5.688,12.686-12.683,12.686H115.815c-6.995,0-12.684-5.69-12.684-12.686V40.508c0-6.995,5.689-12.685,12.684-12.685
	h152.211c6.997,0,12.683,5.69,12.683,12.685V344.919L280.709,344.919z M191.921,53.191c34.972,0,63.423,28.449,63.423,63.419
	c0,34.971-28.451,63.419-63.423,63.419c-34.97,0-63.421-28.449-63.421-63.419C128.5,81.64,156.951,53.191,191.921,53.191
	L191.921,53.191z M191.921,154.663c-20.982,0-38.052-17.071-38.052-38.052c0-20.982,17.069-38.052,38.052-38.052
	s38.054,17.069,38.054,38.052C229.975,137.592,212.903,154.663,191.921,154.663L191.921,154.663z M191.921,205.397
	c34.972,0,63.423,28.45,63.423,63.421c0,34.967-28.451,63.418-63.423,63.418c-34.97,0-63.421-28.451-63.421-63.418
	C128.5,233.848,156.951,205.397,191.921,205.397L191.921,205.397z M191.921,306.87c-20.982,0-38.052-17.071-38.052-38.052
	c0-20.984,17.069-38.052,38.052-38.052s38.054,17.067,38.054,38.052C229.975,289.799,212.903,306.87,191.921,306.87z"/>
</svg>
