<?xml version="1.0" encoding="utf-8"?>
<!-- Generator: Adobe Illustrator 16.0.0, SVG Export Plug-In . SVG Version: 6.00 Build 0)  -->
<!DOCTYPE svg PUBLIC "-//W3C//DTD SVG 1.1//EN" "http://www.w3.org/Graphics/SVG/1.1/DTD/svg11.dtd">
<svg version="1.1" id="Layer_1" xmlns="http://www.w3.org/2000/svg" x="0px" y="0px" width="384px"
    height="384px" viewBox="0 0 384 384" enable-background="new 0 0 384 384" xml:space="preserve">
<linearGradient id="SVGID_1_" gradientUnits="userSpaceOnUse" x1="151.9312" y1="44.7354" x2="268.0688" y2="323.0448">
	<stop  offset="0" style="stop-color:#4B5763"/>
	<stop  offset="1" style="stop-color:#101E29"/>
</linearGradient>
<path fill-rule="evenodd" clip-rule="evenodd" fill="url(#SVGID_1_)" d="M193.029,69.405c36.851,0,66.83,29.973,66.83,66.814
	c0,6.15,4.987,11.138,11.135,11.138c6.15,0,11.138-4.988,11.138-11.138c0-49.121-39.972-89.087-89.103-89.087
	c-6.146,0-11.134,4.986-11.134,11.136C181.895,64.417,186.883,69.405,193.029,69.405L193.029,69.405z M109.782,210.076
	c-23.783-26.738-33.078-62.577-25.496-98.325c8.845-41.735,42.847-75.636,84.607-84.361
	c71.288-14.897,135.508,38.638,135.508,108.83c0,26.959-9.784,52.97-27.556,73.244c-15.53,17.721-25.085,39.086-27.508,61.132
	H136.752C134.329,248.537,124.801,226.958,109.782,210.076L109.782,210.076z M248.722,304.002c0,6.142-4.997,11.137-11.135,11.137
	H148.5c-6.141,0-11.137-4.995-11.137-11.137v-11.138h111.359V304.002L248.722,304.002z M193.042,360.424
	c-14.313,0-26.864-9.85-31.501-23.087h63.002C219.908,350.574,207.361,360.424,193.042,360.424L193.042,360.424z M138.174,335.77
	c-13.382-4.359-23.082-16.951-23.082-31.768v-22.272c0-20.47-8.002-41.167-21.949-56.853
	c-28.541-32.081-39.711-74.999-30.646-117.747C73.23,56.506,114.026,16.101,164.338,5.588
	c85.163-17.792,162.336,46.321,162.336,130.631c0,32.362-11.747,63.585-33.081,87.92c-14.572,16.628-22.599,37.082-22.599,57.59
	v22.272c0,14.816-9.7,27.408-23.082,31.768c-4.404,26.009-26.977,46.928-54.87,46.928
	C165.145,382.697,142.576,361.772,138.174,335.77z"/>
</svg>
