<?xml version="1.0" encoding="utf-8"?>
<!-- Generator: Adobe Illustrator 16.0.0, SVG Export Plug-In . SVG Version: 6.00 Build 0)  -->
<!DOCTYPE svg PUBLIC "-//W3C//DTD SVG 1.1//EN" "http://www.w3.org/Graphics/SVG/1.1/DTD/svg11.dtd">
<svg version="1.1" id="Layer_1" xmlns="http://www.w3.org/2000/svg" xmlns:xlink="http://www.w3.org/1999/xlink" x="0px" y="0px"
	 width="384px" height="384px" viewBox="0 0 384 384" enable-background="new 0 0 384 384" xml:space="preserve">
<linearGradient id="SVGID_1_" gradientUnits="userSpaceOnUse" x1="137.4404" y1="57.415" x2="277.8055" y2="322.6808">
	<stop  offset="0" style="stop-color:#4B5763"/>
	<stop  offset="1" style="stop-color:#101E29"/>
</linearGradient>
<path fill-rule="evenodd" clip-rule="evenodd" fill="url(#SVGID_1_)" d="M193.231,2.199c-9.194,0-18.579,0.793-27.974,2.798
	C110.109,15.58,66.147,60.139,55.767,115.292c-9.596,52.15,9.596,100.11,44.354,131.078c8.588,7.601,13.191,18.185,13.191,29.382
	v46.16c0,21.982,17.982,39.969,39.964,39.969l5.588-0.013c6.999,11.993,19.584,19.98,34.368,19.98
	c14.777,0,27.567-7.996,34.365-19.98h5.597c21.98,0,39.966-17.985,39.966-39.966v-46.159c0-10.986,4.399-21.781,12.787-29.174
	c28.968-25.567,47.155-62.935,47.155-104.503C333.102,64.74,270.562,2.199,193.231,2.199L193.231,2.199z M183.241,221.991v-51.77
	l-36.52-36.534l14.126-14.126l32.504,32.504l32.29-32.293l14.127,14.126l-36.551,36.555v51.538H183.241L183.241,221.991z
	 M233.193,281.946h-79.928v-19.979h79.928V281.946L233.193,281.946z M153.265,321.912v-19.978l79.928-0.012v19.979L153.265,321.912
	L153.265,321.912z M259.364,216.805c-1.801,1.6-3.201,3.594-4.794,5.193H131.688c-1.601-1.799-3-3.796-4.793-5.396
	c-26.372-23.583-38.163-58.747-31.768-93.92c7.188-38.77,39.159-70.942,77.723-78.533c6.797-1.391,13.583-1.996,20.381-1.996
	c55.147,0,99.904,44.761,99.904,99.913C293.136,170.645,280.94,197.824,259.364,216.805z"/>
</svg>
