<?xml version="1.0" encoding="utf-8"?>
<!-- Generator: Adobe Illustrator 16.0.0, SVG Export Plug-In . SVG Version: 6.00 Build 0)  -->
<!DOCTYPE svg PUBLIC "-//W3C//DTD SVG 1.1//EN" "http://www.w3.org/Graphics/SVG/1.1/DTD/svg11.dtd">
<svg version="1.1" id="Layer_1" xmlns="http://www.w3.org/2000/svg" x="0px" y="0px" width="384px"
    height="384px" viewBox="0 0 384 384" enable-background="new 0 0 384 384" xml:space="preserve">
<linearGradient id="SVGID_1_" gradientUnits="userSpaceOnUse" x1="161.7974" y1="34.2515" x2="266.2391" y2="334.6714">
	<stop  offset="0" style="stop-color:#4B5763"/>
	<stop  offset="1" style="stop-color:#101E29"/>
</linearGradient>
<path fill-rule="evenodd" clip-rule="evenodd" fill="url(#SVGID_1_)" d="M274.456,33.649
	c-45.919-40.784-118.07-42.448-165.812,3.533c-19.243,18.529-32.01,42.875-35.959,68.546c-4.935,32.098,2.596,64.1,21.212,90.106
	c50.918,71.137,44.461,127.638,45.168,131.833c0,14.871,5.622,28.767,15.827,39.135c10.218,10.381,23.874,16.095,38.466,16.095
	c29.936,0,54.29-24.357,54.29-54.293c0.623-3.863-5.526-65.882,43.146-130.024c16.173-21.316,24.723-46.751,24.723-73.571
	C315.518,90.129,300.55,56.825,274.456,33.649L274.456,33.649z M210.912,115.417c5.297-5.307,13.893-5.307,19.187,0
	c5.307,5.294,5.307,13.89,0,19.193l-23.168,23.168v48.67c0,7.499-6.076,13.572-13.572,13.572c-7.499,0-13.572-6.073-13.572-13.572
	v-48.67l-23.174-23.168c-5.297-5.303-5.297-13.898,0-19.193c5.302-5.307,13.899-5.307,19.194,0l17.552,17.544L210.912,115.417
	L210.912,115.417z M193.358,355.751c-14.917,0-26.662-11.848-27.123-27.147h54.268C220.504,343.574,208.326,355.751,193.358,355.751
	L193.358,355.751z M269.164,182.171c-27.16,35.795-43.381,76.648-47.567,119.287h-56.62c-4.485-41.02-21.198-82.577-49.003-121.422
	c-14.463-20.208-20.309-45.133-16.458-70.176c6.604-42.922,45.005-79.871,93.971-79.871c53.082,0,94.884,43.339,94.884,95.02
	C288.369,145.848,281.729,165.614,269.164,182.171z"/>
</svg>
