<?xml version="1.0" encoding="utf-8"?>
<!-- Generator: Adobe Illustrator 16.0.0, SVG Export Plug-In . SVG Version: 6.00 Build 0)  -->
<!DOCTYPE svg PUBLIC "-//W3C//DTD SVG 1.1//EN" "http://www.w3.org/Graphics/SVG/1.1/DTD/svg11.dtd">
<svg version="1.1" id="Layer_1" xmlns="http://www.w3.org/2000/svg" x="0px" y="0px" width="384px"
    height="384px" viewBox="0 0 384 384" enable-background="new 0 0 384 384" xml:space="preserve">
<linearGradient id="SVGID_1_" gradientUnits="userSpaceOnUse" x1="163.9775" y1="38.2759" x2="261.1187" y2="325.797">
	<stop  offset="0" style="stop-color:#3ABCA8"/>
	<stop  offset="1" style="stop-color:#009383"/>
</linearGradient>
<path fill-rule="evenodd" clip-rule="evenodd" fill="url(#SVGID_1_)" d="M193.359,382c29.793,0,54.03-24.234,54.03-54.033H139.411
	C139.897,358.335,163.371,382,193.359,382L193.359,382z M193.359,2.872C117.731,2.733,79.428,65.095,73.256,105.256
	c-4.905,31.938,2.585,63.781,21.108,89.663c24.668,34.467,38.687,69.74,43.002,105.132h111.867
	c4.102-36.479,17.699-71.561,41.099-102.387c16.096-21.224,24.604-46.537,24.604-73.227C314.937,73.426,275.104,3.017,193.359,2.872
	L193.359,2.872z M229.923,133.986l-23.059,23.065v48.438c0,7.467-6.038,13.508-13.505,13.508c-7.471,0-13.51-6.041-13.51-13.508
	v-48.438l-23.059-23.065c-5.277-5.276-5.277-13.824,0-19.1c5.276-5.279,13.824-5.279,19.1,0l17.47,17.464l17.464-17.464
	c5.279-5.279,13.824-5.279,19.1,0C235.202,120.162,235.202,128.71,229.923,133.986z"/>
</svg>
