<?xml version="1.0" encoding="utf-8"?>
<!-- Generator: Adobe Illustrator 16.0.0, SVG Export Plug-In . SVG Version: 6.00 Build 0)  -->
<!DOCTYPE svg PUBLIC "-//W3C//DTD SVG 1.1//EN" "http://www.w3.org/Graphics/SVG/1.1/DTD/svg11.dtd">
<svg version="1.1" id="Layer_1" xmlns="http://www.w3.org/2000/svg" x="0px" y="0px" width="384px"
    height="384px" viewBox="0 0 384 384" enable-background="new 0 0 384 384" xml:space="preserve">
<linearGradient id="SVGID_1_" gradientUnits="userSpaceOnUse" x1="155.8477" y1="42.103" x2="264.7687" y2="321.0339">
	<stop  offset="0" style="stop-color:#3ABCA8"/>
	<stop  offset="1" style="stop-color:#009383"/>
</linearGradient>
<path fill-rule="evenodd" clip-rule="evenodd" fill="url(#SVGID_1_)" d="M138.013,335c4.512,26.345,27.365,48,54.975,48
	c27.612,0,50.467-21.655,54.976-48c13.484-4.356,23.328-16.877,23.328-31.793v-11.185H114.688v11.185
	C114.688,318.12,124.533,330.644,138.013,335L138.013,335z M260.104,135.422c0-37.008-30.116-67.115-67.128-67.115
	c-6.18,0-11.183-5.002-11.183-11.185c0-6.184,5.003-11.186,11.183-11.186c49.356,0,89.5,40.143,89.5,89.485
	c0,6.183-5.004,11.187-11.185,11.187C265.107,146.608,260.104,141.604,260.104,135.422L260.104,135.422z M293.987,223.737
	c21.432-24.435,33.976-55.807,33.976-88.315c0-85.147-78.841-149.101-163.8-131.215c-50.49,10.542-91.606,51.526-102.312,101.995
	c-9.099,42.94,2.13,86.045,30.794,118.27c11.588,13.039,18.656,28.778,20.976,45.182h158.774
	C274.793,253.328,282.069,237.338,293.987,223.737z"/>
</svg>
