<?xml version="1.0" encoding="utf-8"?>
<!-- Generator: Adobe Illustrator 16.0.0, SVG Export Plug-In . SVG Version: 6.00 Build 0)  -->
<!DOCTYPE svg PUBLIC "-//W3C//DTD SVG 1.1//EN" "http://www.w3.org/Graphics/SVG/1.1/DTD/svg11.dtd">
<svg version="1.1" id="Layer_1" xmlns="http://www.w3.org/2000/svg" xmlns:xlink="http://www.w3.org/1999/xlink" x="0px" y="0px"
	 width="384px" height="384px" viewBox="0 0 384 384" enable-background="new 0 0 384 384" xml:space="preserve">
<linearGradient id="SVGID_1_" gradientUnits="userSpaceOnUse" x1="41.6118" y1="33.3506" x2="270.2468" y2="302.9059">
	<stop  offset="0" style="stop-color:#3ABCA8"/>
	<stop  offset="1" style="stop-color:#009383"/>
</linearGradient>
<path fill-rule="evenodd" clip-rule="evenodd" fill="url(#SVGID_1_)" d="M331.367,325.221h-6.309v-6.308
	c0-3.483-2.818-6.311-6.31-6.311c-3.488,0-6.309,2.827-6.309,6.311v6.308h-6.308c-3.489,0-6.309,2.828-6.309,6.311
	s2.819,6.309,6.309,6.309h6.308v6.309c0,3.482,2.82,6.308,6.309,6.308c3.491,0,6.31-2.825,6.31-6.308v-6.309h6.309
	c3.49,0,6.31-2.826,6.31-6.309S334.857,325.221,331.367,325.221L331.367,325.221z M15.913,41.312
	c10.436,0,18.927,8.492,18.927,18.927c0,3.482,2.82,6.309,6.309,6.309c3.489,0,6.309-2.827,6.309-6.309
	c0-10.436,8.493-18.927,18.928-18.927c3.489,0,6.309-2.827,6.309-6.309c0-3.482-2.82-6.309-6.309-6.309
	c-10.435,0-18.928-8.492-18.928-18.928c0-3.481-2.82-6.309-6.309-6.309c-3.489,0-6.309,2.827-6.309,6.309
	c0,10.436-8.492,18.928-18.927,18.928c-3.489,0-6.309,2.826-6.309,6.309S12.423,41.312,15.913,41.312L15.913,41.312z M41.149,28.675
	c1.798,2.391,3.931,4.53,6.329,6.328c-2.398,1.798-4.531,3.937-6.329,6.328c-1.798-2.391-3.93-4.53-6.328-6.328
	C37.219,33.205,39.351,31.065,41.149,28.675L41.149,28.675z M242.983,98.066h0.056c3.44,0,6.247-2.782,6.311-6.227
	c0.013-0.896,0.699-22.139,28.484-38.807c2.984-1.792,3.957-5.672,2.157-8.657c-1.792-2.991-5.665-3.962-8.655-2.164
	c-34.208,20.53-34.606,48.397-34.606,49.57C236.731,95.246,239.521,98.034,242.983,98.066L242.983,98.066z M356.604,104.402
	c3.488,0,6.31,2.826,6.312,6.309c0,3.483-2.82,6.309-6.309,6.309c-61.877,0-114.469,64.672-120.546,72.423l23.933,23.932
	c11.614-13.595,44.812-20.645,77.686-20.645c3.489,0,6.31,2.827,6.31,6.31c0,3.482-2.82,6.308-6.31,6.308
	c-40.667,0-64.598,10.257-68.748,16.966l29.043,29.045c1.478,1.482,2.127,3.595,1.736,5.645c-0.393,2.057-1.778,3.779-3.697,4.606
	l-57.502,24.831c-0.074,0.033-0.15,0.067-0.228,0.099l-37.216,16.07c-0.053,0.021-0.105,0.047-0.156,0.067l-56.748,24.505
	c-0.047,0.02-0.093,0.043-0.141,0.062L106.82,343.31c-0.067,0.026-0.132,0.058-0.2,0.085l-88.203,38.088
	c-0.808,0.354-1.659,0.518-2.505,0.518c-1.641,0-3.255-0.638-4.461-1.848c-1.829-1.824-2.354-4.588-1.331-6.96l54.248-125.625
	c0.01-0.025,0.021-0.051,0.032-0.076l65.592-151.9c0.827-1.917,2.549-3.298,4.612-3.696c2.051-0.385,4.164,0.258,5.64,1.736
	l22.117,22.116c4.451-5.915,11.278-30.085,11.278-68.126c0-3.482,2.819-6.309,6.309-6.309c3.489,0,6.309,2.827,6.309,6.309
	c0,24.58-3.464,62.876-15.261,76.762l22.483,22.482c25.189-16.323,30.919-31.732,30.979-31.9c1.154-3.263,4.732-4.997,8.007-3.88
	c3.274,1.128,5.036,4.65,3.938,7.93c-0.264,0.801-6.44,18.516-33.815,36.957l24.481,24.483
	C237.299,167.566,290.792,104.402,356.604,104.402L356.604,104.402z M200.01,289.323l24.933-10.766L113.046,166.664l-10.763,24.926
	L200.01,289.323L200.01,289.323z M143.117,313.892l44.433-19.188L96.902,204.05l-19.188,44.438L143.117,313.892L143.117,313.892z
	 M105.729,330.035l24.927-10.761l-58.324-58.325l-10.764,24.926L105.729,330.035L105.729,330.035z M56.188,298.335l-28.182,65.26
	l65.262-28.179L56.188,298.335L56.188,298.335z M237.403,273.18l45.08-19.471l-24.93-24.928c-0.031-0.031-0.062-0.062-0.094-0.093
	l-69.254-69.252c-0.003-0.004-0.007-0.008-0.012-0.012l-31.636-31.634l0-0.001l-18.665-18.665l-19.466,45.078L237.403,273.18
	L237.403,273.18z M369.223,53.93c-3.489,0-6.309,2.827-6.309,6.309c0,3.483,2.818,6.309,6.309,6.309
	c3.489,0,6.309-2.826,6.309-6.309C375.531,56.757,372.712,53.93,369.223,53.93L369.223,53.93z M268.276,180.112
	c0,3.482,2.82,6.309,6.31,6.309c3.488,0,6.308-2.826,6.308-6.309c0-3.483-2.819-6.308-6.308-6.308
	C271.097,173.804,268.276,176.629,268.276,180.112L268.276,180.112z M325.059,154.875c0,3.482,2.82,6.309,6.309,6.309
	c3.49,0,6.31-2.826,6.31-6.309c0-3.482-2.819-6.308-6.31-6.308C327.879,148.567,325.059,151.394,325.059,154.875L325.059,154.875z
	 M211.495,66.548c3.488,0,6.309-2.827,6.309-6.309c0-3.482-2.82-6.309-6.309-6.309c-3.489,0-6.31,2.827-6.31,6.309
	C205.186,63.721,208.006,66.548,211.495,66.548L211.495,66.548z M261.968,104.402c0,3.482,2.82,6.309,6.309,6.309
	s6.309-2.827,6.309-6.309s-2.82-6.309-6.309-6.309S261.968,100.92,261.968,104.402L261.968,104.402z M307.98,39.463
	c1.229,1.23,2.845,1.848,4.459,1.848c1.615,0,3.232-0.618,4.463-1.848l8.156-8.158l8.158,8.158c1.231,1.23,2.846,1.848,4.461,1.848
	s3.229-0.618,4.461-1.848c2.467-2.466,2.467-6.455,0-8.921l-8.157-8.158l8.157-8.158c2.467-2.467,2.467-6.454,0-8.921
	c-2.467-2.466-6.456-2.466-8.922,0l-8.158,8.158l-8.156-8.157c-2.469-2.467-6.457-2.467-8.922,0c-2.467,2.468-2.467,6.455,0,8.921
	l8.157,8.158l-8.157,8.158C305.514,33.008,305.514,36.996,307.98,39.463z"/>
</svg>
