<?xml version="1.0" encoding="utf-8"?>
<!-- Generator: Adobe Illustrator 16.0.0, SVG Export Plug-In . SVG Version: 6.00 Build 0)  -->
<!DOCTYPE svg PUBLIC "-//W3C//DTD SVG 1.1//EN" "http://www.w3.org/Graphics/SVG/1.1/DTD/svg11.dtd">
<svg version="1.1" id="Layer_1" xmlns="http://www.w3.org/2000/svg" xmlns:xlink="http://www.w3.org/1999/xlink" x="0px" y="0px"
	 width="384px" height="384px" viewBox="0 0 384 384" enable-background="new 0 0 384 384" xml:space="preserve">
<g>
	<linearGradient id="SVGID_1_" gradientUnits="userSpaceOnUse" x1="92.9404" y1="126.854" x2="303.8196" y2="385.993">
		<stop  offset="0" style="stop-color:#3ABCA8"/>
		<stop  offset="1" style="stop-color:#009383"/>
	</linearGradient>
	<path fill-rule="evenodd" clip-rule="evenodd" fill="url(#SVGID_1_)" d="M140.755,217.051
		c-3.829,17.806-20.604,30.617-39.996,30.617c-0.158,0-5.508,0.345-10.935-1.412c-3.447-0.937-6.742-2.281-9.792-4.001
		c-17.073-9.613-25.379-29.276-19.75-46.756l19.555-60.793c5.167,0.568,12.382,1.126,20.822,1.126
		c17.358,0,39.86-2.361,60.176-11.839L140.755,217.051L140.755,217.051z M222.548,143.774c18.936,9.523,42.298,15.829,64.832,17.274
		c3.048,0.19,5.993,0.285,8.827,0.285c3.305,0,6.441-0.142,9.429-0.4l17.407,54.133c5.626,17.49-2.679,37.154-19.767,46.763
		c-3.021,1.714-6.309,3.057-9.751,3.984c-4.436,1.374-7.152,1.559-10.97,1.441c-19.528,0-36.298-12.794-39.978-30.578
		L222.548,143.774L222.548,143.774z M231.693,238.933c4.505,21.768,23.953,37.729,47.105,39.3l14.83,55.338
		c1.214,4.526,0.494,7.543-2.847,11.947l-14.021,18.419c-5.661,7.432-4.742,12.129-2.975,14.762c0.986,1.468,3.116,3.526,7.31,3.526
		c1.265,0,2.717-0.188,4.381-0.635l72.871-19.541c7.202-1.913,8.544-6.048,8.701-8.342c0.218-3.162-1.334-7.688-9.961-11.305l0,0
		l-21.356-8.938c-5.104-2.137-7.233-4.386-8.445-8.918l-14.829-55.33c19.112-12.853,27.978-36.383,21.169-57.553L284.821,59.89
		c-1.554-4.765-6.477-7.512-11.224-6.249l-68.93,18.482c-4.717,1.269-7.607,6.097-6.572,11.019L231.693,238.933L231.693,238.933z
		 M185.224,63.606c1.089-4.924-1.794-9.786-6.573-11.07l0,0l-68.934-18.463c-4.776-1.27-9.698,1.491-11.2,6.253l-48.817,151.77
		c-6.813,21.158,2.055,44.691,21.168,57.552l-14.278,53.277l-31.245,20.384c-4.084,2.665-9.676,6.316-8.784,11.928
		c0.828,5.204,6.525,6.737,8.401,7.243l36.444,9.772l36.439,9.75c0.881,0.236,2.609,0.7,4.538,0.7c2.176,0,4.608-0.59,6.369-2.761
		c3.584-4.417,0.555-10.384-1.655-14.736L90.246,311.93l14.28-53.285c22.983-1.585,42.424-17.526,47.095-39.254L185.224,63.606
		L185.224,63.606z M118.462,161.44v0.021c0,3.069,2.487,5.548,5.558,5.548s5.558-2.499,5.558-5.568c0-3.069-2.488-5.558-5.558-5.558
		C120.949,155.882,118.462,158.371,118.462,161.44L118.462,161.44z M219.593,40.521c1.424,0,2.848-0.543,3.933-1.63l12.668-12.69
		c2.169-2.172,2.166-5.691-0.007-7.86c-2.173-2.169-5.691-2.166-7.859,0.007l-12.668,12.689c-2.169,2.172-2.166,5.691,0.007,7.86
		C216.751,39.98,218.173,40.522,219.593,40.521L219.593,40.521L219.593,40.521z M173.417,18.348l12.668,12.688
		c2.169,2.173,2.166,5.692-0.007,7.86c-1.084,1.083-2.506,1.625-3.927,1.625c-1.424,0-2.847-0.544-3.933-1.631L165.55,26.201
		c-2.169-2.172-2.166-5.692,0.007-7.86C167.729,16.173,171.248,16.176,173.417,18.348L173.417,18.348z M206.419,26.317V8.376
		c0-3.069-2.488-5.558-5.558-5.558c-3.07,0-5.558,2.488-5.558,5.558v17.94c0,3.069,2.487,5.558,5.558,5.558
		S206.419,29.386,206.419,26.317L206.419,26.317z M288.082,149.955L288.082,149.955c4.964,0.311,9.714,0.335,14.054,0.089
		l-27.398-85.202l-65.434,17.546l10.141,46.987C238.139,140.727,263.594,148.384,288.082,149.955L288.082,149.955z M286.202,369.886
		l13.433-17.644c5.442-7.175,6.858-13.62,4.731-21.55l-14.168-52.87c0.022-0.004,0.045-0.011,0.068-0.015
		c2.057-0.301,4.106-0.716,6.138-1.256c2.021-0.545,3.994-1.208,5.913-1.972c0.021-0.007,0.043-0.012,0.063-0.021l14.166,52.86
		c2.123,7.942,6.576,12.817,14.892,16.297l20.442,8.556L286.202,369.886L286.202,369.886z M80.945,254.988
		c0.02,0.007,0.04,0.01,0.059,0.018c1.929,0.77,3.912,1.436,5.944,1.987c2.015,0.532,4.06,0.943,6.123,1.238
		c0.019,0.004,0.036,0.012,0.055,0.014l-14.167,52.861c-0.355,1.321-0.208,2.728,0.41,3.949l17.816,35.176
		c0.017,0.033,0.035,0.067,0.051,0.101l-32.952-8.817l-32.955-8.838c0.03-0.019,0.06-0.039,0.09-0.059l33.025-21.544
		c1.147-0.749,1.977-1.895,2.332-3.217L80.945,254.988L80.945,254.988z M163.891,109.813l10.134-47.008l-65.425-17.524
		l-25.287,78.613C100.506,125.563,136.145,126.409,163.891,109.813L163.891,109.813z M276.99,241.931
		c0-3.07-2.488-5.558-5.558-5.558s-5.558,2.487-5.558,5.558v0.021c0,3.069,2.488,5.547,5.558,5.547S276.99,245.001,276.99,241.931
		L276.99,241.931z M298.68,214.864c0-3.068-2.488-5.558-5.558-5.558c-3.07,0-5.558,2.489-5.558,5.558v0.021
		c0,3.069,2.487,5.548,5.558,5.548C296.191,220.434,298.68,217.935,298.68,214.864L298.68,214.864z M264.864,181.006
		c0-3.07-2.488-5.559-5.558-5.559c-3.07,0-5.559,2.489-5.559,5.559v0.041c0,3.069,2.489,5.537,5.559,5.537
		S264.864,184.074,264.864,181.006L264.864,181.006z M106.335,202.801v0.041c0,3.069,2.489,5.536,5.559,5.536
		c3.069,0,5.558-2.508,5.558-5.578c0-3.069-2.489-5.559-5.558-5.559C108.824,197.241,106.335,199.731,106.335,202.801
		L106.335,202.801z M83.104,177.15v0.042c0,3.069,2.488,5.537,5.558,5.537s5.558-2.509,5.558-5.579s-2.488-5.558-5.558-5.558
		C85.592,171.593,83.104,174.081,83.104,177.15z"/>
</g>
</svg>
