<?xml version="1.0" encoding="utf-8"?>
<!-- Generator: Adobe Illustrator 16.0.0, SVG Export Plug-In . SVG Version: 6.00 Build 0)  -->
<!DOCTYPE svg PUBLIC "-//W3C//DTD SVG 1.1//EN" "http://www.w3.org/Graphics/SVG/1.1/DTD/svg11.dtd">
<svg version="1.1" id="Layer_1" xmlns="http://www.w3.org/2000/svg" xmlns:xlink="http://www.w3.org/1999/xlink" x="0px" y="0px"
	 width="384px" height="384px" viewBox="0 0 384 384" enable-background="new 0 0 384 384" xml:space="preserve">
<g>
	<linearGradient id="SVGID_1_" gradientUnits="userSpaceOnUse" x1="98.5972" y1="64.1104" x2="240.7641" y2="339.7969">
		<stop  offset="0" style="stop-color:#3ABCA8"/>
		<stop  offset="1" style="stop-color:#009383"/>
	</linearGradient>
	<path fill-rule="evenodd" clip-rule="evenodd" fill="url(#SVGID_1_)" d="M214.382,70.203c30.661,0,55.613-25.691,55.613-56.355
		c0-6.146-4.976-11.122-11.125-11.122H125.4c-6.147,0-11.123,4.975-11.123,11.122c0,30.664,24.949,56.355,55.613,56.355h11.123
		v25.625c-13.053,6.003-22.246,22.155-22.246,41.852h66.735c0-19.696-9.193-35.849-22.245-41.852V70.203H214.382L214.382,70.203z
		 M370.838,248.904H236.625c-6.146,0-11.122,4.976-11.122,11.124c0,6.146,4.976,11.122,11.122,11.122h12.249
		c4.436,21.757,21.606,38.928,43.363,43.362v1.126c0,24.538-19.952,44.491-44.488,44.491c-24.539,0-44.491-19.953-44.491-44.491
		v-90.105c21.757-4.433,38.931-21.606,43.366-43.363h12.246c6.149,0,11.125-4.977,11.125-11.124s-4.976-11.122-11.125-11.122H125.4
		c-6.147,0-11.123,4.974-11.123,11.122s4.975,11.123,11.123,11.123l12.249,0.001c4.434,21.757,21.606,38.931,43.365,43.363v90.105
		c0,24.538-19.955,44.491-44.49,44.491c-24.537,0-44.491-19.953-44.491-44.491v-1.126c21.758-4.435,38.931-21.605,43.366-43.362
		h12.247c6.149,0,11.123-4.976,11.123-11.122c0-6.148-4.974-11.124-11.123-11.124H13.433c-6.148,0-11.122,4.976-11.122,11.124
		c0,6.146,4.974,11.122,11.122,11.122h12.99c4.434,21.757,21.606,38.928,43.365,43.362v1.126c0,36.801,29.935,66.737,66.735,66.737
		c23.214,0,43.653-11.945,55.613-29.982c11.958,18.037,32.396,29.982,55.613,29.982c36.801,0,66.734-29.937,66.734-66.737v-1.126
		c21.757-4.435,38.931-21.605,43.366-43.362h12.988c6.146,0,11.121-4.976,11.121-11.122
		C381.959,253.88,376.984,248.904,370.838,248.904L370.838,248.904z M80.911,182.17c18.714,0,33.367,19.539,33.367,44.488H47.542
		C47.542,201.709,62.195,182.17,80.911,182.17L80.911,182.17z M303.361,182.17c18.716,0,33.367,19.539,33.367,44.488h-66.733
		C269.995,201.709,284.646,182.17,303.361,182.17z"/>
</g>
</svg>
