<?xml version="1.0" encoding="utf-8"?>
<!-- Generator: Adobe Illustrator 16.0.0, SVG Export Plug-In . SVG Version: 6.00 Build 0)  -->
<!DOCTYPE svg PUBLIC "-//W3C//DTD SVG 1.1//EN" "http://www.w3.org/Graphics/SVG/1.1/DTD/svg11.dtd">
<svg version="1.1" id="Layer_1" xmlns="http://www.w3.org/2000/svg" xmlns:xlink="http://www.w3.org/1999/xlink" x="0px" y="0px"
	 width="384px" height="384px" viewBox="0 0 384 384" enable-background="new 0 0 384 384" xml:space="preserve">
<linearGradient id="SVGID_1_" gradientUnits="userSpaceOnUse" x1="118.7222" y1="90.0283" x2="262.645" y2="287.4948">
	<stop  offset="0" style="stop-color:#4B5763"/>
	<stop  offset="1" style="stop-color:#101E29"/>
</linearGradient>
<path fill-rule="evenodd" clip-rule="evenodd" fill="url(#SVGID_1_)" d="M274.707,192.595v-0.027
	c0-13.515-10.616-24.65-24.116-25.294v-27.127c0-33.289-26.994-60.286-60.282-60.286s-60.286,26.997-60.286,60.286v27.13
	c-13.485,0.637-24.098,11.754-24.116,25.258v49.827l0,0c0,26.755,21.685,48.467,48.443,48.497h71.916
	c26.759-0.03,48.44-21.742,48.44-48.497C274.707,225.771,274.707,209.185,274.707,192.595L274.707,192.595z M244.028,41.68
	L244.028,41.68c-8.001-2.627-2.908-14.071,4.038-11.848c68.22,24.998,113.392,86.938,114.041,158.828
	c0.779,85.664-64.188,156.131-151.89,167.595l15.064,15.096c1.12,1.126,1.752,2.657,1.752,4.249s-0.632,3.123-1.752,4.249
	c-1.13,1.105-2.643,1.722-4.223,1.722c-1.576,0-3.093-0.616-4.219-1.722l-26.224-25.922c-0.284-0.281-0.538-0.595-0.755-0.934
	c-0.103-0.139-0.184-0.29-0.241-0.453l-0.329-0.573l-0.182-0.604c-0.006-0.087-0.009-0.178-0.009-0.269s0.003-0.181,0.009-0.271
	c-0.075-0.387-0.118-0.782-0.118-1.175c0-0.396,0.042-0.792,0.118-1.178c0.076-0.157,0.166-0.312,0.269-0.453l0.181-0.602
	c0.094-0.208,0.205-0.413,0.332-0.601c0.058-0.163,0.139-0.317,0.242-0.453c0.211-0.335,0.465-0.641,0.755-0.906l25.892-26.013
	c1.142-1.253,2.764-1.972,4.461-1.972c3.328,0,6.028,2.699,6.028,6.028c0,1.706-0.725,3.331-1.987,4.476l-14.838,14.893
	c88.161-13.8,133.718-82.281,134.36-154.563C345.376,123.979,304.604,72.848,244.028,41.68L244.028,41.68z M141.418,341.438
	L141.418,341.438c7.998,2.627,2.905,14.07-4.035,11.851C69.158,328.287,23.988,266.35,23.335,194.461
	c-0.779-85.667,64.191-156.13,151.89-167.598l-15.058-15.092c-1.124-1.129-1.755-2.661-1.755-4.249c0-1.595,0.631-3.123,1.755-4.252
	c1.124-1.103,2.64-1.722,4.216-1.722c1.58,0,3.093,0.619,4.222,1.722l26.222,25.925c0.286,0.281,0.537,0.595,0.755,0.934
	c0.103,0.136,0.187,0.29,0.241,0.453l0.332,0.571l0.182,0.604c0.006,0.091,0.006,0.182,0.006,0.272c0,0.091,0,0.181-0.006,0.272
	c0.075,0.386,0.114,0.779,0.114,1.175c0,0.393-0.039,0.788-0.114,1.175c-0.072,0.157-0.166,0.311-0.271,0.453l-0.182,0.601
	c-0.091,0.211-0.202,0.414-0.332,0.601c-0.055,0.163-0.139,0.317-0.242,0.456c-0.205,0.333-0.462,0.638-0.752,0.903l-25.892,26.013
	c-1.142,1.256-2.76,1.972-4.461,1.972c-3.331,0-6.028-2.7-6.028-6.028c0-1.704,0.722-3.331,1.991-4.476l14.835-14.892
	C86.841,54.05,41.281,122.536,40.638,194.814C40.07,259.141,80.84,310.27,141.418,341.438L141.418,341.438z M190.309,192.836
	L190.309,192.836c11.283,0.045,20.404,9.215,20.404,20.498c0,8.961-5.823,16.886-14.376,19.559v18.088
	c0,3.328-2.7,6.028-6.028,6.028s-6.028-2.7-6.028-6.025v-18.088c-8.553-2.676-14.382-10.601-14.382-19.562
	C169.898,202.051,179.025,192.881,190.309,192.836L190.309,192.836z M196.307,244.922
	C196.307,244.922,180.738,244.922,196.307,244.922L196.307,244.922z M190.309,92.89c25.931,0.511,46.638,21.655,47.447,46.867
	l0.875,27.13h-96.455l0.873-26.74C143.233,114.424,163.967,92.374,190.309,92.89L190.309,92.89z M120.301,191.232
	c1.64-4.325,4.463-10.927,10.764-10.927h118.161c6.457,3.047,10.704,7.266,10.704,13.068v49.763
	c-1.674,18.886-16.678,30.277-33.66,32.748h-71.922c-17.853-2.347-34.046-16.91-34.046-34.886V191.232z"/>
</svg>
