<?xml version="1.0" encoding="utf-8"?>
<!-- Generator: Adobe Illustrator 16.0.0, SVG Export Plug-In . SVG Version: 6.00 Build 0)  -->
<!DOCTYPE svg PUBLIC "-//W3C//DTD SVG 1.1//EN" "http://www.w3.org/Graphics/SVG/1.1/DTD/svg11.dtd">
<svg version="1.1" id="Layer_1" xmlns="http://www.w3.org/2000/svg" xmlns:xlink="http://www.w3.org/1999/xlink" x="0px" y="0px"
	 width="384px" height="384px" viewBox="0 0 384 384" enable-background="new 0 0 384 384" xml:space="preserve">
<linearGradient id="SVGID_1_" gradientUnits="userSpaceOnUse" x1="84.4561" y1="79.7974" x2="300.2576" y2="305.7628">
	<stop  offset="0" style="stop-color:#4B5763"/>
	<stop  offset="1" style="stop-color:#101E29"/>
</linearGradient>
<path fill-rule="evenodd" clip-rule="evenodd" fill="url(#SVGID_1_)" d="M96.671,295.78c-2.028,0-4.063-0.777-5.619-2.318
	c-26.967-26.979-41.836-62.853-41.836-101.008c0-38.152,14.87-74.022,41.855-100.989c3.094-3.094,8.125-3.094,11.219,0
	c3.1,3.097,3.1,8.125,0,11.225c-23.982,23.979-37.199,55.847-37.199,89.764c0,33.917,13.217,65.788,37.199,89.771
	c3.1,3.1,3.1,8.128,0,11.222C100.74,295.003,98.706,295.78,96.671,295.78L96.671,295.78z M153.542,319.43
	c-1.211,0-2.416-0.272-3.542-0.826c-3.394-1.699-5.11-5.556-4.108-9.222l27.824-101.053h-53.074c-3.003,0-5.746-1.701-7.096-4.384
	c-1.332-2.682-1.047-5.903,0.745-8.301l94.959-126.969c2.192-2.936,6.109-3.984,9.46-2.555c3.363,1.429,5.319,4.964,4.732,8.585
	l-14.096,86.008h54.14c3.016,0,5.776,1.713,7.123,4.429c1.335,2.712,1.003,5.952-0.838,8.349L159.826,316.336
	C158.289,318.334,155.939,319.43,153.542,319.43L153.542,319.43z M136.495,192.454h47.631c2.477,0,4.811,1.162,6.318,3.13
	c1.49,1.983,1.98,4.538,1.332,6.921l-19.84,72.088l75.421-98.008h-47.358c-2.334,0-4.541-1.017-6.049-2.794
	c-1.507-1.777-2.155-4.126-1.792-6.427l10.365-63.203L136.495,192.454L136.495,192.454z M287.449,295.78
	c-2.034,0-4.063-0.777-5.618-2.318c-3.094-3.094-3.094-8.125,0-11.22c23.981-24,37.205-55.871,37.205-89.788
	c0-33.917-13.224-65.785-37.205-89.764c-3.094-3.1-3.094-8.131,0-11.225s8.125-3.094,11.225,0
	c26.979,26.967,41.849,62.837,41.849,100.989c0,38.155-14.869,74.028-41.849,100.992C291.512,295.003,289.483,295.78,287.449,295.78
	L287.449,295.78z M321.098,329.426c2.031,0,4.063-0.775,5.604-2.331c35.994-35.979,55.816-83.801,55.816-134.638
	S362.695,93.799,326.701,57.82c-3.094-3.097-8.125-3.097-11.223,0c-3.097,3.094-3.097,8.125,0,11.219
	c32.997,32.982,51.17,76.82,51.17,123.418s-18.173,90.434-51.17,123.431c-3.097,3.097-3.097,8.128,0,11.222
	C317.032,328.65,319.066,329.426,321.098,329.426L321.098,329.426z M63.026,329.426L63.026,329.426c2.028,0,4.063-0.775,5.619-2.331
	c3.094-3.094,3.094-8.125,0-11.22c-32.997-32.984-51.173-76.819-51.173-123.421c0-46.596,18.176-90.434,51.173-123.416
	c3.094-3.094,3.094-8.125,0-11.222c-3.097-3.094-8.125-3.094-11.225,0C21.426,93.799,1.604,141.62,1.604,192.454
	c0,50.84,19.822,98.658,55.805,134.655C58.964,328.65,60.992,329.426,63.026,329.426z"/>
</svg>
