<?xml version="1.0" encoding="utf-8"?>
<!-- Generator: Adobe Illustrator 16.0.0, SVG Export Plug-In . SVG Version: 6.00 Build 0)  -->
<!DOCTYPE svg PUBLIC "-//W3C//DTD SVG 1.1//EN" "http://www.w3.org/Graphics/SVG/1.1/DTD/svg11.dtd">
<svg version="1.1" id="Layer_1" xmlns="http://www.w3.org/2000/svg" xmlns:xlink="http://www.w3.org/1999/xlink" x="0px" y="0px"
	 width="384px" height="384px" viewBox="0 0 384 384" enable-background="new 0 0 384 384" xml:space="preserve">
<linearGradient id="SVGID_1_" gradientUnits="userSpaceOnUse" x1="65.4307" y1="67.5659" x2="316.3177" y2="329.2891">
	<stop  offset="0" style="stop-color:#4B5763"/>
	<stop  offset="1" style="stop-color:#101E29"/>
</linearGradient>
<path fill-rule="evenodd" clip-rule="evenodd" fill="url(#SVGID_1_)" d="M370.461,249.152H332.01
	c2.768-6.505,4.342-14.084,4.342-22.243c0-24.948-14.654-44.491-33.367-44.491c-18.712,0-33.366,19.543-33.366,44.491
	c0,8.159,1.577,15.738,4.341,22.243h-37.708c-6.144,0-11.125,4.981-11.125,11.124c0,6.141,4.981,11.122,11.125,11.122l12.24,0.003
	c4.433,21.757,21.612,38.934,43.372,43.369v1.116c0,24.535-19.959,44.491-44.491,44.491c-24.53,0-44.491-19.956-44.491-44.491
	V225.79c21.76-4.435,38.937-21.612,43.372-43.372h12.24c6.144,0,11.125-4.979,11.125-11.121c0-6.143-4.981-11.123-11.125-11.123
	h-37.709c2.768-6.509,4.342-14.085,4.342-22.246c0-19.722-9.163-36.057-22.245-42.037v-26.18h11.124
	c30.664,0,55.613-24.949,55.613-55.613c0-6.143-4.981-11.123-11.125-11.123h-133.47c-6.141,0-11.123,4.98-11.123,11.122
	c0,30.665,24.949,55.613,55.613,55.613l11.123,0.001v26.18c-13.081,5.98-22.244,22.315-22.244,42.037
	c0,8.16,1.577,15.736,4.342,22.246h-37.71c-6.141,0-11.123,4.98-11.123,11.123c0,6.142,4.981,11.121,11.123,11.121h12.242
	c4.434,21.76,21.612,38.938,43.371,43.372v90.097c0,24.535-19.957,44.491-44.49,44.491c-24.531,0-44.49-19.956-44.49-44.491v-1.116
	c21.758-4.436,38.935-21.612,43.371-43.369h12.242c6.143,0,11.123-4.984,11.123-11.125c0-6.143-4.98-11.124-11.123-11.124h-37.71
	c2.767-6.505,4.342-14.084,4.342-22.243c0-24.948-14.655-44.491-33.367-44.491c-18.711,0-33.367,19.543-33.367,44.491
	c0,8.159,1.577,15.738,4.342,22.243H13.058c-6.143,0-11.122,4.981-11.122,11.124c0,6.141,4.979,11.122,11.122,11.122l12.983,0.003
	c4.434,21.757,21.613,38.934,43.371,43.369v1.116c0,36.801,29.938,66.736,66.735,66.736c23.187,0,43.646-11.887,55.613-29.888
	c11.966,18.001,32.425,29.888,55.613,29.888c36.798,0,66.734-29.936,66.734-66.736v-1.116c21.76-4.436,38.937-21.612,43.372-43.369
	h12.982c6.144,0,11.121-4.984,11.121-11.125C381.582,254.134,376.604,249.152,370.461,249.152L370.461,249.152z M80.534,204.664
	c4.535,0,11.123,8.665,11.123,22.245c0,13.578-6.588,22.243-11.123,22.243s-11.123-8.665-11.123-22.243
	C69.411,213.329,75.999,204.664,80.534,204.664L80.534,204.664z M80.534,293.644c-14.499,0-26.863-9.371-31.454-22.318h62.908
	C107.397,284.272,95.034,293.644,80.534,293.644L80.534,293.644z M169.514,47.465c-14.501,0-26.871-9.373-31.46-22.319h107.412
	c-4.589,12.947-16.959,22.319-31.46,22.319H169.514L169.514,47.465z M191.759,115.684c4.535,0,11.122,8.666,11.122,22.244
	c0,13.579-6.587,22.246-11.122,22.246s-11.123-8.667-11.123-22.246C180.636,124.35,187.225,115.684,191.759,115.684L191.759,115.684
	z M191.759,204.664c-14.5,0-26.864-9.375-31.454-22.32h62.909C218.624,195.289,206.26,204.664,191.759,204.664L191.759,204.664z
	 M302.984,204.664c4.535,0,11.122,8.665,11.122,22.245c0,13.578-6.587,22.243-11.122,22.243c-4.534,0-11.121-8.665-11.121-22.243
	C291.863,213.329,298.45,204.664,302.984,204.664L302.984,204.664z M302.984,293.644c-14.5,0-26.864-9.371-31.454-22.318h62.909
	C329.85,284.272,317.485,293.644,302.984,293.644z"/>
</svg>
