<?xml version="1.0" encoding="utf-8"?>
<!-- Generator: Adobe Illustrator 16.0.0, SVG Export Plug-In . SVG Version: 6.00 Build 0)  -->
<!DOCTYPE svg PUBLIC "-//W3C//DTD SVG 1.1//EN" "http://www.w3.org/Graphics/SVG/1.1/DTD/svg11.dtd">
<svg version="1.1" id="Layer_1" xmlns="http://www.w3.org/2000/svg" xmlns:xlink="http://www.w3.org/1999/xlink" x="0px" y="0px"
	 width="384px" height="384px" viewBox="0 0 384 384" enable-background="new 0 0 384 384" xml:space="preserve">
<linearGradient id="SVGID_1_" gradientUnits="userSpaceOnUse" x1="96.0625" y1="5.833" x2="301.2501" y2="320.3049">
	<stop  offset="0" style="stop-color:#4B5763"/>
	<stop  offset="1" style="stop-color:#101E29"/>
</linearGradient>
<path fill-rule="evenodd" clip-rule="evenodd" fill="url(#SVGID_1_)" d="M335.553,6.084c-4.082-4.085-10.695-4.16-14.852-0.078
	c-4.092,4.088-4.163,10.702-0.075,14.858c53.33,53.852,53.33,141.427,0,195.205c-4.088,4.088-4.017,10.698,0.075,14.858
	c5.645,5.645,12.776,2.003,14.852-0.075C396.984,168.831,396.984,68.031,335.553,6.084L335.553,6.084z M283.042,359.355h-21.916
	l-55.261-208.946c12.552-5.126,21.391-17.531,21.391-32.014c0-19.016-15.375-34.54-34.312-34.54c-18.946,0-34.32,15.524-34.32,34.54
	c0,14.408,8.839,26.813,21.394,32.014l-55.265,208.946h-21.916c-5.792,0-10.47,4.68-10.47,10.474c0,5.795,4.679,10.474,10.47,10.474
	h180.277c5.794,0,10.473-4.679,10.473-10.474C293.587,364.035,288.837,359.355,283.042,359.355L283.042,359.355z M179.567,118.467
	c0-7.498,6.02-13.593,13.376-13.593c7.348,0,13.365,6.095,13.365,13.593c0,7.504-6.017,13.593-13.365,13.593
	C185.587,132.06,179.567,125.971,179.567,118.467L179.567,118.467z M146.365,359.355l46.579-175.895l46.567,175.895H146.365
	L146.365,359.355z M144.137,79.47c-21.315,21.469-21.315,56.452,0,77.921c4.088,4.157,4.016,10.768-0.075,14.853
	c-4.829,4.757-12.777,2.006-14.853-0.072c-29.345-29.639-29.345-77.843,0-107.482c4.082-4.085,10.768-4.16,14.853-0.075
	C148.153,68.7,148.225,75.385,144.137,79.47L144.137,79.47z M104.622,50.132c-37.287,37.659-37.287,98.939,0,136.598
	c4.085,4.16,4.013,10.77-0.072,14.859c-6.095,6.088-12.777,2.003-14.858-0.15c-45.385-45.757-45.385-120.333,0-166.087
	c4.085-4.088,10.77-4.163,14.858-0.078C108.635,39.358,108.707,46.046,104.622,50.132L104.622,50.132z M65.175,20.865
	c4.091-4.085,4.019-10.771-0.072-14.858C61.018,1.924,54.336,2,50.248,6.084c-61.356,61.947-61.356,162.746,0,224.768
	c2.082,2.078,9.21,5.645,14.855,0.075c4.091-4.086,4.163-10.695,0.072-14.858C11.848,162.22,11.848,74.642,65.175,20.865
	L65.175,20.865z M256.744,64.762c29.339,29.566,29.339,77.771,0,107.41c-2.081,2.081-10.102,4.829-14.855,0.072
	c-4.088-4.157-4.16-10.767-0.074-14.853c21.243-21.469,21.243-56.452,0-77.846c-4.086-4.16-4.014-10.771,0.074-14.855
	C246.049,60.605,252.659,60.677,256.744,64.762L256.744,64.762z M296.112,35.423c45.386,45.757,45.386,120.258,0,166.166
	c-2.075,2.075-8.764,6.163-14.854,0.071c-4.089-4.16-4.16-10.77-0.075-14.855c37.286-37.662,37.286-98.94,0-136.602
	c-4.085-4.157-4.014-10.768,0.075-14.853C285.417,31.263,292.027,31.338,296.112,35.423z"/>
</svg>
