<?xml version="1.0" encoding="utf-8"?>
<!-- Generator: Adobe Illustrator 16.0.0, SVG Export Plug-In . SVG Version: 6.00 Build 0)  -->
<!DOCTYPE svg PUBLIC "-//W3C//DTD SVG 1.1//EN" "http://www.w3.org/Graphics/SVG/1.1/DTD/svg11.dtd">
<svg version="1.1" id="Layer_1" xmlns="http://www.w3.org/2000/svg" xmlns:xlink="http://www.w3.org/1999/xlink" x="0px" y="0px"
	 width="384px" height="384px" viewBox="0 0 384 384" enable-background="new 0 0 384 384" xml:space="preserve">
<g>
	<g>
		<linearGradient id="SVGID_1_" gradientUnits="userSpaceOnUse" x1="21.2251" y1="8.6841" x2="352.7935" y2="337.9274">
			<stop  offset="0" style="stop-color:#3ABCA8"/>
			<stop  offset="1" style="stop-color:#009383"/>
		</linearGradient>
		<path fill-rule="evenodd" clip-rule="evenodd" fill="url(#SVGID_1_)" d="M368.855,8.848H15.914
			c-7.495,0-13.574,6.078-13.574,13.575L2.338,63.146C2.34,70.642,8.419,76.72,15.914,76.72h13.575v285.066c0,0.012,0,0.024,0,0.037
			c0,7.497,6.079,13.574,13.575,13.574c1.477,0,2.945-0.242,4.343-0.713l35.43-11.811l22.126,10.995
			c1.875,0.93,3.947,1.42,6.042,1.42s4.165-0.49,6.041-1.42l21.039-10.588l21.991,10.724c1.895,0.954,3.989,1.453,6.109,1.453
			c2.122,0,4.215-0.499,6.109-1.453l20.091-10.587l21.039,10.451c1.876,0.93,3.945,1.42,6.042,1.42s4.168-0.49,6.041-1.42
			l21.175-10.451l21.042,10.587c1.873,0.931,3.945,1.416,6.042,1.416c2.094,0,4.165-0.485,6.041-1.419l22.124-10.996l35.433,11.812
			c1.396,0.475,2.866,0.716,4.343,0.716c7.498,0,13.575-6.08,13.575-13.575c0-0.057,0-0.117,0-0.172V76.72h13.575
			c7.494,0,13.574-6.079,13.574-13.575V22.422C382.43,14.925,376.35,8.848,368.855,8.848L368.855,8.848z M56.638,76.72h13.575
			v261.719l-13.575,4.479V76.72L56.638,76.72z M110.936,346.587l-13.574-6.791V76.72h27.149v263.076L110.936,346.587
			L110.936,346.587z M165.234,346.587l-13.575-6.924V76.72h27.15v263.214L165.234,346.587L165.234,346.587z M219.53,346.587
			l-13.571-6.791V76.72h27.146v263.076L219.53,346.587L219.53,346.587z M273.83,346.587l-13.574-6.791V76.72h27.149v263.076
			L273.83,346.587L273.83,346.587z M328.131,342.919l-13.575-4.479V76.72h13.575V342.919L328.131,342.919z M355.28,49.57H29.488
			V35.997H355.28V49.57z"/>
	</g>
</g>
</svg>
