<?xml version="1.0" encoding="utf-8"?>
<!-- Generator: Adobe Illustrator 16.0.0, SVG Export Plug-In . SVG Version: 6.00 Build 0)  -->
<!DOCTYPE svg PUBLIC "-//W3C//DTD SVG 1.1//EN" "http://www.w3.org/Graphics/SVG/1.1/DTD/svg11.dtd">
<svg version="1.1" id="Layer_1" xmlns="http://www.w3.org/2000/svg" xmlns:xlink="http://www.w3.org/1999/xlink" x="0px" y="0px"
	 width="384px" height="384px" viewBox="0 0 384 384" enable-background="new 0 0 384 384" xml:space="preserve">
<g>
	<g>
		<g>
			<linearGradient id="SVGID_1_" gradientUnits="userSpaceOnUse" x1="24.0474" y1="2.0112" x2="349.9878" y2="341.1113">
				<stop  offset="0" style="stop-color:#4B5763"/>
				<stop  offset="0.3622" style="stop-color:#333F4A"/>
				<stop  offset="0.7818" style="stop-color:#1A2832"/>
				<stop  offset="1" style="stop-color:#101E29"/>
			</linearGradient>
			<path fill-rule="evenodd" clip-rule="evenodd" fill="url(#SVGID_1_)" d="M290.207,75.812l2.471,299.234
				c16.622-0.131,33.24,0.356,49.633,0.356c7.512,0,13.606-6.092,13.606-13.607c0-0.054-0.004-0.114-0.004-0.169V75.884h13.608
				c7.512,0,13.606-6.092,13.606-13.605V21.458c0-7.514-6.095-13.605-13.606-13.605H15.746c-7.512,0-13.606,6.091-13.606,13.605
				L2.138,62.278c0.001,7.514,6.095,13.605,13.608,13.605h13.605v285.742c0.001,0.012,0.001,0.024,0.001,0.035
				c0,7.513,6.092,13.608,13.605,13.608c15.812,0,32.696-2.002,49.101-2.002l2.42-297.384L290.207,75.812L290.207,75.812z
				 M56.566,75.884h13.605v262.34l-13.605,4.491V75.884L56.566,75.884z M328.7,342.715l-13.604-4.491V75.884H328.7V342.715
				L328.7,342.715z M355.913,48.671H29.352V35.064h326.561V48.671z"/>
		</g>
	</g>
</g>
</svg>
