<?xml version="1.0" encoding="utf-8"?>
<!-- Generator: Adobe Illustrator 16.0.0, SVG Export Plug-In . SVG Version: 6.00 Build 0)  -->
<!DOCTYPE svg PUBLIC "-//W3C//DTD SVG 1.1//EN" "http://www.w3.org/Graphics/SVG/1.1/DTD/svg11.dtd">
<svg version="1.1" id="Layer_1" xmlns="http://www.w3.org/2000/svg" xmlns:xlink="http://www.w3.org/1999/xlink" x="0px" y="0px"
	 width="384px" height="384px" viewBox="0 0 384 384" enable-background="new 0 0 384 384" xml:space="preserve">
<linearGradient id="SVGID_1_" gradientUnits="userSpaceOnUse" x1="73.8467" y1="18.8306" x2="313.168" y2="335.9657">
	<stop  offset="0" style="stop-color:#4B5763"/>
	<stop  offset="1" style="stop-color:#101E29"/>
</linearGradient>
<path fill-rule="evenodd" clip-rule="evenodd" fill="url(#SVGID_1_)" d="M228.426,2.495h-72.043c-4.957,0-9.006,4.055-9.006,9.009
	v18.009H39.31c-4.954,0-9.005,4.055-9.005,9.005v36.023c0,4.951,4.052,9.005,9.005,9.005h9.547l16.479,271.787
	c0.902,14.23,12.697,25.397,27.018,25.397h200.195c14.224,0,26.115-11.167,27.015-25.397l16.391-271.787h9.547
	c4.954,0,9.006-4.055,9.006-9.005V38.518c0-4.951-4.055-9.005-9.006-9.005H237.432V11.504C237.432,6.55,233.379,2.495,228.426,2.495
	L228.426,2.495z M255.082,326.697c-5.044-0.271-8.825-4.413-8.465-9.457l9.006-198.121c0.181-4.954,4.773-8.648,9.366-8.555
	c4.954,0.177,8.825,4.41,8.555,9.363l-9.005,198.124c-0.271,4.86-4.232,8.646-9.006,8.646
	C255.353,326.697,255.172,326.697,255.082,326.697L255.082,326.697z M192.402,326.697c-4.951,0-9.003-4.053-9.003-9.006V119.567
	c0-4.951,4.052-9.003,9.003-9.003c4.954,0,9.006,4.052,9.006,9.003v198.124C201.408,322.645,197.356,326.697,192.402,326.697
	L192.402,326.697z M129.362,326.697c-4.771,0-8.732-3.785-8.916-8.556l-9-198.124c-0.274-4.954,3.601-9.186,8.552-9.367
	c4.506-0.18,9.099,3.604,9.363,8.558l9.012,198.121c0.265,4.954-3.604,9.097-8.561,9.367
	C129.635,326.697,129.545,326.697,129.362,326.697L129.362,326.697z M165.385,20.507h54.035v9.006h-54.035V20.507L165.385,20.507z
	 M301.551,354.252c-0.271,4.773-4.232,8.468-9.003,8.468H92.263c-4.773,0-8.735-3.694-9.006-8.468L66.866,83.547h251.077
	L301.551,354.252L301.551,354.252z M336.491,47.524v18.012h-9.002H57.322h-9.006V47.524h108.066h72.043H336.491z"/>
</svg>
