<?xml version="1.0" encoding="utf-8"?>
<!-- Generator: Adobe Illustrator 16.0.0, SVG Export Plug-In . SVG Version: 6.00 Build 0)  -->
<!DOCTYPE svg PUBLIC "-//W3C//DTD SVG 1.1//EN" "http://www.w3.org/Graphics/SVG/1.1/DTD/svg11.dtd">
<svg version="1.1" id="Layer_1" xmlns="http://www.w3.org/2000/svg" xmlns:xlink="http://www.w3.org/1999/xlink" x="0px" y="0px"
	 width="384px" height="384px" viewBox="0 0 384 384" enable-background="new 0 0 384 384" xml:space="preserve">
<linearGradient id="SVGID_1_" gradientUnits="userSpaceOnUse" x1="121.3408" y1="103.5864" x2="231.0094" y2="305.4296">
	<stop  offset="0" style="stop-color:#4B5763"/>
	<stop  offset="1" style="stop-color:#101E29"/>
</linearGradient>
<path fill-rule="evenodd" clip-rule="evenodd" fill="url(#SVGID_1_)" d="M1.15,349.142c0,8.989,3.499,17.445,9.857,23.8
	c6.562,6.562,15.181,9.846,23.8,9.846c8.619,0,17.238-3.284,23.799-9.846l101.796-101.793c22.289,13.797,48.54,21.775,76.622,21.775
	c80.507,0,146.006-65.493,146.006-146s-65.499-146-146.006-146c-80.506,0-146,65.493-146,146c0,28.085,7.982,54.34,21.778,76.628
	L11.008,325.346C4.649,331.7,1.15,340.152,1.15,349.142L1.15,349.142L1.15,349.142z M338.091,146.924
	c0,55.727-45.336,101.065-101.065,101.065c-55.724,0-101.062-45.339-101.062-101.065S181.302,45.859,237.025,45.859
	C292.755,45.859,338.091,91.197,338.091,146.924L338.091,146.924z M315.714,146.924c0,43.39-35.299,78.686-78.688,78.686
	c-43.384,0-78.686-35.296-78.686-78.686s35.302-78.686,78.686-78.686C280.415,68.238,315.714,103.534,315.714,146.924
	L315.714,146.924z M360.655,146.924c0,68.167-55.46,123.627-123.63,123.627c-68.167,0-123.62-55.46-123.62-123.627
	s55.454-123.626,123.62-123.626C305.195,23.297,360.655,78.757,360.655,146.924L360.655,146.924z M23.53,349.142
	c0-3.011,1.171-5.845,3.302-7.976l99.338-99.341c4.904,5.721,10.24,11.053,15.958,15.954l-99.341,99.342
	c-4.4,4.397-11.56,4.397-15.958,0C24.698,354.99,23.53,352.158,23.53,349.142z"/>
</svg>
