<?xml version="1.0" encoding="utf-8"?>
<!-- Generator: Adobe Illustrator 16.0.0, SVG Export Plug-In . SVG Version: 6.00 Build 0)  -->
<!DOCTYPE svg PUBLIC "-//W3C//DTD SVG 1.1//EN" "http://www.w3.org/Graphics/SVG/1.1/DTD/svg11.dtd">
<svg version="1.1" id="Layer_1" xmlns="http://www.w3.org/2000/svg" xmlns:xlink="http://www.w3.org/1999/xlink" x="0px" y="0px"
	 width="384px" height="384px" viewBox="0 0 384 384" enable-background="new 0 0 384 384" xml:space="preserve">
<linearGradient id="SVGID_1_" gradientUnits="userSpaceOnUse" x1="95.7383" y1="101.2612" x2="288.2592" y2="282.7391">
	<stop  offset="0" style="stop-color:#4B5763"/>
	<stop  offset="1" style="stop-color:#101E29"/>
</linearGradient>
<path fill-rule="evenodd" clip-rule="evenodd" fill="url(#SVGID_1_)" d="M191.993,158.166c-6.892,0-12.486,5.595-12.486,12.492
	v105.38c0,6.9,5.594,12.491,12.486,12.491c6.904,0,12.498-5.591,12.498-12.491v-105.38
	C204.49,163.761,198.896,158.166,191.993,158.166L191.993,158.166z M191.993,95.468c-13.772,0-24.978,11.209-24.978,24.987
	s11.206,24.982,24.978,24.982c13.784,0,24.996-11.204,24.996-24.982S205.776,95.468,191.993,95.468L191.993,95.468z M191.993,4.615
	c103.583,0,187.389,83.818,187.389,187.386c0,103.575-83.811,187.383-187.389,187.383c-103.571,0-187.375-83.819-187.375-187.383
	C4.617,88.424,88.435,4.615,191.993,4.615L191.993,4.615z M191.993,354.4C102.451,354.4,29.6,281.546,29.6,192.001
	c0-89.548,72.851-162.399,162.393-162.399c89.554,0,162.405,72.852,162.405,162.399C354.397,281.546,281.547,354.4,191.993,354.4z"
	/>
</svg>
