<?xml version="1.0" encoding="utf-8"?>
<!-- Generator: Adobe Illustrator 16.0.0, SVG Export Plug-In . SVG Version: 6.00 Build 0)  -->
<!DOCTYPE svg PUBLIC "-//W3C//DTD SVG 1.1//EN" "http://www.w3.org/Graphics/SVG/1.1/DTD/svg11.dtd">
<svg version="1.1" id="Layer_1" xmlns="http://www.w3.org/2000/svg" xmlns:xlink="http://www.w3.org/1999/xlink" x="0px" y="0px"
	 width="384px" height="384px" viewBox="0 0 384 384" enable-background="new 0 0 384 384" xml:space="preserve">
<g>
	<linearGradient id="SVGID_1_" gradientUnits="userSpaceOnUse" x1="2.519" y1="36.8306" x2="365.4297" y2="337.1447">
		<stop  offset="0" style="stop-color:#3ABCA8"/>
		<stop  offset="1" style="stop-color:#009383"/>
	</linearGradient>
	<path fill-rule="evenodd" clip-rule="evenodd" fill="url(#SVGID_1_)" d="M192.281,115.309c-42.449,0-76.861,34.412-76.861,76.862
		s34.412,76.861,76.861,76.861c42.45,0,76.863-34.411,76.863-76.861C269.094,149.742,234.711,115.358,192.281,115.309
		L192.281,115.309z M13.459,38.895H0.686v306.553h38.32v-93.153l12.772-12.774V83.6C51.778,62.927,35.04,38.895,13.459,38.895
		L13.459,38.895z M39.006,234.231l-12.773,12.774v85.668H13.459V51.667c13.756,0,25.546,17.563,25.546,31.933V234.231
		L39.006,234.231z M377.49,38.895c-3.526,0-6.386,2.859-6.386,6.386v57.479h-12.773V45.281c0-3.527-2.859-6.386-6.387-6.386
		c-3.526,0-6.387,2.859-6.387,6.386v57.479h-12.772V45.281c0-3.527-2.86-6.386-6.387-6.386s-6.386,2.859-6.386,6.386v108.571h12.772
		v191.596h38.319V153.852h12.773V45.281C383.878,41.754,381.019,38.895,377.49,38.895L377.49,38.895z M371.104,141.079h-12.773
		v191.595h-12.773V141.079h-12.772v-25.546h38.319V141.079L371.104,141.079z M192.281,64.44
		c70.511,0.081,127.65,57.22,127.731,127.73c0,70.544-57.187,127.73-127.731,127.73c-70.543,0-127.73-57.187-127.73-127.73
		S121.738,64.44,192.281,64.44L192.281,64.44z M192.281,307.128c-63.488,0-114.957-51.469-114.957-114.957
		c0-63.489,51.469-114.958,114.957-114.958c63.489,0,114.957,51.468,114.957,114.958
		C307.164,255.63,255.741,307.054,192.281,307.128L192.281,307.128z M192.281,256.259c-35.395,0-64.088-28.694-64.088-64.088
		c0-35.395,28.694-64.089,64.088-64.089s64.089,28.694,64.089,64.089C256.328,227.548,227.659,256.217,192.281,256.259z"/>
</g>
</svg>
