<?xml version="1.0" encoding="utf-8"?>
<!-- Generator: Adobe Illustrator 16.0.0, SVG Export Plug-In . SVG Version: 6.00 Build 0)  -->
<!DOCTYPE svg PUBLIC "-//W3C//DTD SVG 1.1//EN" "http://www.w3.org/Graphics/SVG/1.1/DTD/svg11.dtd">
<svg version="1.1" id="Layer_1" xmlns="http://www.w3.org/2000/svg" xmlns:xlink="http://www.w3.org/1999/xlink" x="0px" y="0px"
	 width="384px" height="384px" viewBox="0 0 384 384" enable-background="new 0 0 384 384" xml:space="preserve">
<g>
	<linearGradient id="SVGID_1_" gradientUnits="userSpaceOnUse" x1="59.9932" y1="66.6875" x2="232.424" y2="330.044">
		<stop  offset="0" style="stop-color:#4B5763"/>
		<stop  offset="1" style="stop-color:#101E29"/>
	</linearGradient>
	<path fill-rule="evenodd" clip-rule="evenodd" fill="url(#SVGID_1_)" d="M108.967,160.55c-0.277-6.185-5.017-11.417-11.415-11.417
		c-5.971,0-11.694,5.249-11.416,11.417c0.277,6.185,5.017,11.412,11.416,11.412C103.523,171.961,109.241,166.714,108.967,160.55
		L108.967,160.55z M343.392,220.483L343.392,220.483c6.156,0.205,11.039,5.253,11.039,11.413v49.629
		c0,6.161-4.883,11.208-11.039,11.413l-110.19,3.62c-8.055,48.19-50.043,85.039-100.487,85.039
		c-56.182,0-101.886-45.709-101.886-101.887V104.5c0-56.181,45.704-101.89,101.886-101.89c56.181,0,101.887,45.709,101.887,101.89
		v112.409L343.392,220.483L343.392,220.483z M331.598,270.48l0.003-27.539l-195.94-6.443c-0.228-0.01-0.457-0.01-0.685-0.01
		c-5.271,0-10.231,2.007-14.041,5.69c-3.973,3.84-6.162,9.003-6.162,14.532c0,5.527,2.189,10.687,6.162,14.535
		c3.973,3.84,9.194,5.862,14.726,5.678L331.598,270.48L331.598,270.48z M132.714,358.767c-43.592,0-79.055-35.465-79.055-79.056
		V104.5c0-43.595,35.463-79.058,79.055-79.058c43.591,0,79.057,35.463,79.057,79.058v111.66l-75.358-2.478
		c-11.763-0.371-22.898,3.904-31.356,12.091s-13.115,19.173-13.115,30.938c0,11.771,4.658,22.758,13.115,30.938
		c8.108,7.846,18.672,12.118,29.895,12.118c0.483,0,0.971-0.01,1.458-0.025l73.38-2.413
		C201.763,332.466,170.25,358.767,132.714,358.767L132.714,358.767L132.714,358.767z M167.88,101.633
		c5.971,0,11.694-5.251,11.415-11.415c-0.277-6.185-5.016-11.416-11.415-11.416c-5.971,0-11.69,5.25-11.415,11.416
		C156.742,96.401,161.481,101.633,167.88,101.633L167.88,101.633z M167.88,136.798c5.971,0,11.694-5.25,11.415-11.416
		c-0.277-6.183-5.016-11.415-11.415-11.415c-5.971,0-11.69,5.251-11.415,11.415C156.742,131.567,161.481,136.798,167.88,136.798
		L167.88,136.798z M167.88,171.961c5.971,0,11.694-5.248,11.415-11.412c-0.277-6.185-5.016-11.417-11.415-11.417
		c-5.971,0-11.69,5.249-11.415,11.417C156.742,166.734,161.481,171.961,167.88,171.961L167.88,171.961z M132.714,101.633
		c5.969,0,11.694-5.251,11.416-11.415c-0.278-6.185-5.014-11.416-11.416-11.416c-5.971,0-11.689,5.25-11.415,11.416
		C121.576,96.401,126.315,101.633,132.714,101.633L132.714,101.633z M132.714,136.798c5.969,0,11.694-5.25,11.416-11.416
		c-0.278-6.183-5.014-11.415-11.416-11.415c-5.971,0-11.689,5.251-11.415,11.415C121.576,131.567,126.315,136.798,132.714,136.798
		L132.714,136.798z M132.714,171.961c5.969,0,11.694-5.248,11.416-11.412c-0.278-6.185-5.014-11.417-11.416-11.417
		c-5.971,0-11.689,5.249-11.415,11.417C121.576,166.734,126.315,171.961,132.714,171.961L132.714,171.961z M97.552,101.633
		c5.971,0,11.689-5.251,11.415-11.415c-0.277-6.185-5.017-11.416-11.415-11.416c-5.971,0-11.694,5.25-11.416,11.416
		C86.414,96.401,91.15,101.633,97.552,101.633L97.552,101.633z M97.552,136.798c5.971,0,11.689-5.25,11.415-11.416
		c-0.277-6.183-5.017-11.415-11.415-11.415c-5.971,0-11.694,5.251-11.416,11.415C86.414,131.567,91.15,136.798,97.552,136.798z"/>
</g>
</svg>
