<?xml version="1.0" encoding="utf-8"?>
<!-- Generator: Adobe Illustrator 16.0.0, SVG Export Plug-In . SVG Version: 6.00 Build 0)  -->
<!DOCTYPE svg PUBLIC "-//W3C//DTD SVG 1.1//EN" "http://www.w3.org/Graphics/SVG/1.1/DTD/svg11.dtd">
<svg version="1.1" id="Layer_1" xmlns="http://www.w3.org/2000/svg" xmlns:xlink="http://www.w3.org/1999/xlink" x="0px" y="0px"
	 width="384px" height="384px" viewBox="0 0 384 384" enable-background="new 0 0 384 384" xml:space="preserve">
<g>
	<linearGradient id="SVGID_1_" gradientUnits="userSpaceOnUse" x1="44.1328" y1="90.8599" x2="283.3514" y2="372.478">
		<stop  offset="0" style="stop-color:#3ABCA8"/>
		<stop  offset="1" style="stop-color:#009383"/>
	</linearGradient>
	<path fill-rule="evenodd" clip-rule="evenodd" fill="url(#SVGID_1_)" d="M106.681,160.892c-0.277-6.196-5.025-11.437-11.435-11.437
		c-5.98,0-11.713,5.259-11.436,11.437c0.277,6.196,5.025,11.433,11.436,11.433C101.228,172.324,106.958,167.068,106.681,160.892
		L106.681,160.892z M95.246,137.099c5.981,0,11.711-5.259,11.435-11.435c-0.277-6.196-5.025-11.436-11.435-11.436
		c-5.98,0-11.713,5.259-11.436,11.436C84.088,131.86,88.833,137.099,95.246,137.099L95.246,137.099z M95.246,101.871
		c5.981,0,11.711-5.26,11.435-11.435C106.404,84.24,101.656,79,95.246,79c-5.98,0-11.713,5.261-11.436,11.436
		C84.088,96.632,88.833,101.871,95.246,101.871L95.246,101.871z M130.471,172.324c5.982,0,11.715-5.256,11.436-11.433
		c-0.277-6.196-5.022-11.437-11.436-11.437c-5.98,0-11.71,5.259-11.435,11.437C119.313,167.088,124.061,172.324,130.471,172.324
		L130.471,172.324z M130.471,137.099c5.982,0,11.715-5.259,11.436-11.435c-0.277-6.196-5.022-11.436-11.436-11.436
		c-5.98,0-11.71,5.259-11.435,11.436C119.313,131.86,124.061,137.099,130.471,137.099L130.471,137.099z M130.471,101.871
		c5.982,0,11.715-5.26,11.436-11.435C141.629,84.24,136.884,79,130.471,79c-5.98,0-11.71,5.261-11.435,11.436
		C119.313,96.632,124.061,101.871,130.471,101.871L130.471,101.871z M165.699,172.324c5.982,0,11.714-5.256,11.436-11.433
		c-0.278-6.196-5.025-11.437-11.436-11.437c-5.98,0-11.71,5.259-11.436,11.437C154.542,167.088,159.289,172.324,165.699,172.324
		L165.699,172.324z M165.699,137.099c5.982,0,11.714-5.259,11.436-11.435c-0.278-6.196-5.025-11.436-11.436-11.436
		c-5.98,0-11.71,5.259-11.436,11.436C154.542,131.86,159.289,137.099,165.699,137.099L165.699,137.099z M165.699,101.871
		c5.982,0,11.714-5.26,11.436-11.435C176.856,84.24,172.109,79,165.699,79c-5.98,0-11.71,5.261-11.436,11.436
		C154.542,96.632,159.289,101.871,165.699,101.871L165.699,101.871z M237.357,222.805l19.624,11.764l-0.042,0.078l93.332,56.381
		c5.283,3.189,7.078,9.993,4.064,15.376l-24.295,43.379c-3.018,5.386-9.755,7.407-15.234,4.571l-86.562-44.81
		c-12.612,42.052-51.666,72.785-97.774,72.785c-56.281,0-102.066-45.786-102.066-102.067v-175.52
		c0-56.281,45.785-102.069,102.066-102.069s102.07,45.789,102.07,102.069l0.329,112.622c-0.103,0.933-0.202,1.786-0.299,2.567
		l4.779,2.888L237.357,222.805L237.357,222.805z M207.45,298.866c-8.388,34.723-39.716,60.593-76.979,60.593l0,0
		c-43.668,0-79.194-35.525-79.194-79.197v-175.52c0-43.672,35.525-79.198,79.194-79.198c43.669,0,79.2,35.526,79.2,79.198v101.355
		l-36.974-22.333c-10.099-6.084-21.925-7.795-33.322-4.783c-11.399,3.015-20.85,10.337-26.609,20.623
		c-5.761,10.286-7.068,22.171-3.683,33.462c3.247,10.825,10.392,19.729,20.199,25.224c0.422,0.235,0.852,0.468,1.285,0.691
		l65.317,33.808c-0.003,0.006-0.009,0.01-0.009,0.013c-0.016,0.015-0.03,0.03-0.042,0.048L207.45,298.866L207.45,298.866z
		 M315.492,328.954l13.48-24.071L160.871,203.337c-4.695-2.866-10.338-3.647-15.652-2.245c-5.353,1.415-9.792,4.855-12.498,9.686
		c-2.707,4.834-3.32,10.416-1.73,15.723c1.592,5.302,5.167,9.622,10.091,12.172L315.492,328.954z"/>
</g>
</svg>
