<?xml version="1.0" encoding="utf-8"?>
<!-- Generator: Adobe Illustrator 16.0.0, SVG Export Plug-In . SVG Version: 6.00 Build 0)  -->
<!DOCTYPE svg PUBLIC "-//W3C//DTD SVG 1.1//EN" "http://www.w3.org/Graphics/SVG/1.1/DTD/svg11.dtd">
<svg version="1.1" id="Layer_1" xmlns="http://www.w3.org/2000/svg" xmlns:xlink="http://www.w3.org/1999/xlink" x="0px" y="0px"
	 width="384px" height="384px" viewBox="0 0 384 384" enable-background="new 0 0 384 384" xml:space="preserve">
<g>
	<linearGradient id="SVGID_1_" gradientUnits="userSpaceOnUse" x1="93.3062" y1="77.4736" x2="308.1076" y2="333.8964">
		<stop  offset="0" style="stop-color:#4B5763"/>
		<stop  offset="1" style="stop-color:#101E29"/>
	</linearGradient>
	<path fill-rule="evenodd" clip-rule="evenodd" fill="url(#SVGID_1_)" d="M361.895,249.23
		c-11.854-20.739-35.512-42.467-70.51-42.467c-47.516,0-86.176,38.65-86.176,86.173s38.66,86.176,86.176,86.176
		c4.346,0,7.842-3.509,7.842-7.833s-3.516-7.833-7.842-7.833c-38.875,0-70.504-31.636-70.504-70.51
		c0-38.871,31.635-70.501,70.504-70.501c36.852,0,57.33,30.485,62.379,47.002h-31.039c-4.326,0-7.842,3.512-7.842,7.836
		c0,4.323,3.516,7.834,7.842,7.834h47.006c4.34,0,7.83-3.511,7.83-7.834v-47.005c0-4.327-3.51-7.833-7.83-7.833
		c-4.328,0-7.836,3.506-7.836,7.833V249.23L361.895,249.23z M355.207,122.955c4.002,7.381,2.27,16.185-4.02,21.138l-32.932,25.757
		c0.408,3.951,0.754,8.556,0.754,13.43c0,0.281-0.084,1.551-0.107,1.832c-0.238,2.161-1.387,4.575-3.139,5.879
		c-1.75,1.296-4.041,2.238-6.125,1.861c-17.01-3.102-32.039-2.005-47.285,2.538c-2.434,0.688-5.072,0.22-7.084-1.362
		c-1.99-1.586-3.102-4.03-2.973-6.563c0.047-0.849,0.156-1.679,0.262-2.51c0.143-40.267-31.553-71.962-70.516-71.962
		c-38.969,0-70.67,31.695-70.67,70.681c0,38.966,31.701,70.661,70.67,70.661c2.129-0.268,2.953-0.378,3.8-0.426
		c2.562-0.076,4.987,0.991,6.57,2.979c1.585,1.989,2.087,4.639,1.357,7.083c-2.814,9.508-4.246,19.273-4.246,29.016
		c0,20.889,6.337,41.021,18.341,58.192c1.658,2.396,1.863,5.517,0.512,8.098c-1.316,2.542-3.992,4.172-6.92,4.172h-53.998
		c-8.222,0-15.217-6.066-16.219-14.087l-5.906-41.188c-8.002-3.622-15.756-8.134-23.154-13.447L63.33,310.331
		c-7.901,2.87-16.484-0.33-20.308-7.301L8.641,243.568c-3.99-7.364-2.271-16.166,4.012-21.133l32.95-25.762
		c-0.515-4.948-0.764-9.287-0.764-13.412c0-4.117,0.25-8.458,0.752-13.427l-32.909-25.727c-6.42-5.075-8.13-14.178-3.994-21.197
		L43.11,63.359c3.854-7.005,12.532-10.139,20.166-7.177l38.951,15.65c7.723-5.484,15.336-9.92,23.107-13.457l5.93-41.333
		c0.979-7.899,7.955-13.959,16.195-13.959H216.4c8.246,0,15.229,6.061,16.217,14.099l5.908,41.176
		c8.008,3.619,15.756,8.13,23.152,13.441l38.846-15.605c7.895-2.834,16.514,0.329,20.303,7.319L355.207,122.955L355.207,122.955z
		 M305.193,160.199c-2.166,1.692-3.291,4.42-2.949,7.146c0.328,2.63,0.676,5.576,0.891,8.709
		c-11.963-1.269-23.434-0.609-34.904,1.708c-3.023-44.889-40.502-80.483-86.146-80.483c-47.593,0-86.33,38.729-86.33,86.344
		c0,45.656,35.6,83.135,80.493,86.142c-1.555,7.663-2.343,15.423-2.343,23.176c0,19.225,4.66,37.9,13.542,54.712l-40.662-0.374
		l-6.542-45.673c-0.419-2.757-2.23-5.095-4.8-6.144c-9.54-3.898-18.726-9.245-27.32-15.854c-1.401-1.082-3.09-1.629-4.782-1.629
		c-0.994,0-1.972,0.185-2.917,0.562l-43.727,16.797l-34.359-60.571l36.37-28.439c2.156-1.691,3.286-4.419,2.938-7.146
		c-0.782-6.236-1.142-11.296-1.142-15.919c0-4.62,0.366-9.683,1.142-15.916c0.348-2.726-0.782-5.454-2.938-7.149l-36.483-29.376
		l35.275-60.069l42.913,17.232c2.552,1.019,5.451,0.646,7.628-1.001c9.246-6.942,18.203-12.142,27.386-15.901
		c2.569-1.067,4.398-3.384,4.791-6.145l7.244-46.188l69.615,0.516l6.541,45.672c0.414,2.761,2.232,5.092,4.801,6.145
		c9.521,3.899,18.721,9.229,27.32,15.854c2.184,1.694,5.119,2.082,7.699,1.048l43.729-16.78l34.391,60.558L305.193,160.199z"/>
</g>
</svg>
