<?xml version="1.0" encoding="utf-8"?>
<!-- Generator: Adobe Illustrator 16.0.0, SVG Export Plug-In . SVG Version: 6.00 Build 0)  -->
<!DOCTYPE svg PUBLIC "-//W3C//DTD SVG 1.1//EN" "http://www.w3.org/Graphics/SVG/1.1/DTD/svg11.dtd">
<svg version="1.1" id="Layer_1" xmlns="http://www.w3.org/2000/svg" xmlns:xlink="http://www.w3.org/1999/xlink" x="0px" y="0px"
	 width="384px" height="384px" viewBox="0 0 384 384" enable-background="new 0 0 384 384" xml:space="preserve">
<g>
	<linearGradient id="SVGID_1_" gradientUnits="userSpaceOnUse" x1="128.6543" y1="131.6372" x2="210.9755" y2="315.5327">
		<stop  offset="0" style="stop-color:#3ABCA8"/>
		<stop  offset="1" style="stop-color:#009383"/>
	</linearGradient>
	<path fill-rule="evenodd" clip-rule="evenodd" fill="url(#SVGID_1_)" d="M244.495,300.332c-0.469,3.178-3.205,5.521-6.41,5.499
		h-91.574c-3.434,0.013-6.275-2.659-6.478-6.081l7.654-2.031l18.643-24.854c3.646-4.852,4.306-11.326,1.711-16.813
		c-2.591-5.489-8.011-9.09-14.078-9.351l-11.768-0.524c2.439-3.601,6.505-5.754,10.853-5.754h78.494
		c4.684,0.009,9.005,2.53,11.314,6.606l-5.886,1.438l-18.775,24.986c-3.601,4.84-4.254,11.266-1.699,16.733
		c2.558,5.469,7.906,9.091,13.933,9.428L244.495,300.332L244.495,300.332z M172.674,214.254L172.674,214.254
		c-7.228,0-13.083,5.858-13.083,13.084v13.084h65.41v-13.084c0-7.226-5.861-13.084-13.084-13.084H172.674L172.674,214.254z
		 M172.674,129.222h39.244v71.955h-39.244V129.222L172.674,129.222z M139.969,286.206l15.899-21.199
		c0.73-0.97,0.862-2.264,0.343-3.361c-0.518-1.099-1.602-1.822-2.815-1.871L9.739,253.503c-2.521-0.185-4.924,1.089-6.191,3.272
		c-1.265,2.184-1.173,4.9,0.236,6.998l17.665,25.77c9.694,13.844,26.839,20.396,43.299,16.549L139.969,286.206L139.969,286.206z
		 M244.621,260.044l-15.939,21.252c-0.727,0.966-0.858,2.254-0.347,3.352c0.513,1.092,1.589,1.815,2.794,1.884l143.726,7.526
		c2.515,0.211,4.929-1.046,6.198-3.227c1.272-2.178,1.175-4.896-0.245-6.98l-17.66-25.77c-9.667-13.89-26.83-20.475-43.303-16.616
		L244.621,260.044L244.621,260.044z M139.969,76.895h104.652v19.624c0,10.835-8.784,19.621-19.619,19.621h-65.41
		c-10.837,0-19.623-8.786-19.623-19.621V76.895z"/>
</g>
</svg>
