<?xml version="1.0" encoding="utf-8"?>
<!-- Generator: Adobe Illustrator 16.0.0, SVG Export Plug-In . SVG Version: 6.00 Build 0)  -->
<!DOCTYPE svg PUBLIC "-//W3C//DTD SVG 1.1//EN" "http://www.w3.org/Graphics/SVG/1.1/DTD/svg11.dtd">
<svg version="1.1" id="Layer_1" xmlns="http://www.w3.org/2000/svg" xmlns:xlink="http://www.w3.org/1999/xlink" x="0px" y="0px"
	 width="384px" height="384px" viewBox="0 0 384 384" enable-background="new 0 0 384 384" xml:space="preserve">
<g>
	<linearGradient id="SVGID_1_" gradientUnits="userSpaceOnUse" x1="101.5098" y1="163.6265" x2="342.7005" y2="327.4785">
		<stop  offset="0" style="stop-color:#4B5763"/>
		<stop  offset="1" style="stop-color:#101E29"/>
	</linearGradient>
	<path fill-rule="evenodd" clip-rule="evenodd" fill="url(#SVGID_1_)" d="M241.956,307.313c3.904-2.242,6.313-6.391,6.33-10.89
		v-4.993l119.354,6.252c0.211,0.009,0.429,0.018,0.64,0.018l0,0c4.713,0.024,9.063-2.54,11.323-6.68
		c2.306-4.14,2.04-9.229-0.685-13.106l-17.08-24.922c-10.887-15.551-30.133-22.931-48.628-18.644l-65.099,16.072
		c-0.859-9.754-9.016-17.243-18.809-17.276v-6.323c-0.024-8.017-5.094-15.155-12.657-17.816V125.58h6.33
		c13.973-0.015,25.293-11.336,25.311-25.31V81.289c0-3.495-2.836-6.328-6.33-6.328H140.718c-3.497,0-6.33,2.833-6.33,6.328v18.981
		c0.015,13.974,11.34,25.294,25.311,25.31h6.329v83.425c-7.563,2.664-12.631,9.8-12.656,17.816v6.323
		c-10.03,0.03-18.302,7.866-18.869,17.88l-119.545-5.22c-4.939-0.259-9.581,2.359-11.907,6.726
		c-2.276,4.148-2.003,9.229,0.706,13.112l17.089,24.932c8.71,12.445,22.979,19.825,38.17,19.738
		c3.551,0.003,7.09-0.398,10.556-1.189l64.816-17.137v4.438c0.015,4.499,2.429,8.65,6.33,10.896L241.956,307.313L241.956,307.313z
		 M316.366,249.438c12.434-0.615,22.505,1.847,31.915,10.627l17.113,22.357l-127.858-6.897l9.866-8.684L316.366,249.438
		L316.366,249.438z M148.783,100.271l-0.058-9.779h85.398l-0.546,10.145c-0.281,6.308-4.137,7.767-10.774,8.64h-63.279
		C152.87,109.242,149.082,107.284,148.783,100.271L148.783,100.271z M200.283,125.464v82.259l-17.491-0.242v-82.026L200.283,125.464
		L200.283,125.464z M166.971,226.453c0.003-3.494,1.946-5.208,5.44-5.208l37.968,0.232c3.494,0.003,5.165,1.735,5.165,5.229
		l0.175,5.634l-48.573-0.251L166.971,226.453L166.971,226.453z M66.311,294.285c-13.669-1.605-24.218-3.566-32.086-11.937
		l-15.783-21.721l128.999,6.294l-10.699,8.744L66.311,294.285L66.311,294.285z M235.687,294.861h-88.584l-0.059-8.988l17.718-23.618
		c1.407-1.877,1.663-4.381,0.661-6.499c-1.006-2.124-3.1-3.516-5.443-3.621l-12.823-0.558c0.264-3.247,3.078-5.519,6.333-5.543
		h75.927c3.494,0.003,6.209,2.604,6.212,6.095v4.221l-17.717,23.622c-1.405,1.867-1.662,4.359-0.676,6.475
		c0.993,2.118,3.068,3.519,5.401,3.639l12.991,0.682L235.687,294.861z"/>
</g>
</svg>
