<?xml version="1.0" encoding="utf-8"?>
<!-- Generator: Adobe Illustrator 16.0.0, SVG Export Plug-In . SVG Version: 6.00 Build 0)  -->
<!DOCTYPE svg PUBLIC "-//W3C//DTD SVG 1.1//EN" "http://www.w3.org/Graphics/SVG/1.1/DTD/svg11.dtd">
<svg version="1.1" id="Layer_1" xmlns="http://www.w3.org/2000/svg" xmlns:xlink="http://www.w3.org/1999/xlink" x="0px" y="0px"
	 width="384px" height="384px" viewBox="0 0 384 384" enable-background="new 0 0 384 384" xml:space="preserve">
<linearGradient id="SVGID_1_" gradientUnits="userSpaceOnUse" x1="71.7241" y1="115.73" x2="336.1972" y2="312.5572">
	<stop  offset="0" style="stop-color:#3ABCA8"/>
	<stop  offset="1" style="stop-color:#009383"/>
</linearGradient>
<path fill-rule="evenodd" clip-rule="evenodd" fill="url(#SVGID_1_)" d="M152.095,143.32h-29.307v-29.307
	c0-2.028-1.642-3.668-3.668-3.668H89.693c-2.026,0-3.668,1.641-3.668,3.668v29.307H56.721c-2.026,0-3.668,1.64-3.668,3.667v29.425
	c0,2.028,1.642,3.668,3.668,3.668h29.304v29.307c0,2.027,1.643,3.669,3.668,3.669h29.426c2.026,0,3.668-1.642,3.668-3.669v-29.307
	h29.307c2.025,0,3.668-1.64,3.668-3.668v-29.425C155.763,144.96,154.12,143.32,152.095,143.32L152.095,143.32z M314.271,175.036
	c9.574,0,17.362-7.788,17.362-17.363c0-9.576-7.788-17.364-17.362-17.364c-9.573,0-17.364,7.788-17.364,17.364
	C296.907,167.248,304.698,175.036,314.271,175.036L314.271,175.036z M280.279,141.043c-9.573,0-17.364-7.787-17.364-17.363
	c0-9.576,7.791-17.363,17.364-17.363s17.363,7.787,17.363,17.363C297.643,133.256,289.853,141.043,280.279,141.043L280.279,141.043z
	 M280.279,113.654c-5.529,0-10.026,4.5-10.026,10.026c0,5.528,4.497,10.027,10.026,10.027s10.027-4.5,10.027-10.027
	C290.307,118.153,285.809,113.654,280.279,113.654L280.279,113.654z M280.279,174.301c9.573,0,17.363,7.788,17.363,17.363
	s-7.79,17.364-17.363,17.364s-17.364-7.788-17.364-17.364S270.706,174.301,280.279,174.301L280.279,174.301z M280.279,201.69
	c5.529,0,10.027-4.498,10.027-10.026s-4.498-10.026-10.027-10.026s-10.026,4.499-10.026,10.026S274.75,201.69,280.279,201.69
	L280.279,201.69z M246.288,175.036c9.573,0,17.362-7.788,17.362-17.363c0-9.576-7.788-17.364-17.362-17.364
	c-9.575,0-17.365,7.788-17.365,17.364C228.923,167.248,236.714,175.036,246.288,175.036L246.288,175.036z M246.288,147.646
	c5.528,0,10.025,4.499,10.025,10.026s-4.497,10.027-10.025,10.027c-5.53,0-10.027-4.5-10.027-10.027
	S240.758,147.646,246.288,147.646L246.288,147.646z M314.271,147.646c5.529,0,10.026,4.499,10.026,10.026
	s-4.497,10.027-10.026,10.027c-5.528,0-10.026-4.5-10.026-10.027S308.742,147.646,314.271,147.646L314.271,147.646z
	 M381.156,260.463c2.136,16.61-2.957,33.313-13.972,45.834c-10.828,12.308-26.384,19.368-42.682,19.368
	c-20.031,0-38.837-10.81-49.082-28.211l-32.147-54.594c-4.091-6.947-11.577-11.262-19.54-11.262h-64.806
	c-7.958,0-15.445,4.312-19.536,11.258L107.2,297.485c-10.247,17.383-29.044,28.18-49.057,28.18
	c-16.286,0-31.838-7.057-42.662-19.357c-11.008-12.515-16.096-29.215-13.965-45.82l13.268-103.309
	c0.959-6.113,1.629-12.241,2.273-18.167l0.7-6.299c4.792-41.825,39.815-73.366,81.469-73.366c18.81,0,37.196,6.611,51.77,18.608
	c10.996,9.054,24.394,14.04,37.727,14.04h5.206c13.333,0,26.742-4.997,37.761-14.068c14.546-11.981,32.914-18.581,51.716-18.581
	c41.678,0,76.716,31.537,81.52,73.358c0.244,2.158,0.479,4.319,0.716,6.478c0.643,5.877,1.305,11.952,2.222,17.801L381.156,260.463
	L381.156,260.463z M355.759,296.239c-7.939,9.028-19.327,14.201-31.248,14.201c-14.661,0-28.442-7.936-35.963-20.708L256.4,235.138
	c-6.816-11.574-19.33-18.764-32.658-18.764h-64.811c-13.321,0-25.835,7.186-32.652,18.752l-32.191,54.629
	c-7.521,12.762-21.292,20.689-35.938,20.689c-11.912,0-23.296-5.173-31.232-14.193c-8.118-9.225-11.871-21.554-10.295-33.82
	l13.241-103.094c0.986-6.257,1.671-12.568,2.337-18.673l0.689-6.216c3.912-34.132,32.432-59.874,66.347-59.874
	c15.289,0,30.235,5.375,42.092,15.137c13.717,11.293,30.547,17.512,47.404,17.512h5.207c16.854,0,33.698-6.227,47.436-17.538
	c11.828-9.744,26.761-15.111,42.042-15.111c33.934,0,62.474,25.741,66.385,59.878l0.712,6.39c0.661,6.051,1.344,12.309,2.291,18.303
	l13.264,103.266C367.634,274.675,363.877,287.011,355.759,296.239L355.759,296.239z M148.426,172.745H119.12
	c-2.026,0-3.668,1.641-3.668,3.668v29.307h-22.09v-29.307c0-2.027-1.643-3.668-3.668-3.668H60.389v-22.088h29.305
	c2.025,0,3.668-1.64,3.668-3.668v-29.306h22.09v29.306c0,2.028,1.642,3.668,3.668,3.668h29.307V172.745z"/>
</svg>
