<?xml version="1.0" encoding="utf-8"?>
<!-- Generator: Adobe Illustrator 16.0.0, SVG Export Plug-In . SVG Version: 6.00 Build 0)  -->
<!DOCTYPE svg PUBLIC "-//W3C//DTD SVG 1.1//EN" "http://www.w3.org/Graphics/SVG/1.1/DTD/svg11.dtd">
<svg version="1.1" id="Layer_1" xmlns="http://www.w3.org/2000/svg" xmlns:xlink="http://www.w3.org/1999/xlink" x="0px" y="0px"
	 width="384px" height="384px" viewBox="0 0 384 384" enable-background="new 0 0 384 384" xml:space="preserve">
<g>
	<linearGradient id="SVGID_1_" gradientUnits="userSpaceOnUse" x1="30.2261" y1="34.6519" x2="363.7558" y2="384.9097">
		<stop  offset="0" style="stop-color:#4B5763"/>
		<stop  offset="1" style="stop-color:#101E29"/>
	</linearGradient>
	<path fill-rule="evenodd" clip-rule="evenodd" fill="url(#SVGID_1_)" d="M368.11,353.881V31.161
		c0-16.2-13.137-29.338-29.341-29.338H45.39c-16.199,0-29.337,13.138-29.337,29.338v322.72c-8.101,0-14.669,6.568-14.669,14.668
		c0,8.102,6.568,14.67,14.669,14.67H368.11c8.099,0,14.67-6.568,14.67-14.67C382.78,360.449,376.209,353.881,368.11,353.881
		L368.11,353.881L368.11,353.881z M45.39,31.161h293.38v322.72h-29.335V133.846c0-8.101-6.571-14.669-14.67-14.669H89.398
		c-8.101,0-14.67,6.568-14.67,14.669v220.035H45.39V31.161L45.39,31.161z M280.094,354.029l-176.027,0.091V207.189h176.027V354.029
		L280.094,354.029z M280.094,177.852H104.066v-29.337h176.027V177.852L280.094,177.852z M252.493,276.805
		c3.916,0,6.935,3.019,7.235,6.935v3.922c0,3.92-3.016,6.936-6.936,6.936h-2.409c1.203,6.332,2.109,12.967,2.109,19.599v33.775
		c0,3.919-3.019,6.935-6.936,6.935h-11.76c-3.923,0-6.938-3.016-6.938-6.935v-10.854h-70.258v10.854
		c0,3.919-3.015,6.935-6.935,6.935h-11.761c-3.92,0-6.935-3.016-6.935-6.935v-33.775c0-6.632,0.603-13.267,2.111-19.599h-2.413
		c-3.919,0-6.936-3.016-6.936-6.936v-3.922c0-3.916,3.016-6.935,6.936-6.935h8.744l5.729-17.79
		c3.016-9.348,11.459-15.376,21.108-15.376h50.658c9.651,0,18.096,6.328,21.108,15.376l5.729,17.79H252.493L252.493,276.805z
		 M158.411,262.934c1.206-3.315,4.222-5.729,7.84-5.729h50.658c3.619,0,6.635,2.413,7.842,5.729l6.635,20.806
		c0.3,0.906-0.303,1.813-1.51,1.813h-76.59c-0.905,0-1.81-0.906-1.508-1.813L158.411,262.934L158.411,262.934z M166.552,318.117
		H152.38c-2.413,0-4.223-1.81-4.223-4.222v-6.635c0-2.713,2.413-4.522,4.824-4.22l13.269,2.109c1.81,0.304,3.016,1.51,3.619,3.316
		l0.905,4.522C171.076,315.401,169.266,318.117,166.552,318.117L166.552,318.117z M235.004,313.596c0,2.412-1.813,4.219-4.226,4.219
		h-14.17c-2.713,0-4.825-2.413-4.223-5.125l0.903-4.522c0.304-1.81,1.813-3.017,3.619-3.319l13.271-2.109
		c2.713-0.304,4.825,1.509,4.825,4.222V313.596z"/>
</g>
</svg>
