<?xml version="1.0" encoding="utf-8"?>
<!-- Generator: Adobe Illustrator 16.0.0, SVG Export Plug-In . SVG Version: 6.00 Build 0)  -->
<!DOCTYPE svg PUBLIC "-//W3C//DTD SVG 1.1//EN" "http://www.w3.org/Graphics/SVG/1.1/DTD/svg11.dtd">
<svg version="1.1" id="Layer_1" xmlns="http://www.w3.org/2000/svg" xmlns:xlink="http://www.w3.org/1999/xlink" x="0px" y="0px"
	 width="384px" height="384px" viewBox="0 0 384 384" enable-background="new 0 0 384 384" xml:space="preserve">
<g>
	<linearGradient id="SVGID_1_" gradientUnits="userSpaceOnUse" x1="159.0029" y1="35.2354" x2="250.4277" y2="348.9979">
		<stop  offset="0" style="stop-color:#3ABCA8"/>
		<stop  offset="1" style="stop-color:#009383"/>
	</linearGradient>
	<path fill-rule="evenodd" clip-rule="evenodd" fill="url(#SVGID_1_)" d="M305.891,143.153l-70.55-74.24
		c-2.943-3.093-8.172-5.338-12.439-5.338h-16.44v-4.712c9.379-4.939,15.795-14.784,15.795-26.103
		c0-16.258-13.23-29.486-29.485-29.486c-16.258,0-29.486,13.228-29.486,29.486c0,11.318,6.415,21.161,15.797,26.102v4.712h-17.71
		c-4.269,0-9.501,2.245-12.441,5.34l-70.552,74.241c-2.434,2.562-3.191,5.715-2.021,8.439c1.168,2.721,3.976,4.347,7.511,4.347
		h9.998l38.222,104.338c2.653,7.25,10.184,12.512,17.902,12.512h2.713l7.834,21.789c1.845,5.133,7.35,9.004,12.806,9.004h6.96
		v64.976c0,6.968,5.648,12.614,12.614,12.614c6.966,0,12.615-5.646,12.615-12.614v-64.979h6.959c5.453,0,10.962-3.868,12.809-9.001
		l7.836-21.792h2.709c7.718,0,15.25-5.262,17.905-12.509l38.22-104.34h8.43c3.535,0,6.344-1.626,7.512-4.349
		C309.08,148.868,308.326,145.713,305.891,143.153L305.891,143.153z M208.281,160.539h54.239l-31.216,87.072h-23.023V160.539
		L208.281,160.539z M177.757,160.539v87.072h-23.023l-31.216-87.072H177.757L177.757,160.539z M116.896,155.941h65.21v95.224
		h-30.327L116.896,155.941L116.896,155.941z M234.062,251.165h-30.33v-95.224h65.21L234.062,251.165z"/>
</g>
</svg>
