<?xml version="1.0" encoding="utf-8"?>
<!-- Generator: Adobe Illustrator 16.0.0, SVG Export Plug-In . SVG Version: 6.00 Build 0)  -->
<!DOCTYPE svg PUBLIC "-//W3C//DTD SVG 1.1//EN" "http://www.w3.org/Graphics/SVG/1.1/DTD/svg11.dtd">
<svg version="1.1" id="Layer_1" xmlns="http://www.w3.org/2000/svg" xmlns:xlink="http://www.w3.org/1999/xlink" x="0px" y="0px"
	 width="384px" height="384px" viewBox="0 0 384 384" enable-background="new 0 0 384 384" xml:space="preserve">
<linearGradient id="SVGID_1_" gradientUnits="userSpaceOnUse" x1="136.3008" y1="48.1426" x2="277.222" y2="324.1502">
	<stop  offset="0" style="stop-color:#4B5763"/>
	<stop  offset="1" style="stop-color:#101E29"/>
</linearGradient>
<path fill-rule="evenodd" clip-rule="evenodd" fill="url(#SVGID_1_)" d="M306.409,142.463l-71.182-74.903
	c-2.969-3.123-8.245-5.388-12.551-5.388h-16.588v-4.754c9.464-4.983,15.937-14.916,15.937-26.337
	c0-16.404-13.348-29.75-29.749-29.75c-16.404,0-29.75,13.346-29.75,29.75c0,11.42,6.472,21.351,15.939,26.336v4.754h-17.869
	c-4.307,0-9.586,2.265-12.553,5.388l-71.184,74.906c-2.456,2.585-3.22,5.768-2.039,8.515c1.179,2.747,4.012,4.387,7.579,4.387
	h10.087l38.564,105.272c2.677,7.315,10.275,12.625,18.063,12.625h2.737l7.904,21.983c1.862,5.179,7.417,9.084,12.92,9.084h7.022
	v65.558c0,7.031,5.698,12.728,12.727,12.728c7.028,0,12.729-5.696,12.729-12.728v-65.558h7.021c5.503,0,11.06-3.905,12.924-9.084
	l7.906-21.983h2.732c7.788,0,15.388-5.313,18.066-12.625l38.563-105.274h8.505c3.567,0,6.399-1.641,7.579-4.388
	C309.628,148.231,308.868,145.047,306.409,142.463L306.409,142.463z M115.722,155.366h65.794v96.076h-30.599L115.722,155.366
	L115.722,155.366z M233.938,251.442h-30.603v-96.076h65.794L233.938,251.442z"/>
</svg>
