<?xml version="1.0" standalone="no"?><!DOCTYPE svg PUBLIC "-//W3C//DTD SVG 20010904//EN"
    "http://www.w3.org/TR/2001/REC-SVG-20010904/DTD/svg10.dtd">
<svg height="500.000000pt" preserveAspectRatio="xMidYMid meet" version="1.0"
    viewBox="0 0 500.000000 500.000000" width="500.000000pt" xmlns="http://www.w3.org/2000/svg">

    <g fill="#000000" stroke="none"
        transform="translate(0.000000,500.000000) scale(0.100000,-0.100000)">
        <path d="M2330 4075 c-402 -68 -715 -349 -831 -745 -65 -223 -44 -479 61 -750
122 -312 369 -661 704 -996 149 -148 204 -194 234 -194 31 0 85 43 228 185
546 540 837 1089 811 1534 -15 259 -120 493 -303 675 -235 236 -578 347 -904
291z m348 -141 c280 -58 527 -253 643 -509 51 -114 71 -199 76 -340 4 -106 1
-147 -15 -226 -75 -353 -319 -741 -729 -1159 l-152 -155 -106 105 c-427 422
-700 845 -775 1203 -105 498 203 975 700 1081 90 20 264 19 358 0z" />
        <path d="M2349 3561 c-213 -68 -359 -266 -359 -485 0 -132 48 -251 141 -350
110 -119 281 -180 436 -157 130 19 222 69 311 166 249 272 127 716 -226 825
-83 26 -224 26 -303 1z m269 -134 c113 -39 206 -135 238 -244 24 -83 16 -193
-19 -266 -140 -285 -534 -285 -674 0 -25 52 -28 68 -28 158 0 89 3 106 28 157
84 171 280 255 455 195z" />
        <path d="M1870 1749 c-25 -5 -92 -19 -150 -30 -290 -57 -508 -168 -561 -284
-117 -255 311 -465 1049 -515 773 -52 1507 103 1627 343 104 210 -131 381
-658 477 -94 17 -121 19 -139 9 -31 -16 -38 -28 -38 -66 0 -45 24 -57 150 -78
217 -35 418 -102 511 -171 71 -52 78 -92 27 -141 -100 -93 -358 -174 -708
-220 -192 -25 -755 -25 -953 0 -181 23 -357 60 -487 103 -197 66 -282 135
-254 208 10 27 95 81 184 119 100 42 234 78 380 102 58 9 115 24 128 31 30 20
30 75 0 104 -23 22 -39 23 -108 9z" />
    </g>
</svg>
