<?xml version="1.0" standalone="no"?><!DOCTYPE svg PUBLIC "-//W3C//DTD SVG 20010904//EN"
    "http://www.w3.org/TR/2001/REC-SVG-20010904/DTD/svg10.dtd">
<svg height="500.000000pt" preserveAspectRatio="xMidYMid meet" version="1.0"
    viewBox="0 0 500.000000 500.000000" width="500.000000pt" xmlns="http://www.w3.org/2000/svg">

    <g fill="#000000" stroke="none"
        transform="translate(0.000000,500.000000) scale(0.100000,-0.100000)">
        <path d="M2410 4814 c-362 -46 -662 -188 -905 -429 -227 -225 -386 -546 -425
-858 -18 -142 -8 -433 20 -561 123 -576 535 -1216 1184 -1846 205 -199 235
-220 289 -206 55 14 413 366 631 621 705 824 955 1549 765 2215 -71 249 -213
477 -413 667 -265 250 -602 389 -971 398 -77 2 -156 1 -175 -1z m420 -273
c377 -94 677 -325 851 -655 56 -106 90 -196 121 -321 29 -120 32 -366 5 -495
-39 -183 -119 -401 -215 -580 -199 -374 -462 -718 -845 -1105 l-197 -200 -193
194 c-421 424 -680 769 -877 1166 -204 409 -257 730 -175 1058 110 440 471
808 906 923 143 37 202 43 369 40 124 -3 186 -9 250 -25z" />
        <path d="M2423 4085 c-153 -28 -288 -101 -398 -216 -82 -86 -136 -175 -173
-287 -23 -69 -26 -93 -26 -232 0 -169 11 -233 62 -338 92 -190 233 -316 430
-385 82 -29 96 -31 232 -31 130 0 153 3 221 27 188 65 326 181 423 358 57 104
79 201 79 359 1 161 -12 223 -79 359 -38 77 -62 110 -128 176 -118 119 -237
182 -395 210 -99 18 -151 18 -248 0z m228 -245 c30 -5 91 -28 135 -50 147 -72
256 -219 284 -383 39 -220 -122 -465 -358 -546 -84 -29 -233 -29 -324 -1 -245
76 -411 345 -357 580 19 85 78 188 146 254 127 126 298 178 474 146z" />
        <path d="M1617 1469 c-292 -51 -530 -120 -707 -206 -96 -48 -126 -68 -190
-132 -91 -89 -110 -134 -110 -250 0 -63 5 -87 28 -136 82 -173 363 -316 812
-414 486 -105 1198 -131 1780 -65 686 77 1152 265 1238 497 29 75 29 168 1
241 -54 146 -240 268 -558 365 -217 67 -548 129 -593 112 -47 -18 -63 -48 -63
-117 0 -97 15 -108 195 -139 403 -70 673 -167 788 -282 l53 -53 -18 -31 c-62
-109 -370 -233 -753 -303 -314 -57 -580 -79 -970 -79 -516 1 -921 48 -1275
149 -234 68 -416 162 -456 237 -22 40 50 109 186 176 165 82 341 133 645 186
176 30 190 40 190 136 0 71 -10 93 -50 114 -35 18 -36 18 -173 -6z" />
    </g>
</svg>
