<?xml version="1.0" encoding="utf-8"?>
<!-- Generator: Adobe Illustrator 16.0.0, SVG Export Plug-In . SVG Version: 6.00 Build 0)  -->
<!DOCTYPE svg PUBLIC "-//W3C//DTD SVG 1.1//EN" "http://www.w3.org/Graphics/SVG/1.1/DTD/svg11.dtd">
<svg version="1.1" id="Layer_1" xmlns="http://www.w3.org/2000/svg" xmlns:xlink="http://www.w3.org/1999/xlink" x="0px" y="0px"
	 width="384px" height="384px" viewBox="0 0 384 384" enable-background="new 0 0 384 384" xml:space="preserve">
<linearGradient id="SVGID_1_" gradientUnits="userSpaceOnUse" x1="113.7813" y1="31.2119" x2="284.0024" y2="334.9273">
	<stop  offset="0" style="stop-color:#3ABCA8"/>
	<stop  offset="1" style="stop-color:#009383"/>
</linearGradient>
<path fill-rule="evenodd" clip-rule="evenodd" fill="url(#SVGID_1_)" d="M152.662,335.904c-16.076-2.011-32.144-5.259-48.202-9.74
	c-14.51-4.053-24.545-17.274-24.545-32.34V47.125c0-15.066,10.036-28.289,24.545-32.34c29.094-8.121,58.227-12.187,87.373-12.187
	c29.149,0,58.281,4.066,87.37,12.187c14.513,4.051,24.55,17.274,24.55,32.34v246.699c0,15.065-10.037,28.287-24.55,32.34
	c-16.052,4.481-32.122,7.729-48.198,9.74v36.023c0,6.182-5.012,11.192-11.192,11.192c-6.179,0-11.192-5.011-11.192-11.192v-34.024
	c-5.595,0.3-11.189,0.447-16.787,0.447c-5.596,0-11.192-0.147-16.789-0.447v34.024c0,6.182-5.009,11.192-11.19,11.192
	c-6.182,0-11.192-5.011-11.192-11.192V335.904L152.662,335.904L152.662,335.904z M191.833,170.474
	c30.906,0,55.962-25.053,55.962-55.959c0-30.904-25.056-55.958-55.962-55.958c-30.905,0-55.958,25.055-55.958,55.958
	C135.875,145.421,160.928,170.474,191.833,170.474L191.833,170.474z M191.833,148.091c18.544,0,33.577-15.033,33.577-33.577
	c0-18.542-15.033-33.574-33.577-33.574s-33.575,15.032-33.575,33.574C158.258,133.059,173.289,148.091,191.833,148.091
	L191.833,148.091z M199.747,122.43l5.595-5.596c4.373-4.372,4.373-11.457,0-15.828c-4.37-4.37-11.455-4.37-15.827,0l-5.595,5.596
	c-4.372,4.372-4.372,11.457,0,15.829C188.29,126.8,195.376,126.8,199.747,122.43z"/>
</svg>
