<?xml version="1.0" encoding="utf-8"?>
<!-- Generator: Adobe Illustrator 16.0.0, SVG Export Plug-In . SVG Version: 6.00 Build 0)  -->
<!DOCTYPE svg PUBLIC "-//W3C//DTD SVG 1.1//EN" "http://www.w3.org/Graphics/SVG/1.1/DTD/svg11.dtd">
<svg version="1.1" id="Layer_1" xmlns="http://www.w3.org/2000/svg" xmlns:xlink="http://www.w3.org/1999/xlink" x="0px" y="0px"
	 width="384px" height="384px" viewBox="0 0 384 384" enable-background="new 0 0 384 384" xml:space="preserve">
<linearGradient id="SVGID_1_" gradientUnits="userSpaceOnUse" x1="114.8057" y1="30.9097" x2="279.4679" y2="326.3269">
	<stop  offset="0" style="stop-color:#4B5763"/>
	<stop  offset="1" style="stop-color:#101E29"/>
</linearGradient>
<path fill-rule="evenodd" clip-rule="evenodd" fill="url(#SVGID_1_)" d="M153.127,334.828c-16.039-2.007-32.071-5.247-48.089-9.719
	c-14.478-4.043-24.492-17.234-24.492-32.266V46.71c0-15.031,10.014-28.223,24.492-32.264c29.024-8.104,58.09-12.161,87.169-12.161
	c29.083,0,58.147,4.057,87.172,12.161c14.477,4.042,24.49,17.233,24.49,32.264v246.134c0,15.031-10.014,28.223-24.49,32.266
	c-16.019,4.472-32.052,7.712-48.091,9.719v35.94c0,6.167-4.996,11.163-11.167,11.163c-6.164,0-11.166-4.996-11.166-11.163v-33.949
	c-5.582,0.302-11.164,0.449-16.749,0.449c-5.583,0-11.167-0.147-16.749-0.449v33.949c0,6.167-5,11.163-11.167,11.163
	s-11.165-4.996-11.165-11.163V334.828L153.127,334.828L153.127,334.828z M111.042,35.955c-4.826,1.348-8.163,5.745-8.163,10.755
	v246.134c0,5.012,3.337,9.407,8.163,10.756c27.088,7.562,54.134,11.339,81.165,11.339s54.077-3.777,81.166-11.339
	c4.827-1.349,8.164-5.744,8.164-10.756V46.71c0-5.01-3.337-9.407-8.164-10.755c-27.089-7.563-54.135-11.338-81.166-11.338
	S138.131,28.393,111.042,35.955L111.042,35.955z M192.208,169.776c30.835,0,55.833-24.996,55.833-55.83
	s-24.997-55.831-55.833-55.831c-30.834,0-55.83,24.997-55.83,55.831S161.374,169.776,192.208,169.776L192.208,169.776z
	 M192.208,147.444c18.501,0,33.5-14.997,33.5-33.498s-14.998-33.498-33.5-33.498c-18.5,0-33.497,14.997-33.497,33.498
	S173.708,147.444,192.208,147.444L192.208,147.444z M200.104,121.842l5.582-5.583c4.362-4.361,4.362-11.43,0-15.79
	c-4.36-4.361-11.43-4.361-15.791,0l-5.582,5.582c-4.361,4.361-4.361,11.432,0,15.792
	C188.673,126.202,195.744,126.202,200.104,121.842z"/>
</svg>
