<?xml version="1.0" encoding="utf-8"?>
<!-- Generator: Adobe Illustrator 16.0.0, SVG Export Plug-In . SVG Version: 6.00 Build 0)  -->
<!DOCTYPE svg PUBLIC "-//W3C//DTD SVG 1.1//EN" "http://www.w3.org/Graphics/SVG/1.1/DTD/svg11.dtd">
<svg version="1.1" id="Layer_1" xmlns="http://www.w3.org/2000/svg" xmlns:xlink="http://www.w3.org/1999/xlink" x="0px" y="0px"
	 width="384px" height="384px" viewBox="0 0 384 384" enable-background="new 0 0 384 384" xml:space="preserve">
<linearGradient id="SVGID_1_" gradientUnits="userSpaceOnUse" x1="78.0361" y1="133.7832" x2="323.0328" y2="259.691">
	<stop  offset="0" style="stop-color:#3ABCA8"/>
	<stop  offset="1" style="stop-color:#009383"/>
</linearGradient>
<path fill-rule="evenodd" clip-rule="evenodd" fill="url(#SVGID_1_)" d="M366.372,162.723h-9.864v-25.278
	c0-5.21-4.233-9.443-9.443-9.443h-24.69v-8c0-5.979-4.863-10.842-10.843-10.842h-37.438c-5.98,0-10.843,4.863-10.843,10.842v41.144
	H120.822v-41.144c0-5.979-4.862-10.842-10.841-10.842h-37.44c-5.979,0-10.843,4.863-10.843,10.842v8h-24.69
	c-5.205,0-9.442,4.233-9.442,9.443v25.278h-9.857c-8.799,0-15.954,7.155-15.954,15.95v24.923c0,8.796,7.155,15.951,15.954,15.951
	h9.866v27.756c0,5.205,4.232,9.438,9.442,9.438h24.69v8.004c0,5.979,4.863,10.839,10.842,10.839h37.44
	c5.979,0,10.842-4.859,10.842-10.839v-41.144h142.436v41.144c0,5.979,4.862,10.839,10.842,10.839h37.44
	c5.979,0,10.842-4.859,10.842-10.839v-8.004h24.69c5.205,0,9.443-4.233,9.443-9.438v-27.756h9.865c8.8,0,15.954-7.155,15.954-15.951
	v-24.923C382.326,169.877,375.172,162.723,366.372,162.723L366.372,162.723z M27.569,208.184h-9.861
	c-2.532,0-4.592-2.059-4.592-4.588v-24.923c0-2.533,2.06-4.592,4.592-4.592h9.866v34.103H27.569L27.569,208.184z M38.932,245.379
	V139.36h22.771v21.781v62.457v21.776H38.932V245.379L38.932,245.379z M109.46,264.217h-36.4v-16.918v-35.063v-39.732V137.44v-16.923
	h36.4V264.217L109.46,264.217z M263.258,212.239H120.822v-39.732h142.436V212.239L263.258,212.239z M311.021,264.217h-36.4V120.521
	h36.4v16.923v109.858V264.217L311.021,264.217z M345.149,245.379h-22.771V139.36h22.771V245.379L345.149,245.379z M370.965,203.596
	c0,2.529-2.06,4.588-4.593,4.588h-9.864v-34.099h9.864c2.533,0,4.593,2.059,4.593,4.592V203.596z"/>
</svg>
