<?xml version="1.0" encoding="utf-8"?>
<!-- Generator: Adobe Illustrator 16.0.0, SVG Export Plug-In . SVG Version: 6.00 Build 0)  -->
<!DOCTYPE svg PUBLIC "-//W3C//DTD SVG 1.1//EN" "http://www.w3.org/Graphics/SVG/1.1/DTD/svg11.dtd">
<svg version="1.1" id="Layer_1" xmlns="http://www.w3.org/2000/svg" xmlns:xlink="http://www.w3.org/1999/xlink" x="0px" y="0px"
	 width="384px" height="384px" viewBox="0 0 384 384" enable-background="new 0 0 384 384" xml:space="preserve">
<g>
	<linearGradient id="SVGID_1_" gradientUnits="userSpaceOnUse" x1="107.7734" y1="66.0537" x2="220.5815" y2="349.0241">
		<stop  offset="0" style="stop-color:#3ABCA8"/>
		<stop  offset="1" style="stop-color:#009383"/>
	</linearGradient>
	<path fill-rule="evenodd" clip-rule="evenodd" fill="url(#SVGID_1_)" d="M273.37,314.458L273.37,314.458l-0.056,0.327
		l-162.98-0.327l0,0c0.008,0.107,0.038,0.216,0.056,0.327c6.854,38.742,40.84,68.313,81.46,68.313
		c40.624,0,74.607-29.57,81.464-68.313C273.334,314.674,273.363,314.565,273.37,314.458L273.37,314.458z M313.513,179.246
		c-17.052-16.977-37.038-29.963-58.811-38.472V79.498H205.62V2.297h-27.535v77.201h-49.086v61.276
		c-21.768,8.509-41.759,21.493-58.811,38.472C40.857,208.469,23.3,246.411,19.993,287.251h343.715l0,0
		C360.403,246.411,342.848,208.469,313.513,179.246z"/>
</g>
</svg>
