<?xml version="1.0" encoding="utf-8"?>
<!-- Generator: Adobe Illustrator 16.0.0, SVG Export Plug-In . SVG Version: 6.00 Build 0)  -->
<!DOCTYPE svg PUBLIC "-//W3C//DTD SVG 1.1//EN" "http://www.w3.org/Graphics/SVG/1.1/DTD/svg11.dtd">
<svg version="1.1" id="Layer_1" xmlns="http://www.w3.org/2000/svg" xmlns:xlink="http://www.w3.org/1999/xlink" x="0px" y="0px"
	 width="384px" height="384px" viewBox="0 0 384 384" enable-background="new 0 0 384 384" xml:space="preserve">
<g>
	<linearGradient id="SVGID_1_" gradientUnits="userSpaceOnUse" x1="73.5815" y1="104.812" x2="261.7298" y2="365.929">
		<stop  offset="0" style="stop-color:#4B5763"/>
		<stop  offset="1" style="stop-color:#101E29"/>
	</linearGradient>
	<path fill-rule="evenodd" clip-rule="evenodd" fill="url(#SVGID_1_)" d="M191.405,156.357c74.858,0,136.847,57.329,144.17,130.386
		H47.235C54.558,213.686,116.543,156.357,191.405,156.357L191.405,156.357z M156.084,106.849h70.642v25.589
		c-11.495-2.383-23.314-3.615-35.321-3.615c-12.006,0-23.826,1.232-35.319,3.615v-25.589H156.084L156.084,106.849z M191.405,355.38
		c-25.518,0-47.107-17.489-53.366-41.106h106.732C238.513,337.891,216.923,355.38,191.405,355.38L191.405,355.38z M363.898,314.273
		l-0.067-13.828c-0.213-45.89-18.243-88.997-50.767-121.383c-17.052-16.98-37.039-29.951-58.804-38.461V79.314h-49.086V2.113H177.64
		v77.202h-49.088v61.287c-21.767,8.509-41.753,21.481-58.805,38.461c-32.524,32.386-50.554,75.493-50.769,121.383l-0.063,13.828
		h90.974c6.726,38.906,40.781,68.641,81.517,68.641c40.736,0,74.791-29.734,81.517-68.641H363.898L363.898,314.273z"/>
</g>
</svg>
