<?xml version="1.0" encoding="utf-8"?>
<!-- Generator: Adobe Illustrator 16.0.0, SVG Export Plug-In . SVG Version: 6.00 Build 0)  -->
<!DOCTYPE svg PUBLIC "-//W3C//DTD SVG 1.1//EN" "http://www.w3.org/Graphics/SVG/1.1/DTD/svg11.dtd">
<svg version="1.1" id="Layer_1" xmlns="http://www.w3.org/2000/svg" x="0px" y="0px" width="384px"
    height="384px" viewBox="0 0 384 384" enable-background="new 0 0 384 384" xml:space="preserve">
<linearGradient id="SVGID_1_" gradientUnits="userSpaceOnUse" x1="56.7153" y1="-0.4287" x2="264.6673" y2="277.8228">
	<stop  offset="0" style="stop-color:#4B5763"/>
	<stop  offset="1" style="stop-color:#101E29"/>
</linearGradient>
<path fill-rule="evenodd" clip-rule="evenodd" fill="url(#SVGID_1_)" d="M346.584,232.608c0-23.082-10.43-44.837-28.173-59.322
	v-1.913c0-22.841-15.919-42.023-37.24-47.065v-58.63h0.643c16.596,0,31.541-9.855,38.078-25.106L336.213,2.48H46.286l16.322,38.092
	c6.535,15.251,21.479,25.106,38.072,25.106h2.871v137.676c-21.32,5.045-37.24,24.226-37.24,47.067v1.912
	c-17.74,14.484-28.171,36.242-28.171,59.321v34.135h40.787v0.857c0,19.719,16.041,35.763,35.761,35.763
	c19.718,0,35.762-16.044,35.762-35.763v-0.857h40.784v-34.135c0-23.079-10.43-44.837-28.169-59.321v-1.912
	c0-22.842-15.92-42.022-37.243-47.067V65.678h133.082v58.63c-21.321,5.042-37.242,24.224-37.242,47.065v1.918
	c-17.737,14.48-28.168,36.24-28.168,59.317v34.134h40.784v0.858c0,19.721,16.042,35.762,35.76,35.762
	c19.719,0,35.76-16.044,35.76-35.762v-0.858h40.787V232.608L346.584,232.608z M128.179,346.647c0,7.438-6.052,13.487-13.492,13.487
	c-7.44,0-13.493-6.05-13.493-13.487v-0.857h26.985V346.647L128.179,346.647z M168.962,311.655v11.862H60.413v-11.862
	c0-16.671,7.68-32.374,20.7-42.641h67.147C161.282,279.286,168.962,294.984,168.962,311.655L168.962,311.655z M140.526,246.742
	H88.847c1.793-12.658,12.696-22.424,25.84-22.424C127.831,224.318,138.735,234.084,140.526,246.742L140.526,246.742z M83.081,31.799
	l-3.019-7.05h222.375l-3.018,7.05c-3.022,7.05-9.933,11.607-17.601,11.607H100.681C93.009,43.406,86.104,38.849,83.081,31.799
	L83.081,31.799z M270.037,145.27c13.145,0,24.048,9.767,25.842,22.424h-51.681C245.99,155.037,256.894,145.27,270.037,145.27
	L270.037,145.27z M283.529,267.601c0,7.439-6.052,13.492-13.492,13.492c-7.439,0-13.491-6.053-13.491-13.492v-0.858h26.983V267.601
	L283.529,267.601z M324.312,244.473H215.764v-11.864c0-16.669,7.68-32.372,20.701-42.641h67.146
	c13.021,10.269,20.701,25.972,20.701,42.641V244.473z"/>
</svg>
