<?xml version="1.0" encoding="utf-8"?>
<!-- Generator: Adobe Illustrator 16.0.0, SVG Export Plug-In . SVG Version: 6.00 Build 0)  -->
<!DOCTYPE svg PUBLIC "-//W3C//DTD SVG 1.1//EN" "http://www.w3.org/Graphics/SVG/1.1/DTD/svg11.dtd">
<svg version="1.1" id="Layer_1" xmlns="http://www.w3.org/2000/svg" x="0px" y="0px" width="384px"
    height="384px" viewBox="0 0 384 384" enable-background="new 0 0 384 384" xml:space="preserve">
<linearGradient id="SVGID_1_" gradientUnits="userSpaceOnUse" x1="62.9907" y1="-8.7661" x2="254.3793" y2="253.5999">
	<stop  offset="0" style="stop-color:#3ABCA8"/>
	<stop  offset="1" style="stop-color:#009383"/>
</linearGradient>
<path fill-rule="evenodd" clip-rule="evenodd" fill="url(#SVGID_1_)" d="M122.887,196.967V44.752h138.63v58.128
	c3.872-0.657,7.853-1.01,11.919-1.01c3.841,0,7.607,0.323,11.277,0.906V44.752h20.384c11.441,0,21.748-6.519,26.253-16.607
	l11.258-25.198H41.797l11.255,25.195c4.505,10.092,14.813,16.611,26.254,16.611h20.382v152.215
	c3.774-0.617,7.646-0.958,11.601-0.958C115.242,196.009,119.114,196.35,122.887,196.967L122.887,196.967z M273.436,123.372
	c19.159,0,35.624,11.26,42.596,27.24h-85.188C237.811,134.628,254.276,123.372,273.436,123.372L273.436,123.372z M200.408,223.688
	c0-19.351,8.357-37.688,22.777-50.821h100.5c14.425,13.132,22.782,31.47,22.782,50.821v11.101h-146.06V223.688L200.408,223.688z
	 M239.35,257.043c0.734,17.431,15.734,31.402,34.086,31.402c18.351,0,33.356-13.972,34.086-31.402H239.35L239.35,257.043z
	 M111.289,217.512c-19.16,0-35.625,11.261-42.594,27.243h85.188C146.913,228.772,130.448,217.512,111.289,217.512L111.289,217.512z
	 M77.201,351.185c0.732,17.433,15.736,31.401,34.087,31.401s33.354-13.969,34.083-31.401H77.201L77.201,351.185z M38.258,317.828
	v11.101h146.06v-11.101c0-19.351-8.357-37.687-22.782-50.823H61.04C46.615,280.142,38.258,298.473,38.258,317.828z"/>
</svg>
