<?xml version="1.0" encoding="utf-8"?>
<!-- Generator: Adobe Illustrator 16.0.0, SVG Export Plug-In . SVG Version: 6.00 Build 0)  -->
<!DOCTYPE svg PUBLIC "-//W3C//DTD SVG 1.1//EN" "http://www.w3.org/Graphics/SVG/1.1/DTD/svg11.dtd">
<svg version="1.1" id="Layer_1" xmlns="http://www.w3.org/2000/svg" xmlns:xlink="http://www.w3.org/1999/xlink" x="0px" y="0px"
	 width="384px" height="384px" viewBox="0 0 384 384" enable-background="new 0 0 384 384" xml:space="preserve">
<linearGradient id="SVGID_1_" gradientUnits="userSpaceOnUse" x1="78.9995" y1="44.8179" x2="248.3836" y2="192.693">
	<stop  offset="0" style="stop-color:#4B5763"/>
	<stop  offset="1" style="stop-color:#101E29"/>
</linearGradient>
<path fill-rule="evenodd" clip-rule="evenodd" fill="url(#SVGID_1_)" d="M331.106,190.725L192.001,337.438L52.885,190.725
	c-31.626-34.12-31.626-86.844,0-120.964c28.721-31.128,77.237-33.081,108.366-4.358c1.511,1.394,2.966,2.848,4.36,4.358l16.54,17.45
	c5.451,5.416,14.25,5.416,19.702,0l16.54-17.437c28.721-31.128,77.237-33.081,108.365-4.36c1.512,1.396,2.967,2.85,4.36,4.36l0,0
	c31.9,34.174,32.136,86.993,0,120.95H331.106L331.106,190.725z M274.77,17.944L274.77,17.944
	c-28.854,0.033-56.397,12.037-76.063,33.148l-6.705,7.082l-6.701-7.082C146.274,9.09,80.589,6.676,38.586,45.704
	c-1.861,1.729-3.66,3.527-5.389,5.389c-41.399,44.653-41.399,113.662,0,158.315L182.15,366.488
	c5.155,5.443,13.743,5.672,19.184,0.519c0.178-0.169,0.35-0.341,0.519-0.519l148.898-157.081
	c41.396-44.648,41.396-113.653,0-158.303C331.115,29.999,303.599,17.989,274.77,17.944z"/>
</svg>
