<?xml version="1.0" encoding="utf-8"?>
<!-- Generator: Adobe Illustrator 16.0.0, SVG Export Plug-In . SVG Version: 6.00 Build 0)  -->
<!DOCTYPE svg PUBLIC "-//W3C//DTD SVG 1.1//EN" "http://www.w3.org/Graphics/SVG/1.1/DTD/svg11.dtd">
<svg version="1.1" id="Layer_1" xmlns="http://www.w3.org/2000/svg" xmlns:xlink="http://www.w3.org/1999/xlink" x="0px" y="0px"
	 width="384px" height="384px" viewBox="0 0 384 384" enable-background="new 0 0 384 384" xml:space="preserve">
<linearGradient id="SVGID_1_" gradientUnits="userSpaceOnUse" x1="74.7871" y1="97.6045" x2="273.6077" y2="365.8795">
	<stop  offset="0" style="stop-color:#4B5763"/>
	<stop  offset="0.2008" style="stop-color:#434F5A"/>
	<stop  offset="0.5729" style="stop-color:#2E3A45"/>
	<stop  offset="1" style="stop-color:#101E29"/>
</linearGradient>
<path fill-rule="evenodd" clip-rule="evenodd" fill="url(#SVGID_1_)" d="M326.22,58.002C290.368,22.152,242.701,2.407,192,2.407
	c-50.703,0-98.369,19.745-134.222,55.595C21.927,93.854,2.184,141.521,2.184,192.223c0,33.444,8.774,66.163,25.421,94.939
	L2.184,382.039l94.877-25.422c28.776,16.646,61.494,25.422,94.939,25.422c50.701,0,98.368-19.744,134.22-55.595
	c35.852-35.853,55.597-83.52,55.597-134.222C381.816,141.521,362.071,93.854,326.22,58.002L326.22,58.002z M192,97.685
	c30.663,0,55.61,24.948,55.61,55.61c0,13.699-5.032,26.864-14.169,37.074l-30.319,33.906v17.996h-22.245v-26.49l35.985-40.245
	c5.485-6.127,8.504-14.024,8.504-22.241c0-18.397-14.969-33.366-33.366-33.366c-18.4,0-33.367,14.969-33.367,33.366h-22.244
	C136.389,122.633,161.335,97.685,192,97.685L192,97.685z M192.027,264.517c6.127,0,11.093,4.967,11.093,11.093
	c0,6.127-4.966,11.093-11.093,11.093s-11.093-4.966-11.093-11.093C180.934,269.483,185.9,264.517,192.027,264.517L192.027,264.517z
	 M192.371,353.492c-34.143,0.073-58.547-10.275-92.101-26.93l-62.367,20.684l19.757-61.07
	C-13.478,180.371,56.35,27.246,191.629,30.582c93.512,2.966,159.416,69.983,161.271,161.641
	C349.887,285.053,282.714,350.097,192.371,353.492z"/>
</svg>
