<?xml version="1.0" encoding="utf-8"?>
<!-- Generator: Adobe Illustrator 16.0.0, SVG Export Plug-In . SVG Version: 6.00 Build 0)  -->
<!DOCTYPE svg PUBLIC "-//W3C//DTD SVG 1.1//EN" "http://www.w3.org/Graphics/SVG/1.1/DTD/svg11.dtd">
<svg version="1.1" id="Layer_1" xmlns="http://www.w3.org/2000/svg" xmlns:xlink="http://www.w3.org/1999/xlink" x="0px" y="0px"
	 width="384px" height="384px" viewBox="0 0 384 384" enable-background="new 0 0 384 384" xml:space="preserve">
<linearGradient id="SVGID_1_" gradientUnits="userSpaceOnUse" x1="73.1885" y1="18.5967" x2="298.0479" y2="293.4925">
	<stop  offset="0" style="stop-color:#4B5763"/>
	<stop  offset="1" style="stop-color:#101E29"/>
</linearGradient>
<path fill-rule="evenodd" clip-rule="evenodd" fill="url(#SVGID_1_)" d="M120.342,146.574H99.871c-5.299,0-9.599,4.294-9.599,9.593
	c0,5.305,4.3,9.597,9.599,9.597h20.471c5.3,0,9.6-4.292,9.6-9.597C129.942,150.868,125.643,146.574,120.342,146.574L120.342,146.574
	L120.342,146.574z M223.651,313.299l-22.832-17.125v-34.879c0-3.519-2.835-6.352-6.346-6.352c-3.501,0-6.339,2.833-6.339,6.352
	v38.057c0,1.998,0.935,3.878,2.535,5.068l25.371,19.028c1.144,0.858,2.474,1.271,3.801,1.271c1.939,0,3.84-0.867,5.081-2.541
	C227.031,319.38,226.458,315.396,223.651,313.299L223.651,313.299z M194.474,216.946c-63.361,0-79.608,61.602-79.608,61.551H57.006
	c-5.292,0-6.387-2.925-6.387-8.217V118.486h281.153l0.312,151.682c0,5.288-0.288,5.321-3.718,6.271l-54.275,1.606
	C274.09,278.194,257.26,216.946,194.474,216.946L194.474,216.946z M112.586,298.838h-55.58c-15.875,0-28.789-12.911-28.789-28.789
	V57.645c0-15.876,12.914-28.793,28.789-28.793h23.028V12.859c0-5.3,4.298-9.597,9.603-9.597c5.298,0,9.593,4.297,9.593,9.597v15.079
	h83.174V12.859c0-5.3,4.294-9.597,9.591-9.597c5.307,0,9.604,4.297,9.604,9.597l-0.256,15.03h83.177l0.244-15.03
	c0-5.3,4.3-9.597,9.603-9.597c5.295,0,9.598,4.297,9.598,9.597v15.992h23.027l0,0c15.875,0,28.792,12.917,28.792,28.793
	c0,5.388,0,206.207,0,212.404c0,15.878-12.917,28.789-28.792,28.789h-50.622c0-3.275,0-1.622,0,0
	c0,45.162-36.732,81.899-81.895,81.899C149.324,380.737,112.586,344,112.586,298.838L112.586,298.838z M193.756,364.438
	c-38.151,0-61.583-29.063-65.717-65.384c4.359-38.386,29.412-65.506,67.563-65.506c38.166,0,62.346,28.741,64.636,65.749
	C260.238,337.452,231.912,360.311,193.756,364.438L193.756,364.438z M49.262,57.252v37.751l286.062,0.144l-0.57-37.967
	c0-5.29-2.471-9.129-7.763-9.129h-23.027v15.987c0,5.299-4.303,9.6-9.598,9.6c-5.303,0-9.603-4.301-9.603-9.6V48.052h-83.165v15.987
	c0,5.299-4.297,9.6-9.604,9.6c-5.297,0-9.591-4.301-9.591-9.6V48.052H99.229v15.987c0,5.299-4.295,9.6-9.593,9.6
	c-5.305,0-9.603-4.301-9.603-9.6V48.052H57.007C51.714,48.052,49.262,51.961,49.262,57.252L49.262,57.252z M284.13,228.462h-20.474
	c-5.304,0-9.601,4.294-9.601,9.598c0,5.3,4.297,9.603,9.601,9.603h20.474c5.295,0,9.591-4.303,9.591-9.603
	C293.721,232.756,289.425,228.462,284.13,228.462L284.13,228.462L284.13,228.462z M284.13,187.52h-20.474
	c-5.304,0-9.601,4.298-9.601,9.593c0,5.298,4.297,9.598,9.601,9.598h20.474c5.295,0,9.591-4.3,9.591-9.598
	C293.721,191.818,289.425,187.52,284.13,187.52L284.13,187.52L284.13,187.52z M284.13,146.574h-20.474
	c-5.304,0-9.601,4.294-9.601,9.593c0,5.305,4.297,9.597,9.601,9.597h20.474c5.295,0,9.591-4.292,9.591-9.597
	C293.721,150.868,289.425,146.574,284.13,146.574L284.13,146.574L284.13,146.574z M202.236,187.52h-20.475
	c-5.3,0-9.6,4.298-9.6,9.593c0,5.298,4.3,9.598,9.6,9.598h20.475c5.297,0,9.597-4.3,9.597-9.598
	C211.833,191.818,207.533,187.52,202.236,187.52L202.236,187.52L202.236,187.52z M202.236,146.574h-20.475
	c-5.3,0-9.6,4.294-9.6,9.593c0,5.305,4.3,9.597,9.6,9.597h20.475c5.297,0,9.597-4.292,9.597-9.597
	C211.833,150.868,207.533,146.574,202.236,146.574L202.236,146.574L202.236,146.574z M120.342,228.462H99.871
	c-5.299,0-9.599,4.294-9.599,9.598c0,5.3,4.3,9.603,9.599,9.603h20.471c5.3,0,9.6-4.303,9.6-9.603
	C129.942,232.756,125.643,228.462,120.342,228.462L120.342,228.462L120.342,228.462z M120.342,187.52H99.871
	c-5.299,0-9.599,4.298-9.599,9.593c0,5.298,4.3,9.598,9.599,9.598h20.471c5.3,0,9.6-4.3,9.6-9.598
	C129.942,191.818,125.643,187.52,120.342,187.52L120.342,187.52z"/>
</svg>
