<?xml version="1.0" encoding="utf-8"?>
<!-- Generator: Adobe Illustrator 16.0.0, SVG Export Plug-In . SVG Version: 6.00 Build 0)  -->
<!DOCTYPE svg PUBLIC "-//W3C//DTD SVG 1.1//EN" "http://www.w3.org/Graphics/SVG/1.1/DTD/svg11.dtd">
<svg version="1.1" id="Layer_1" xmlns="http://www.w3.org/2000/svg" xmlns:xlink="http://www.w3.org/1999/xlink" x="0px" y="0px"
	 width="384px" height="384px" viewBox="0 0 384 384" enable-background="new 0 0 384 384" xml:space="preserve">
<linearGradient id="SVGID_1_" gradientUnits="userSpaceOnUse" x1="64.7837" y1="14.9063" x2="275.5267" y2="280.6613">
	<stop  offset="0" style="stop-color:#3ABCA8"/>
	<stop  offset="1" style="stop-color:#009383"/>
</linearGradient>
<path fill-rule="evenodd" clip-rule="evenodd" fill="url(#SVGID_1_)" d="M262.549,305.078c0-42.851-34.732-77.58-77.572-77.58
	c-42.843,0-77.579,34.729-77.579,77.58c0,42.845,34.736,77.574,77.579,77.574C227.816,382.652,262.549,347.923,262.549,305.078
	L262.549,305.078z M353.152,96.183c0-21.949,0-37.31,0-38.764c0-16.3-13.262-29.557-29.564-29.557h-3.938v36.13
	c0,5.446-4.414,9.852-9.856,9.852c-5.441,0-9.856-4.406-9.856-9.852c0-11.068,0-41.548,0-52.558c0-5.439-4.41-9.856-9.85-9.856
	c-5.445,0-9.854,4.417-9.854,9.856v16.428h-65.696v36.13c0,5.446-4.413,9.852-9.853,9.852c-5.444,0-9.856-4.406-9.856-9.852
	c0-11.068,0-41.548,0-52.558c0-5.439-4.411-9.856-9.852-9.856c-5.445,0-9.856,4.417-9.856,9.856v16.428h-65.695v36.13
	c0,5.446-4.409,9.852-9.854,9.852c-5.441,0-9.855-4.406-9.855-9.852c0-11.068,0-41.548,0-52.558c0-5.439-4.409-9.856-9.852-9.856
	c-5.442,0-9.854,4.417-9.854,9.856v16.428H46.361c-16.299,0-29.561,13.257-29.561,29.557v38.764H353.152L353.152,96.183z
	 M16.8,115.887c3.392,0,330.217,0,336.352,0c0,63.194,0,155.417,0,159.639c0,16.3-13.262,29.563-29.564,29.563h-54.526v-0.01
	c0-46.363-37.722-84.091-84.085-84.091c-46.361,0-84.09,37.728-84.09,84.091v0.01H46.361c-16.299,0-29.561-13.263-29.561-29.563
	V115.887L16.8,115.887z M111.401,252.528H90.377c-5.441,0-9.855-4.409-9.855-9.851c0-5.439,4.409-9.857,9.855-9.857h21.023
	c5.44,0,9.847,4.418,9.847,9.857C121.248,248.119,116.841,252.528,111.401,252.528L111.401,252.528L111.401,252.528z
	 M111.401,210.491L111.401,210.491c5.44,0,9.847-4.415,9.847-9.861c0-5.44-4.407-9.846-9.847-9.846H90.377
	c-5.446,0-9.855,4.406-9.855,9.846c0,5.446,4.414,9.861,9.855,9.861H111.401L111.401,210.491z M111.401,168.445L111.401,168.445
	c5.44,0,9.847-4.413,9.847-9.856c0-5.446-4.407-9.852-9.847-9.852H90.377c-5.446,0-9.855,4.406-9.855,9.852
	c0,5.444,4.414,9.856,9.855,9.856H111.401L111.401,168.445z M195.485,210.491L195.485,210.491c5.443,0,9.853-4.415,9.853-9.861
	c0-5.44-4.409-9.846-9.853-9.846h-21.019c-5.444,0-9.856,4.406-9.856,9.846c0,5.446,4.412,9.861,9.856,9.861H195.485
	L195.485,210.491z M195.485,168.445L195.485,168.445c5.443,0,9.853-4.413,9.853-9.856c0-5.446-4.409-9.852-9.853-9.852h-21.019
	c-5.444,0-9.856,4.406-9.856,9.852c0,5.444,4.412,9.856,9.856,9.856H195.485L195.485,168.445z M279.576,252.528h-21.021
	c-5.446,0-9.854-4.409-9.854-9.851c0-5.439,4.408-9.857,9.854-9.857h21.021c5.44,0,9.853,4.418,9.853,9.857
	C289.429,248.119,285.017,252.528,279.576,252.528L279.576,252.528L279.576,252.528z M279.576,210.491L279.576,210.491
	c5.44,0,9.853-4.415,9.853-9.861c0-5.44-4.412-9.846-9.853-9.846h-21.021c-5.446,0-9.854,4.406-9.854,9.846
	c0,5.446,4.408,9.861,9.854,9.861H279.576L279.576,210.491z M279.576,168.445L279.576,168.445c5.44,0,9.853-4.413,9.853-9.856
	c0-5.446-4.412-9.852-9.853-9.852h-21.021c-5.446,0-9.854,4.406-9.854,9.852c0,5.444,4.408,9.856,9.854,9.856H279.576
	L279.576,168.445z M211.02,331.655c-1.357,0-2.724-0.425-3.9-1.309l-26.051-19.541c-1.641-1.222-2.604-3.157-2.604-5.206v-39.083
	c0-3.594,2.917-6.515,6.513-6.515s6.515,2.921,6.515,6.515v35.822l23.448,17.588c2.876,2.157,3.466,6.239,1.303,9.112
	C214.965,330.758,213.011,331.655,211.02,331.655z"/>
</svg>
