<?xml version="1.0" encoding="utf-8"?>
<!-- Generator: Adobe Illustrator 16.0.0, SVG Export Plug-In . SVG Version: 6.00 Build 0)  -->
<!DOCTYPE svg PUBLIC "-//W3C//DTD SVG 1.1//EN" "http://www.w3.org/Graphics/SVG/1.1/DTD/svg11.dtd">
<svg version="1.1" id="Layer_1" xmlns="http://www.w3.org/2000/svg" xmlns:xlink="http://www.w3.org/1999/xlink" x="0px" y="0px"
	 width="384px" height="384px" viewBox="0 0 384 384" enable-background="new 0 0 384 384" xml:space="preserve">
<linearGradient id="SVGID_1_" gradientUnits="userSpaceOnUse" x1="151.2363" y1="55.0254" x2="278.7343" y2="305.5686">
	<stop  offset="0" style="stop-color:#4B5763"/>
	<stop  offset="1" style="stop-color:#101E29"/>
</linearGradient>
<path fill-rule="evenodd" clip-rule="evenodd" fill="url(#SVGID_1_)" d="M192.013,75.725c-34.83,0-62.945,28.116-62.945,62.945
	c0,34.829,28.115,62.945,62.945,62.945s62.945-28.116,62.945-62.945C254.958,103.841,226.843,75.725,192.013,75.725L192.013,75.725z
	 M192.013,184.83c-25.597,0-46.159-20.562-46.159-46.159c0-25.598,20.563-46.16,46.159-46.16c25.598,0,46.16,20.562,46.16,46.16
	C238.173,164.268,217.611,184.83,192.013,184.83L192.013,184.83z M305.314,71.948c22.66,41.544,21.821,90.641-2.517,130.926
	L199.146,377.861c-1.259,2.518-4.195,4.196-7.133,4.196c-2.938,0-5.455-1.679-7.133-4.196L81.23,202.874
	c-23.92-40.705-24.758-89.382-2.517-130.926c21.82-40.285,61.685-65.463,107.006-67.561c4.196,0,8.812,0,13.008,0
	C243.629,6.485,283.494,31.664,305.314,71.948L305.314,71.948z M287.736,193.269l-95.459,162.444L96.556,193.269
	c-18.692-34.104-19.354-74.967-1.569-112.025C138.13,4.979,246.665,3.347,289.041,80.715
	C307.034,116.976,305.47,157.556,287.736,193.269z"/>
</svg>
