<?xml version="1.0" encoding="utf-8"?>
<!-- Generator: Adobe Illustrator 16.0.0, SVG Export Plug-In . SVG Version: 6.00 Build 0)  -->
<!DOCTYPE svg PUBLIC "-//W3C//DTD SVG 1.1//EN" "http://www.w3.org/Graphics/SVG/1.1/DTD/svg11.dtd">
<svg version="1.1" id="Layer_1" xmlns="http://www.w3.org/2000/svg" xmlns:xlink="http://www.w3.org/1999/xlink" x="0px" y="0px"
	 width="384px" height="384px" viewBox="0 0 384 384" enable-background="new 0 0 384 384" xml:space="preserve">
<linearGradient id="SVGID_1_" gradientUnits="userSpaceOnUse" x1="86.1133" y1="80.4893" x2="297.2742" y2="372.5669">
	<stop  offset="0" style="stop-color:#4B5763"/>
	<stop  offset="1" style="stop-color:#101E29"/>
</linearGradient>
<path fill-rule="evenodd" clip-rule="evenodd" fill="url(#SVGID_1_)" d="M227.286,267.919
	c-3.542-12.499-14.914-21.048-27.897-21.048c-16.048,0-29.111,12.988-29.111,29.112c0,12.978,8.547,24.352,21.047,27.897v22.575
	c0,4.439,3.629,8.069,8.064,8.069c4.435,0,8.06-3.63,8.06-8.069v-22.575C222.854,299.448,231.804,283.314,227.286,267.919
	L227.286,267.919z M300.183,163.577c20.967,2.5,36.284,20.155,36.366,41.361v135.311c0,22.98-18.388,41.924-41.367,41.924
	l-191.51,0.009c-22.981,0-41.367-18.952-41.367-41.933V204.938c0-21.288,15.324-38.86,36.287-41.361v-60.238
	c0-55.962,45.155-101.437,100.714-101.519c0.402,0,0.886,0,1.285,0c26.053,0,50.647,10.241,69.432,28.945
	c19.435,19.116,28.93,44.625,28.765,71.881L300.183,163.577L300.183,163.577z M116.81,103.809l-1.127,59.848h16.698v-60.392
	c0-37.424,29.993-67.898,67.088-67.898h0.484c17.337,0,34.181,6,46.436,18.264c13.495,10.843,20.167,30.769,19.844,49.708v60.318
	l16.693-0.118l-1.271-60.201c0.162-22.976-6.634-45.073-22.998-61.279c-15.854-15.771-36.706-22.034-59.038-22.034
	C152.93,20.026,116.81,56.713,116.81,103.809L116.81,103.809z M248.796,103.338c0.158-13.947-4.008-27.416-13.853-37.253
	c-9.503-9.508-22.216-11.495-35.623-11.495c-28.225,0-48.41,20.206-48.41,48.748l-1.28,60.201l100.561,0.118L248.796,103.338
	L248.796,103.338z M315.578,340.487c0,14.88-9.653,19.147-22.636,19.147H101.355c-14.114,0-17.348-5.502-17.348-19.61V204.881
	c0-14.113,5.65-18.598,19.753-18.598h191.594c14.114,0,20.224,4.951,20.224,19.063V340.487L315.578,340.487z M199.389,288.886
	c-7.178,0-12.984-5.81-12.984-12.983c0-7.183,5.806-12.983,12.984-12.983c7.176,0,12.983,5.801,12.983,12.983
	C212.372,283.076,206.564,288.886,199.389,288.886z"/>
</svg>
