<?xml version="1.0" encoding="utf-8"?>
<!-- Generator: Adobe Illustrator 16.0.0, SVG Export Plug-In . SVG Version: 6.00 Build 0)  -->
<!DOCTYPE svg PUBLIC "-//W3C//DTD SVG 1.1//EN" "http://www.w3.org/Graphics/SVG/1.1/DTD/svg11.dtd">
<svg version="1.1" id="Layer_1" xmlns="http://www.w3.org/2000/svg" xmlns:xlink="http://www.w3.org/1999/xlink" x="0px" y="0px"
	 width="384px" height="384px" viewBox="0 0 384 384" enable-background="new 0 0 384 384" xml:space="preserve">
<linearGradient id="SVGID_1_" gradientUnits="userSpaceOnUse" x1="80.8047" y1="72.7183" x2="281.1801" y2="385.8921">
	<stop  offset="0" style="stop-color:#3ABCA8"/>
	<stop  offset="1" style="stop-color:#009383"/>
</linearGradient>
<path fill-rule="evenodd" clip-rule="evenodd" fill="url(#SVGID_1_)" d="M256.13,28.777C239.001,11.736,215.806,2.16,191.65,2.25
	h-0.092c-50.862,0-92.236,41.987-92.236,93.297h-0.089v65.706h19.327V95.456c0-40.757,32.682-73.971,73.09-73.971h0.525
	c18.885,0,36.984,7.558,50.336,20.91c14.143,14.052,22.053,33.209,21.873,53.152v65.706h19.324V95.547
	C283.891,70.506,273.961,46.436,256.13,28.777L256.13,28.777z M191.559,269.386c-7.816,0-14.145,6.331-14.145,14.146
	c0,7.825,6.328,14.147,14.145,14.147c7.817,0,14.146-6.322,14.146-14.147C205.704,275.717,199.376,269.386,191.559,269.386
	L191.559,269.386z M296.365,178.827c15.369,0,27.845,12.471,27.845,27.838v147.231c0,15.374-12.476,27.854-27.845,27.854H87.64
	c-15.376,0-27.85-12.48-27.85-27.854V206.665c0-15.368,12.474-27.838,27.85-27.838H296.365L296.365,178.827z M200.346,314.109V338.7
	c0,4.836-3.955,8.791-8.787,8.791c-4.832,0-8.783-3.955-8.783-8.791v-24.591c-13.616-3.875-22.925-16.255-22.925-30.4
	c0-17.563,14.229-31.71,31.708-31.71c14.146,0,26.532,9.305,30.395,22.928C226.876,291.614,217.122,309.188,200.346,314.109z"/>
</svg>
