<?xml version="1.0" encoding="utf-8"?>
<!-- Generator: Adobe Illustrator 16.0.0, SVG Export Plug-In . SVG Version: 6.00 Build 0)  -->
<!DOCTYPE svg PUBLIC "-//W3C//DTD SVG 1.1//EN" "http://www.w3.org/Graphics/SVG/1.1/DTD/svg11.dtd">
<svg version="1.1" id="Layer_1" xmlns="http://www.w3.org/2000/svg" xmlns:xlink="http://www.w3.org/1999/xlink" x="0px" y="0px"
	 width="384px" height="384px" viewBox="0 0 384 384" enable-background="new 0 0 384 384" xml:space="preserve">
<linearGradient id="SVGID_1_" gradientUnits="userSpaceOnUse" x1="74.124" y1="47.2983" x2="326.3824" y2="355.0748">
	<stop  offset="0" style="stop-color:#4B5763"/>
	<stop  offset="1" style="stop-color:#101E29"/>
</linearGradient>
<path fill-rule="evenodd" clip-rule="evenodd" fill="url(#SVGID_1_)" d="M58.328,45.362c0-6.74,5.459-12.202,12.198-12.202h32.41
	c5.324-17.528,21.622-30.501,40.797-30.501c19.178,0,35.474,12.974,40.8,30.501h130.018c6.739,0,12.204,5.462,12.204,12.202
	c0,6.739-5.465,12.201-12.204,12.201H184.534c-5.327,17.528-21.622,30.501-40.8,30.501c-19.175,0-35.474-12.974-40.797-30.501
	h-32.41C63.787,57.563,58.328,52.102,58.328,45.362L58.328,45.362z M58.328,191.777c0-6.739,5.459-12.201,12.198-12.201h130.021
	c5.323-17.528,21.619-30.502,40.797-30.502c19.179,0,35.477,12.974,40.798,30.502h32.41c6.739,0,12.204,5.462,12.204,12.201
	s-5.465,12.201-12.204,12.201h-32.41c-5.321,17.528-21.619,30.502-40.798,30.502c-19.178,0-35.474-12.974-40.797-30.502H70.526
	C63.787,203.979,58.328,198.517,58.328,191.777L58.328,191.777z M58.328,338.192c0-6.739,5.459-12.201,12.198-12.201h62.915
	c5.321-17.527,21.619-30.502,40.797-30.502s35.473,12.975,40.797,30.502h99.516c6.739,0,12.204,5.462,12.204,12.201
	s-5.465,12.201-12.204,12.201h-99.516c-5.324,17.528-21.619,30.502-40.797,30.502s-35.477-12.974-40.797-30.502H70.526
	C63.787,350.394,58.328,344.932,58.328,338.192L58.328,338.192z M155.935,338.192c0,10.251,8.05,18.301,18.304,18.301
	c10.25,0,18.3-8.05,18.3-18.301c0-10.253-8.05-18.3-18.3-18.3C163.985,319.893,155.935,327.939,155.935,338.192L155.935,338.192z
	 M125.434,45.362c0,10.256,8.05,18.3,18.3,18.3c10.253,0,18.303-8.044,18.303-18.3c0-10.253-8.05-18.301-18.303-18.301
	C133.483,27.062,125.434,35.112,125.434,45.362L125.434,45.362z M223.044,191.777c0,10.25,8.05,18.301,18.3,18.301
	c10.254,0,18.304-8.051,18.304-18.301c0-10.25-8.05-18.3-18.304-18.3C231.094,173.477,223.044,181.527,223.044,191.777z"/>
</svg>
