<?xml version="1.0" encoding="utf-8"?>
<!-- Generator: Adobe Illustrator 16.0.0, SVG Export Plug-In . SVG Version: 6.00 Build 0)  -->
<!DOCTYPE svg PUBLIC "-//W3C//DTD SVG 1.1//EN" "http://www.w3.org/Graphics/SVG/1.1/DTD/svg11.dtd">
<svg version="1.1" id="Layer_1" xmlns="http://www.w3.org/2000/svg" xmlns:xlink="http://www.w3.org/1999/xlink" x="0px" y="0px"
	 width="384px" height="384px" viewBox="0 0 384 384" enable-background="new 0 0 384 384" xml:space="preserve">
<g>
	<linearGradient id="SVGID_1_" gradientUnits="userSpaceOnUse" x1="111.1367" y1="87.4395" x2="278.0582" y2="304.3026">
		<stop  offset="0" style="stop-color:#3ABCA8"/>
		<stop  offset="1" style="stop-color:#009383"/>
	</linearGradient>
	<path fill-rule="evenodd" clip-rule="evenodd" fill="url(#SVGID_1_)" d="M356.347,97.921c-1.915-3.294-6.138-4.412-9.433-2.496
		L313.223,114.9c-3.294,1.915-4.411,6.139-2.496,9.433c1.915,3.293,6.139,4.411,9.432,2.497l33.692-19.475
		C357.145,105.438,358.262,101.215,356.347,97.921L356.347,97.921z M73.628,261.118c-1.915-3.293-6.139-4.411-9.434-2.495
		l-33.691,19.476c-3.293,1.916-4.412,6.139-2.497,9.433s6.139,4.411,9.433,2.496l33.691-19.476
		C74.425,268.635,75.543,264.412,73.628,261.118L73.628,261.118z M123.784,311.275c-3.294-1.915-7.518-0.797-9.433,2.496
		l-19.476,33.692c-1.916,3.294-0.798,7.518,2.496,9.432c3.294,1.916,7.518,0.799,9.434-2.496l19.475-33.691
		C128.195,317.413,127.079,313.19,123.784,311.275L123.784,311.275z M287.21,28.556c-3.293-1.915-7.517-0.797-9.433,2.497
		l-19.475,33.692c-1.929,3.286-0.827,7.512,2.459,9.44c0.006,0.004,0.011,0.007,0.018,0.012l0,0
		c3.292,1.919,7.516,0.807,9.435-2.485c0.005-0.011,0.012-0.021,0.018-0.031l19.477-33.69
		C291.622,34.694,290.505,30.472,287.21,28.556L287.21,28.556z M289.496,347.493c-0.007-0.01-0.012-0.021-0.019-0.029
		l-19.476-33.692c-1.916-3.293-6.139-4.411-9.433-2.496c-3.293,1.915-4.411,6.14-2.496,9.433l19.475,33.692
		c1.907,3.29,6.119,4.414,9.414,2.515C290.264,355.013,291.399,350.794,289.496,347.493L289.496,347.493z M192.205,90.928
		C135.983,90.92,90.401,136.49,90.392,192.712c-0.004,27.011,10.727,52.915,29.829,72.009
		c19.064,19.113,44.961,29.838,71.956,29.805c56.221,0.007,101.805-45.563,101.813-101.785
		C293.998,136.519,248.426,90.935,192.205,90.928L192.205,90.928z M254.376,255.041c-34.352,34.352-90.048,34.352-124.399,0
		c-16.524-16.524-25.794-38.946-25.764-62.314c-0.033-23.336,9.24-45.723,25.764-62.2v0.114c34.352-34.352,90.048-34.352,124.399,0
		C288.729,164.993,288.729,220.688,254.376,255.041L254.376,255.041z M49.444,185.828c-0.343-0.026-0.685-0.026-1.027,0H9.503
		c-3.821,0.284-6.688,3.611-6.404,7.431c0.255,3.425,2.978,6.15,6.404,6.403h38.913c3.821,0.285,7.147-2.582,7.431-6.403
		C56.132,189.438,53.265,186.111,49.444,185.828L49.444,185.828z M381.253,192.192c-0.253-3.425-2.977-6.149-6.402-6.404h-38.913
		c-3.821-0.284-7.148,2.583-7.433,6.404c-0.283,3.821,2.584,7.147,6.405,7.433c0.342,0.023,0.686,0.023,1.027,0h38.914
		C378.671,199.341,381.538,196.014,381.253,192.192L381.253,192.192z M193.204,131.175c3.82,0.283,6.688,3.61,6.403,7.43
		c-0.283,3.821-3.609,6.688-7.43,6.404c-0.026,0-0.05,0-0.077,0c-26.332,0.021-47.661,21.385-47.641,47.717
		c0,3.815-3.083,6.915-6.898,6.936c-3.832,0-6.937-3.104-6.937-6.936c0-33.995,27.557-61.552,61.552-61.552
		C192.52,131.149,192.862,131.149,193.204,131.175L193.204,131.175z M126.242,64.745l-19.437-33.692
		c-1.916-3.293-6.139-4.412-9.434-2.497c-3.294,1.916-4.412,6.139-2.496,9.434l19.437,33.69c1.916,3.294,6.14,4.412,9.433,2.497
		C127.04,72.261,128.158,68.038,126.242,64.745L126.242,64.745z M192.71,2.621c-3.821-0.284-7.148,2.583-7.432,6.404
		c-0.026,0.342-0.026,0.685,0,1.027v38.913c0.021,3.801,3.098,6.877,6.898,6.898c3.832,0,6.936-3.105,6.936-6.936V10.053
		C199.396,6.232,196.53,2.905,192.71,2.621L192.71,2.621z M71.131,114.9L37.44,95.425c-3.294-1.916-7.518-0.798-9.433,2.496
		s-0.797,7.517,2.497,9.434l33.691,19.475c3.294,1.915,7.519,0.797,9.434-2.497C75.543,121.038,74.425,116.815,71.131,114.9
		L71.131,114.9z M192.71,329.055c-3.821-0.284-7.148,2.583-7.432,6.404c-0.026,0.342-0.026,0.685,0,1.027v38.913
		c-0.284,3.82,2.583,7.147,6.404,7.431c3.821,0.285,7.146-2.583,7.431-6.403c0.026-0.343,0.026-0.687,0-1.027v-38.913
		C199.396,332.666,196.53,329.339,192.71,329.055L192.71,329.055z M353.851,278.137l-33.692-19.476
		c-3.293-1.916-7.517-0.798-9.432,2.497c-1.915,3.293-0.798,7.517,2.496,9.434l33.691,19.474c3.295,1.915,7.518,0.797,9.433-2.496
		C358.262,284.274,357.145,280.052,353.851,278.137z"/>
</g>
</svg>
