<?xml version="1.0" encoding="utf-8"?>
<!-- Generator: Adobe Illustrator 16.0.0, SVG Export Plug-In . SVG Version: 6.00 Build 0)  -->
<!DOCTYPE svg PUBLIC "-//W3C//DTD SVG 1.1//EN" "http://www.w3.org/Graphics/SVG/1.1/DTD/svg11.dtd">
<svg version="1.1" id="Layer_1" xmlns="http://www.w3.org/2000/svg" xmlns:xlink="http://www.w3.org/1999/xlink" x="0px" y="0px"
	 width="384px" height="384px" viewBox="0 0 384 384" enable-background="new 0 0 384 384" xml:space="preserve">
<g>
	<g>
		<linearGradient id="SVGID_1_" gradientUnits="userSpaceOnUse" x1="36.8281" y1="75.6411" x2="265.0675" y2="310.2997">
			<stop  offset="0" style="stop-color:#3ABCA8"/>
			<stop  offset="1" style="stop-color:#009383"/>
		</linearGradient>
		<path fill-rule="evenodd" clip-rule="evenodd" fill="url(#SVGID_1_)" d="M259.806,307.021h-51.623v27.05l-14.796,0.006
			l-0.001-27.056h-69.37l-0.001,27.056h-14.892l0.003-27.056H70.42H43.364c-22.41,0-40.583-18.177-40.583-40.584L2.78,104.105
			c0.002-22.41,18.174-40.583,40.584-40.583H70.42h162.333h27.053c37.351,0,67.64,30.289,67.64,67.638v40.583h40.583
			c7.47,0,13.526,6.058,13.526,13.528s-6.057,13.528-13.526,13.528h-40.583v40.581C327.445,276.73,297.153,307.021,259.806,307.021z
			 M259.806,307.021L259.806,307.021L259.806,307.021z M246.281,361.132 M246.281,361.132l-137.048-27.056v3.035v-3.035H56.892
			c-7.47,0-13.528,6.057-13.528,13.528c0,7.469,6.058,13.527,13.528,13.527H246.281L246.281,361.132z M109.233,334.076
			l137.048,27.056c7.468,0,13.524-6.059,13.524-13.527c0-7.472-6.057-13.528-13.524-13.528H109.312H109.233L109.233,334.076z
			 M192.169,49.995h-81.166c-7.471,0-13.528-6.058-13.528-13.528c0-7.47,6.057-13.528,13.528-13.528h81.166
			c7.471,0,13.527,6.058,13.527,13.528C205.696,43.937,199.64,49.995,192.169,49.995L192.169,49.995z M219.226,252.909H83.948
			v27.056h135.278V252.909L219.226,252.909z M83.948,225.855h135.278V198.8H83.948V225.855L83.948,225.855z M219.226,144.688H83.948
			v27.056h135.278V144.688L219.226,144.688z M83.948,117.631h135.278V90.577H83.948V117.631z"/>
	</g>
</g>
</svg>
