<?xml version="1.0" encoding="utf-8"?>
<!-- Generator: Adobe Illustrator 16.0.0, SVG Export Plug-In . SVG Version: 6.00 Build 0)  -->
<!DOCTYPE svg PUBLIC "-//W3C//DTD SVG 1.1//EN" "http://www.w3.org/Graphics/SVG/1.1/DTD/svg11.dtd">
<svg version="1.1" id="Layer_1" xmlns="http://www.w3.org/2000/svg" xmlns:xlink="http://www.w3.org/1999/xlink" x="0px" y="0px"
	 width="384px" height="384px" viewBox="0 0 384 384" enable-background="new 0 0 384 384" xml:space="preserve">
<g>
	<linearGradient id="SVGID_1_" gradientUnits="userSpaceOnUse" x1="48.415" y1="72.1187" x2="257.354" y2="311.9027">
		<stop  offset="0" style="stop-color:#4B5763"/>
		<stop  offset="1" style="stop-color:#101E29"/>
	</linearGradient>
	<path fill-rule="evenodd" clip-rule="evenodd" fill="url(#SVGID_1_)" d="M259.864,307.164h-27.08h-18.186h-6.376l-0.003,27.08
		l-14.811,0.003v-27.083h-69.443l-0.001,27.083h-14.907l0.003-27.083H70.286H43.202c-22.433,0-40.624-18.194-40.624-40.626
		L2.577,104.04C2.579,81.607,20.77,63.417,43.202,63.417h27.083h162.499h27.08c37.39,0,67.709,30.318,67.709,67.707v40.624h40.622
		c7.479,0,13.542,6.064,13.542,13.542s-6.063,13.54-13.542,13.54h-40.622v40.626C327.573,276.844,297.254,307.164,259.864,307.164
		L259.864,307.164L259.864,307.164z M192.159,49.875H110.91c-7.478,0-13.542-6.064-13.542-13.542
		c0-7.478,6.064-13.541,13.542-13.541h81.249c7.476,0,13.542,6.063,13.542,13.541C205.7,43.81,199.635,49.875,192.159,49.875
		L192.159,49.875z M246.326,361.328L246.326,361.328c7.476,0,13.538-6.063,13.538-13.539c0-7.479-6.063-13.542-13.538-13.542H56.744
		c-7.478,0-13.542,6.063-13.542,13.542c0,7.476,6.064,13.539,13.542,13.539H246.326L246.326,361.328z M219.242,252.996H83.826
		v27.084h135.416V252.996L219.242,252.996z M83.826,225.913h135.416v-27.084H83.826V225.913L83.826,225.913z M219.242,144.666
		H83.826v27.082h135.416V144.666L219.242,144.666z M83.826,117.582h135.416V90.499H83.826V117.582L83.826,117.582z M56.744,280.08
		v-40.625v-54.166v-54.166V90.499H43.202c-7.478,0-13.542,6.064-13.542,13.542v162.498c0,7.479,6.064,13.542,13.542,13.542H56.744
		L56.744,280.08z M246.326,90.499v40.625v54.166v54.166v40.625h13.538c22.432,0,40.626-18.194,40.626-40.625v-54.166v-54.166
		c0-22.433-18.194-40.625-40.626-40.625H246.326z"/>
</g>
</svg>
