<?xml version="1.0" encoding="utf-8"?>
<!-- Generator: Adobe Illustrator 16.0.0, SVG Export Plug-In . SVG Version: 6.00 Build 0)  -->
<!DOCTYPE svg PUBLIC "-//W3C//DTD SVG 1.1//EN" "http://www.w3.org/Graphics/SVG/1.1/DTD/svg11.dtd">
<svg version="1.1" id="Layer_1" xmlns="http://www.w3.org/2000/svg" xmlns:xlink="http://www.w3.org/1999/xlink" x="0px" y="0px"
	 width="384px" height="384px" viewBox="0 0 384 384" enable-background="new 0 0 384 384" xml:space="preserve">
<linearGradient id="SVGID_1_" gradientUnits="userSpaceOnUse" x1="47.5928" y1="57.9849" x2="335.0877" y2="366.4116">
	<stop  offset="0" style="stop-color:#3ABCA8"/>
	<stop  offset="1" style="stop-color:#009383"/>
</linearGradient>
<path fill-rule="evenodd" clip-rule="evenodd" fill="url(#SVGID_1_)" d="M375.072,129.895c-0.246-0.028-0.494-0.042-0.74-0.042
	h-0.215c-0.15-2.415-0.377-4.923-0.709-7.596c9.711-9.853,9.598-25.713-0.256-35.425c-2.662-2.625-5.879-4.622-9.416-5.84
	c2.818-4.129,4.32-9.016,4.309-14.015c0-13.89-11.262-25.151-25.15-25.151c-2.123-0.002-4.236,0.27-6.287,0.812
	c0-0.271,0-0.541,0-0.812c0.029-13.865-11.184-25.131-25.051-25.163c-6.396-0.014-12.555,2.412-17.223,6.784
	c-0.91-0.321-1.828-0.629-2.74-0.924c-3.639-13.33-17.396-21.184-30.725-17.546c-6.574,1.795-12.133,6.195-15.389,12.183h-0.076
	c-4.355-8.072-12.803-13.092-21.975-13.06c-11.828,0.014-22.055,8.257-24.578,19.813c-13.364-3.79-27.269,3.971-31.058,17.335
	c-0.056,0.196-0.109,0.394-0.16,0.592c-13.787-0.532-25.393,10.214-25.924,23.999c-0.016,0.384-0.021,0.767-0.019,1.151
	c0,1.111,0.076,2.22,0.227,3.32c-12.039,6.725-16.347,21.936-9.621,33.974c1.499,2.685,3.482,5.069,5.848,7.034
	c-1.272,6.111-2.066,12.313-2.376,18.548h-0.365c-3.472,0.002-6.287,2.818-6.285,6.291c0,0.241,0.014,0.482,0.042,0.721l2.094,18.14
	H97.558c0.04-0.51,0.017-1.023-0.069-1.528L78.626,78.038c-0.701-2.797-3.215-4.76-6.099-4.76H9.651
	c-3.472,0-6.287,2.815-6.287,6.288v25.15c0,3.472,2.815,6.288,6.287,6.288h39.103l11.009,44.013H9.651
	c-3.472,0-6.287,2.815-6.287,6.288v25.15c0,3.473,2.815,6.288,6.287,6.288h0.465l14.066,182.812
	c0.253,3.281,2.996,5.813,6.287,5.803h96.71c3.292,0.01,6.033-2.521,6.287-5.803l9.299-120.898l13.984,121.137
	c0.367,3.171,3.052,5.563,6.243,5.564h183.787c3.191,0,5.877-2.394,6.244-5.564l27.57-238.928
	C380.994,133.415,378.521,130.294,375.072,129.895L375.072,129.895z M53.665,192.729v-12.575h25.15v12.575H53.665L53.665,192.729z
	 M91.39,192.729v-12.575h25.151v12.575H91.39L91.39,192.729z M53.683,98.415H15.938V85.84h51.678l17.297,69.163l-12.507,0
	c0.04-0.51,0.017-1.023-0.068-1.528h0.019l-12.576-50.301C59.082,100.377,56.566,98.415,53.683,98.415L53.683,98.415z
	 M121.382,368.782H36.267l-4.307-56.035l24.264,3.471c1.626,0.231,3.267,0.35,4.911,0.352c10.132,0.009,19.737-4.509,26.194-12.317
	c5.795-6.938,15.29-9.548,23.817-6.545l15.266,5.401L121.382,368.782L121.382,368.782z M127.412,290.118l-12.066-4.27
	c-13.494-4.725-28.503-0.601-37.688,10.355c-4.791,5.77-12.241,8.628-19.662,7.545l-27.036-3.86l-1.717-22.484
	c12.245,9.928,29.727,10.065,42.127,0.333l18.366-14.285c5.706-4.448,13.26-5.742,20.121-3.446l19.372,6.458L127.412,290.118
	L127.412,290.118z M141.691,180.154h-12.575v12.575h5.785l-4.679,60.808l-16.392-5.465c-10.844-3.625-22.784-1.578-31.803,5.451
	L63.662,267.81c-8.655,6.75-20.995,5.938-28.691-1.887l-7.18-7.318l-5.03-65.856h18.329v-12.575l-25.151-0.019v-12.576h125.752
	V180.154L141.691,180.154z M168.577,368.782l-20.322-176.109c3.351-0.128,6.003-2.878,6.011-6.231v-25.15
	c0-3.473-2.815-6.288-6.288-6.288h-4.068l-1.452-12.575h31.148l17.87,226.354H168.577L168.577,368.782z M204.088,368.782
	L186.22,142.429h37.374l5.953,226.354H204.088L204.088,368.782z M267.6,368.782h-25.471l-5.961-226.354h37.387L267.6,368.782
	L267.6,368.782z M280.188,368.782l5.949-226.354h37.373l-17.869,226.354H280.188L280.188,368.782z M341.158,368.782H318.26
	l17.869-226.354h31.148L341.158,368.782L341.158,368.782z M362.951,114.726c-1.842,1.383-2.781,3.662-2.445,5.941
	c0.479,3.326,0.822,6.344,1.018,9.187H148.179c0.453-6.663,1.505-13.27,3.144-19.743c0.693-2.77-0.567-5.66-3.068-7.036
	c-6.067-3.235-8.362-10.777-5.126-16.844c1.64-3.074,4.494-5.321,7.868-6.194c3.352-0.908,5.333-4.36,4.425-7.712
	c-0.064-0.236-0.141-0.468-0.232-0.694c-2.593-6.417,0.505-13.72,6.921-16.315c1.502-0.607,3.109-0.918,4.73-0.913
	c1.462,0.021,2.908,0.297,4.275,0.817c3.265,1.18,6.87-0.51,8.05-3.776c0.303-0.838,0.424-1.73,0.356-2.619
	c0-0.132-0.088-0.579-0.106-0.71c0.017-6.945,5.662-12.562,12.606-12.544c3.253,0.008,6.378,1.277,8.716,3.54
	c2.002,1.794,4.885,2.211,7.311,1.057c2.803-1.309,4.238-4.46,3.385-7.432c-2.203-6.539,1.314-13.625,7.854-15.827
	s13.625,1.315,15.826,7.854c0.098,0.292,0.186,0.588,0.262,0.887c0.881,2.925,3.734,4.794,6.766,4.433
	c2.559-0.302,5.168-0.453,7.791-0.572c2.582-0.122,4.828-1.813,5.658-4.263c2.143-6.541,9.182-10.106,15.723-7.962
	c4.744,1.554,8.102,5.789,8.535,10.76c0.25,2.564,2.039,4.718,4.516,5.433c3.143,0.905,6.338,1.987,9.48,3.226
	c2.676,1.054,5.727,0.158,7.408-2.176c2.338-3.317,6.146-5.286,10.203-5.275c6.945,0,12.576,5.63,12.576,12.575
	c-0.018,1.92-0.48,3.81-1.352,5.521c-1.264,2.571-0.631,5.67,1.539,7.539c0.541,0.459,1.063,0.943,1.586,1.434l0.887,0.817
	c2.314,2.109,5.83,2.192,8.242,0.195c2.229-1.878,5.047-2.915,7.961-2.93c6.914-0.029,12.541,5.552,12.57,12.466
	c0.016,3.967-1.848,7.707-5.025,10.082c-2.479,1.881-3.209,5.292-1.717,8.023c0.383,0.705,0.723,1.434,1.068,2.169l0.748,1.56
	c1.021,2.066,3.092,3.407,5.395,3.496c6.887,0.199,12.309,5.943,12.109,12.83C367.932,108.872,366.053,112.45,362.951,114.726z"/>
</svg>
