<?xml version="1.0" encoding="utf-8"?>
<!-- Generator: Adobe Illustrator 16.0.0, SVG Export Plug-In . SVG Version: 6.00 Build 0)  -->
<!DOCTYPE svg PUBLIC "-//W3C//DTD SVG 1.1//EN" "http://www.w3.org/Graphics/SVG/1.1/DTD/svg11.dtd">
<svg version="1.1" id="Layer_1" xmlns="http://www.w3.org/2000/svg" xmlns:xlink="http://www.w3.org/1999/xlink" x="0px" y="0px"
	 width="384px" height="384px" viewBox="0 0 384 384" enable-background="new 0 0 384 384" xml:space="preserve">
<g>
	<linearGradient id="SVGID_1_" gradientUnits="userSpaceOnUse" x1="133.4482" y1="82.4033" x2="257.8729" y2="360.2965">
		<stop  offset="0" style="stop-color:#3ABCA8"/>
		<stop  offset="1" style="stop-color:#009383"/>
	</linearGradient>
	<path fill-rule="evenodd" clip-rule="evenodd" fill="url(#SVGID_1_)" d="M312.838,192.08L278.001,65.601
		c-1.572-5.706-6.762-9.659-12.68-9.659H124.239c-5.919,0-11.107,3.953-12.68,9.659L76.725,192.08
		c-2.307,8.373,3.992,16.642,12.676,16.642h210.757C308.843,208.722,315.143,200.452,312.838,192.08L312.838,192.08z
		 M256.688,358.984h-6.845c7.434-10.825,11.79-23.943,11.79-38.087c0-17.219-6.455-32.925-17.069-44.808
		c-11.26-12.607-18.207-28.435-19.625-45.178h-60.315c-1.422,16.743-8.367,32.57-19.628,45.178
		c-10.611,11.885-17.067,27.589-17.067,44.808c0,14.144,4.354,27.265,11.789,38.087h-6.845c-6.128,0-11.095,4.966-11.095,11.092
		c0,6.13,4.965,11.099,11.095,11.099h123.815c6.13,0,11.099-4.969,11.099-11.099C267.786,363.95,262.817,358.984,256.688,358.984
		L256.688,358.984L256.688,358.984z M108.954,247.181h0.002c10.165,4.344,17.31,14.459,17.31,26.218
		c0,15.707-12.744,28.482-28.405,28.482c-15.665,0-28.408-12.775-28.408-28.482c0-11.759,7.146-21.874,17.313-26.218v-16.269h22.188
		V247.181L108.954,247.181z M97.859,279.69c3.428,0,6.215-2.822,6.215-6.295c0-3.468-2.787-6.287-6.215-6.287
		c-3.425,0-6.215,2.819-6.215,6.287C91.644,276.868,94.434,279.69,97.859,279.69L97.859,279.69z M194.779,25.118
		c5.214,0,9.573,3.714,10.58,8.633h22.329c-1.118-17.184-15.445-30.825-32.909-30.825c-17.461,0-31.79,13.642-32.908,30.825h22.331
		C185.207,28.833,189.567,25.118,194.779,25.118L194.779,25.118z"/>
</g>
</svg>
