<?xml version="1.0" encoding="utf-8"?>
<!-- Generator: Adobe Illustrator 16.0.0, SVG Export Plug-In . SVG Version: 6.00 Build 0)  -->
<!DOCTYPE svg PUBLIC "-//W3C//DTD SVG 1.1//EN" "http://www.w3.org/Graphics/SVG/1.1/DTD/svg11.dtd">
<svg version="1.1" id="Layer_1" xmlns="http://www.w3.org/2000/svg" xmlns:xlink="http://www.w3.org/1999/xlink" x="0px" y="0px"
	 width="384px" height="384px" viewBox="0 0 384 384" enable-background="new 0 0 384 384" xml:space="preserve">
<g>
	<linearGradient id="SVGID_1_" gradientUnits="userSpaceOnUse" x1="113.2432" y1="57.0825" x2="284.551" y2="356.439">
		<stop  offset="0" style="stop-color:#4B5763"/>
		<stop  offset="1" style="stop-color:#101E29"/>
	</linearGradient>
	<path fill-rule="evenodd" clip-rule="evenodd" fill="url(#SVGID_1_)" d="M325.663,199.03L283.285,45.172
		c-1.333-4.848-5.743-8.207-10.771-8.207h-47.909v-2.019c0-18.318-14.903-33.22-33.22-33.22s-33.219,14.902-33.219,33.22v2.019
		h-47.91c-5.027,0-9.436,3.358-10.771,8.207L57.107,199.03c-0.926,3.361-0.229,6.965,1.884,9.735
		c2.113,2.776,5.401,4.404,8.887,4.404h14.728v7.084c-10.236,4.37-17.432,14.561-17.432,26.403
		c0,15.813,12.832,28.683,28.607,28.683c15.773,0,28.605-12.867,28.605-28.683c0-11.843-7.196-22.033-17.433-26.403v-7.084h45.166
		v4.726c0,16.273-6.11,32.077-17.206,44.502c-12.914,14.464-20.028,33.132-20.028,52.57c0,16.795,5.244,32.747,14.667,45.917
		c-5.468,0.728-9.688,5.398-9.688,11.063c0,6.169,5.001,11.176,11.173,11.176h124.691c6.172,0,11.173-5.007,11.173-11.179
		c0-5.662-4.219-10.333-9.685-11.061c9.421-13.17,14.665-29.125,14.665-45.917c0-19.438-7.114-38.106-20.029-52.57
		c-11.094-12.422-17.205-28.229-17.205-44.502v-4.726h82.242c3.488,0,6.774-1.628,8.89-4.404
		C325.891,205.992,326.587,202.392,325.663,199.03L325.663,199.03L325.663,199.03z M180.512,34.947
		c0-5.995,4.877-10.872,10.873-10.872s10.873,4.877,10.873,10.872v2.019h-21.745V34.947L180.512,34.947L180.512,34.947z
		 M93.78,252.992c-3.451,0-6.259-2.841-6.259-6.335c0-3.495,2.808-6.338,6.259-6.338c3.451,0,6.26,2.843,6.26,6.338
		C100.04,250.151,97.232,252.992,93.78,252.992L93.78,252.992z M233.188,277.283c9.251,10.362,14.346,23.745,14.346,37.682
		c0,18.292-8.666,35.19-23.333,45.809h-65.634c-14.667-10.618-23.333-27.517-23.333-45.809c0-13.939,5.095-27.319,14.349-37.682
		c14.756-16.525,22.883-37.619,22.883-59.388v-4.726h37.835v4.726C210.304,239.664,218.427,260.758,233.188,277.283L233.188,277.283
		z M82.545,190.822l36.221-131.51h145.236l36.222,131.51H82.545z"/>
</g>
</svg>
