<?xml version="1.0" encoding="utf-8"?>
<!-- Generator: Adobe Illustrator 16.0.0, SVG Export Plug-In . SVG Version: 6.00 Build 0)  -->
<!DOCTYPE svg PUBLIC "-//W3C//DTD SVG 1.1//EN" "http://www.w3.org/Graphics/SVG/1.1/DTD/svg11.dtd">
<svg version="1.1" id="Layer_1" xmlns="http://www.w3.org/2000/svg" xmlns:xlink="http://www.w3.org/1999/xlink" x="0px" y="0px"
	 width="384px" height="384px" viewBox="0 0 384 384" enable-background="new 0 0 384 384" xml:space="preserve">
<linearGradient id="SVGID_1_" gradientUnits="userSpaceOnUse" x1="73.7988" y1="102.8369" x2="247.0432" y2="322.6025">
	<stop  offset="0" style="stop-color:#3ABCA8"/>
	<stop  offset="1" style="stop-color:#009383"/>
</linearGradient>
<path fill-rule="evenodd" clip-rule="evenodd" fill="url(#SVGID_1_)" d="M365.758,258.346
	c-23.446,10.667-48.916,16.156-74.672,16.091c-100.239-0.109-181.47-81.341-181.581-181.58c-0.07-25.758,5.415-51.228,16.079-74.673
	l6.888-15.115l-15.139,6.813C47.831,41.271,3.151,110.452,3.126,186.714C3.09,293.913,89.964,380.846,197.163,380.88
	c76.289-0.049,145.486-44.748,176.898-114.271l6.812-15.152L365.758,258.346L365.758,258.346z M286.401,344.929
	c-87.333,49.298-198.09,18.467-247.388-68.864c-49.298-87.331-18.467-198.088,68.863-247.387
	C100.619,49.295,96.935,71,96.982,92.857c0.125,107.148,86.955,193.98,194.104,194.102c21.855,0.049,43.561-3.635,64.178-10.895
	C339.007,304.863,315.198,328.674,286.401,344.929z"/>
</svg>
