<?xml version="1.0" encoding="utf-8"?>
<!-- Generator: Adobe Illustrator 16.0.0, SVG Export Plug-In . SVG Version: 6.00 Build 0)  -->
<!DOCTYPE svg PUBLIC "-//W3C//DTD SVG 1.1//EN" "http://www.w3.org/Graphics/SVG/1.1/DTD/svg11.dtd">
<svg version="1.1" id="Layer_1" xmlns="http://www.w3.org/2000/svg" xmlns:xlink="http://www.w3.org/1999/xlink" x="0px" y="0px"
	 width="384px" height="384px" viewBox="0 0 384 384" enable-background="new 0 0 384 384" xml:space="preserve">
<linearGradient id="SVGID_1_" gradientUnits="userSpaceOnUse" x1="98.896" y1="114.7764" x2="287.2859" y2="372.7147">
	<stop  offset="0" style="stop-color:#3ABCA8"/>
	<stop  offset="1" style="stop-color:#009383"/>
</linearGradient>
<path fill-rule="evenodd" clip-rule="evenodd" fill="url(#SVGID_1_)" d="M143.097,346.816c8.865,20.052,28.94,34.086,52.235,34.086
	c23.301,0,43.368-14.034,52.24-34.086H143.097L143.097,346.816z M333.677,324.646H56.993c-5.234,0-10.028-3.532-11.119-8.651
	c-1.079-5.071,1.236-10.07,5.92-12.241c1.115-0.719,9.487-6.575,17.87-24.291c15.391-32.522,18.625-78.346,18.625-111.055
	c0-59.029,48.018-107.05,107.042-107.05c58.879,0,106.812,47.792,107.034,106.623c0.007,0.139,0.011,0.284,0.011,0.427
	c0,32.709,3.232,78.532,18.632,111.055c8.377,17.716,16.751,23.572,17.863,24.291c4.688,2.171,6.997,7.17,5.921,12.241
	C343.705,321.113,338.907,324.646,333.677,324.646L333.677,324.646z M338.997,303.834h0.007H338.997L338.997,303.834z
	 M195.332,39.188c15.373,0,30.134,2.715,43.833,7.682v-1.69c0-23.203-18.883-42.082-42.086-42.082h-3.488
	c-23.208,0-42.089,18.879-42.089,42.082v1.673c13.692-4.954,28.451-7.664,43.825-7.664H195.332z"/>
</svg>
