<?xml version="1.0" encoding="utf-8"?>
<!-- Generator: Adobe Illustrator 16.0.0, SVG Export Plug-In . SVG Version: 6.00 Build 0)  -->
<!DOCTYPE svg PUBLIC "-//W3C//DTD SVG 1.1//EN" "http://www.w3.org/Graphics/SVG/1.1/DTD/svg11.dtd">
<svg version="1.1" id="Layer_1" xmlns="http://www.w3.org/2000/svg" xmlns:xlink="http://www.w3.org/1999/xlink" x="0px" y="0px"
	 width="384px" height="384px" viewBox="0 0 384 384" enable-background="new 0 0 384 384" xml:space="preserve">
<linearGradient id="SVGID_1_" gradientUnits="userSpaceOnUse" x1="93.668" y1="88.0786" x2="253.7399" y2="361.6987">
	<stop  offset="0" style="stop-color:#4B5763"/>
	<stop  offset="1" style="stop-color:#101E29"/>
</linearGradient>
<path fill-rule="evenodd" clip-rule="evenodd" fill="url(#SVGID_1_)" d="M342.348,305.096c-1.123-0.727-9.585-6.659-18.051-24.58
	c-15.555-32.919-18.818-79.284-18.818-112.39c0-0.146-0.006-0.285-0.009-0.432c-0.173-43.746-26.364-81.459-63.858-98.384V43.433
	c0-23.48-19.074-42.589-42.519-42.589h-3.522c-23.444,0-42.52,19.109-42.52,42.589V69.31c-37.608,16.975-63.862,54.88-63.862,98.815
	c0,33.106-3.263,79.471-18.816,112.39c-8.469,17.921-16.927,23.854-18.05,24.58c-4.738,2.188-7.071,7.257-5.98,12.386
	c1.101,5.18,5.943,8.748,11.231,8.748h82.094c0.464,31.467,26.145,56.928,57.664,56.928c31.523,0,57.208-25.461,57.662-56.928
	h82.102c5.287,0,10.131-3.568,11.231-8.748C349.414,312.353,347.08,307.283,342.348,305.096L342.348,305.096L342.348,305.096z
	 M175.456,43.433c0-11.108,9.024-20.151,20.119-20.151h3.519c11.097,0,20.12,9.043,20.12,20.151v18.603
	c-7.066-1.455-14.386-2.223-21.881-2.223c-7.493,0-14.811,0.768-21.876,2.223V43.433L175.456,43.433L175.456,43.433z
	 M197.332,360.723c-19.166,0-34.803-15.397-35.259-34.493h70.522C232.141,345.325,216.502,360.723,197.332,360.723L197.332,360.723z
	 M242.433,303.795H83.101c1.938-3.021,3.907-6.441,5.87-10.308c15.008-29.596,22.624-71.777,22.624-125.362
	c0-47.352,38.458-85.875,85.737-85.875c47.278,0,85.736,38.523,85.736,85.911c0,0.141,0.002,0.278,0.007,0.415
	c0.04,53.365,7.654,95.4,22.624,124.911c1.961,3.866,3.933,7.287,5.87,10.308H242.433z"/>
</svg>
