<?xml version="1.0" encoding="utf-8"?>
<!-- Generator: Adobe Illustrator 16.0.0, SVG Export Plug-In . SVG Version: 6.00 Build 0)  -->
<!DOCTYPE svg PUBLIC "-//W3C//DTD SVG 1.1//EN" "http://www.w3.org/Graphics/SVG/1.1/DTD/svg11.dtd">
<svg version="1.1" id="Layer_1" xmlns="http://www.w3.org/2000/svg" xmlns:xlink="http://www.w3.org/1999/xlink" x="0px" y="0px"
	 width="384px" height="384px" viewBox="0 0 384 384" enable-background="new 0 0 384 384" xml:space="preserve">
<g>
	<linearGradient id="SVGID_1_" gradientUnits="userSpaceOnUse" x1="19.9824" y1="66.4023" x2="373.7302" y2="301.2236">
		<stop  offset="0" style="stop-color:#4B5763"/>
		<stop  offset="1" style="stop-color:#101E29"/>
	</linearGradient>
	<path fill-rule="evenodd" clip-rule="evenodd" fill="url(#SVGID_1_)" d="M204.711,62.245H24.628
		c-12.258,0-22.231,9.974-22.231,22.232v150.44c0,12.258,9.974,22.233,22.231,22.233h55.581v42.24H55.753
		c-6.141,0-11.116,4.976-11.116,11.115c0,6.142,4.975,11.118,11.116,11.118h118.573c6.141,0,11.116-4.977,11.116-11.118
		c0-6.14-4.975-11.115-11.116-11.115h-24.456v-42.24h54.84c12.257,0,22.232-9.976,22.232-22.233V84.477
		C226.943,72.219,216.968,62.245,204.711,62.245L204.711,62.245z M127.638,299.391h-25.196v-42.24h25.196V299.391L127.638,299.391z
		 M204.711,234.917c-5.105,0-174.834,0-180.083,0V84.477h180.083C204.725,242.67,204.785,234.917,204.711,234.917L204.711,234.917z
		 M358.854,62.245h-84.483c-12.256,0-22.23,9.974-22.23,22.232v214.914c0,12.258,9.975,22.233,22.23,22.233h84.483
		c12.451,0,22.976-10.185,22.976-22.233V84.477C381.83,72.428,371.306,62.245,358.854,62.245L358.854,62.245z M359.597,84.828
		v24.846h-85.226V84.477C364.657,84.477,359.018,84.285,359.597,84.828L359.597,84.828z M274.371,299.391V131.907h85.226v167.134
		C359.021,299.584,364.602,299.391,274.371,299.391L274.371,299.391z M327.516,260.907c1.006,5.371-1.755,10.88-7.672,12.804
		c-5.513,1.646-11.787-1.031-13.865-7.399c-1.665-5.591,1.138-11.866,7.412-13.866C319.466,250.594,326.122,254.226,327.516,260.907
		L327.516,260.907z M327.516,213.478c1.006,5.37-1.755,10.879-7.672,12.807c-5.503,1.641-11.787-1.038-13.865-7.404
		c-1.665-5.59,1.138-11.864,7.412-13.864C319.466,203.167,326.122,206.796,327.516,213.478z"/>
</g>
</svg>
