<?xml version="1.0" encoding="utf-8"?>
<!-- Generator: Adobe Illustrator 16.0.0, SVG Export Plug-In . SVG Version: 6.00 Build 0)  -->
<!DOCTYPE svg PUBLIC "-//W3C//DTD SVG 1.1//EN" "http://www.w3.org/Graphics/SVG/1.1/DTD/svg11.dtd">
<svg version="1.1" id="Layer_1" xmlns="http://www.w3.org/2000/svg" xmlns:xlink="http://www.w3.org/1999/xlink" x="0px" y="0px"
	 width="384px" height="384px" viewBox="0 0 384 384" enable-background="new 0 0 384 384" xml:space="preserve">
<g>
	<linearGradient id="SVGID_1_" gradientUnits="userSpaceOnUse" x1="21.793" y1="64.6841" x2="371.4413" y2="303.8934">
		<stop  offset="0" style="stop-color:#3ABCA8"/>
		<stop  offset="1" style="stop-color:#009383"/>
	</linearGradient>
	<path fill-rule="evenodd" clip-rule="evenodd" fill="url(#SVGID_1_)" d="M381.313,110.129V84.917
		c0-12.057-10.53-22.246-22.987-22.246h-84.532c-12.265,0-22.242,9.981-22.242,22.246v25.211H381.313L381.313,110.129z
		 M251.551,132.375V299.95c0,12.269,9.978,22.249,22.242,22.249h84.532c12.457,0,22.987-10.189,22.987-22.249V132.375H251.551
		L251.551,132.375z M319.292,274.257c-5.516,1.647-11.794-1.032-13.873-7.404c-1.665-5.594,1.135-11.873,7.416-13.873
		c6.077-1.85,12.735,1.78,14.13,8.466C327.973,266.819,325.212,272.332,319.292,274.257L319.292,274.257z M319.292,226.803
		c-5.51,1.642-11.794-1.035-13.873-7.407c-1.665-5.591,1.135-11.873,7.416-13.873c6.077-1.85,12.735,1.78,14.13,8.466
		C327.973,219.362,325.212,224.875,319.292,226.803L319.292,226.803z M204.094,62.672H23.909c-12.265,0-22.246,9.981-22.246,22.246
		v150.526c0,12.262,9.981,22.243,22.246,22.243h180.185c12.265,0,22.245-9.981,22.245-22.243V84.917
		C226.339,72.653,216.358,62.672,204.094,62.672L204.094,62.672z M173.691,299.95h-24.469v-20.019H79.521v20.019H55.052
		c-6.14,0-11.123,4.984-11.123,11.125c0,6.14,4.983,11.124,11.123,11.124h118.639c6.142,0,11.123-4.984,11.123-11.124
		C184.814,304.935,179.833,299.95,173.691,299.95z"/>
</g>
</svg>
