<?xml version="1.0" encoding="utf-8"?>
<!-- Generator: Adobe Illustrator 16.0.0, SVG Export Plug-In . SVG Version: 6.00 Build 0)  -->
<!DOCTYPE svg PUBLIC "-//W3C//DTD SVG 1.1//EN" "http://www.w3.org/Graphics/SVG/1.1/DTD/svg11.dtd">
<svg version="1.1" id="Layer_1" xmlns="http://www.w3.org/2000/svg" xmlns:xlink="http://www.w3.org/1999/xlink" x="0px" y="0px"
	 width="384px" height="384px" viewBox="0 0 384 384" enable-background="new 0 0 384 384" xml:space="preserve">
<g>
	<linearGradient id="SVGID_1_" gradientUnits="userSpaceOnUse" x1="29.3931" y1="27.4819" x2="355.2496" y2="359.5042">
		<stop  offset="0" style="stop-color:#4B5763"/>
		<stop  offset="1" style="stop-color:#101E29"/>
	</linearGradient>
	<path fill-rule="evenodd" clip-rule="evenodd" fill="url(#SVGID_1_)" d="M133.465,269.098c-3.242-1.421-6.818-2.222-10.581-2.222
		c-8.624,0-16.281,4.169-21.109,10.581H75.272V309.2h26.502c4.833,6.411,12.485,10.578,21.109,10.578
		c3.763,0,7.339-0.801,10.581-2.222v7.514h21.161v-63.483h-21.161V269.098L133.465,269.098z M260.428,266.876
		c-3.763,0-7.339,0.801-10.578,2.222v-7.511h-21.162v63.483h21.162v-7.514c3.239,1.421,6.815,2.222,10.578,2.222
		c8.627,0,16.282-4.167,21.11-10.578h26.499v-31.743h-26.499C276.71,271.045,269.055,266.876,260.428,266.876L260.428,266.876z
		 M212.817,95.164V65.852h-42.32v29.312c-6.477,5.814-10.581,14.223-10.581,23.59c0,13.788,8.853,25.519,21.16,29.892v25.956
		c-6.294,3.669-10.579,10.418-10.579,18.215c0,11.668,9.491,21.159,21.16,21.159c11.666,0,21.16-9.491,21.16-21.159
		c0-7.796-4.286-14.545-10.581-18.215v-25.956c12.31-4.373,21.159-16.099,21.159-29.892
		C223.396,109.384,219.293,100.978,212.817,95.164L212.817,95.164z M338.724,3.428c23.335,0,42.317,18.984,42.317,42.321V339.88
		c0,23.336-18.982,42.324-42.317,42.324H44.589c-23.335,0-42.319-18.988-42.319-42.324V45.749c0-23.337,18.984-42.321,42.319-42.321
		H338.724L338.724,3.428z M351.421,339.88c0,7.002-5.698,12.697-12.697,12.697H44.589c-6.999,0-12.696-5.695-12.696-12.697V45.749
		c0-7,5.697-12.696,12.696-12.696h294.134c6.999,0,12.697,5.696,12.697,12.696V339.88z"/>
</g>
</svg>
