<?xml version="1.0" encoding="utf-8"?>
<!-- Generator: Adobe Illustrator 16.0.0, SVG Export Plug-In . SVG Version: 6.00 Build 0)  -->
<!DOCTYPE svg PUBLIC "-//W3C//DTD SVG 1.1//EN" "http://www.w3.org/Graphics/SVG/1.1/DTD/svg11.dtd">
<svg version="1.1" id="Layer_1" xmlns="http://www.w3.org/2000/svg" xmlns:xlink="http://www.w3.org/1999/xlink" x="0px" y="0px"
	 width="384px" height="384px" viewBox="0 0 384 384" enable-background="new 0 0 384 384" xml:space="preserve">
<linearGradient id="SVGID_1_" gradientUnits="userSpaceOnUse" x1="157.8867" y1="13.4585" x2="293.6024" y2="329.175">
	<stop  offset="0" style="stop-color:#3ABCA8"/>
	<stop  offset="1" style="stop-color:#009383"/>
</linearGradient>
<path fill-rule="evenodd" clip-rule="evenodd" fill="url(#SVGID_1_)" d="M310.31,94.221h-12.874H231.41h-48.7h-66.039h-12.874
	c-5.558,0-10.069,4.511-10.069,10.069v57.376c0,46.701,28.403,86.888,68.84,104.211v33.462c0,11.877,9.667,21.544,21.546,21.544
	h12.874v51.837c0,5.56,4.513,10.072,10.069,10.072c5.562,0,10.071-4.513,10.071-10.072v-51.837h12.877
	c11.874,0,21.544-9.667,21.544-21.544v-33.465c40.433-17.32,68.831-57.508,68.831-104.208V104.29
	C320.382,98.727,315.866,94.221,310.31,94.221L310.31,94.221z M297.418,78.948V20.396c0-9.901-9.664-17.96-21.537-17.96h-22.955
	c-11.873,0-21.534,8.059-21.534,17.96v58.552h-48.7V20.396c0-9.901-9.668-17.96-21.546-17.96h-22.944
	c-11.88,0-21.546,8.059-21.546,17.96v58.552C-60.997,78.948,415.956,78.948,297.418,78.948L297.418,78.948z M277.295,94.221h-25.744
	H277.295L277.295,94.221z M162.569,94.221h-25.755H162.569z"/>
</svg>
