<?xml version="1.0" encoding="utf-8"?>
<!-- Generator: Adobe Illustrator 16.0.0, SVG Export Plug-In . SVG Version: 6.00 Build 0)  -->
<!DOCTYPE svg PUBLIC "-//W3C//DTD SVG 1.1//EN" "http://www.w3.org/Graphics/SVG/1.1/DTD/svg11.dtd">
<svg version="1.1" id="Layer_1" xmlns="http://www.w3.org/2000/svg" xmlns:xlink="http://www.w3.org/1999/xlink" x="0px" y="0px"
	 width="384px" height="384px" viewBox="0 0 384 384" enable-background="new 0 0 384 384" xml:space="preserve">
<g>
	<linearGradient id="SVGID_1_" gradientUnits="userSpaceOnUse" x1="159.8242" y1="12.6533" x2="261.672" y2="346.9505">
		<stop  offset="0" style="stop-color:#4B5763"/>
		<stop  offset="1" style="stop-color:#101E29"/>
	</linearGradient>
	<path fill-rule="evenodd" clip-rule="evenodd" fill="url(#SVGID_1_)" d="M230.311,2.801c-15.494-0.001-28.097,12.603-28.1,28.104
		l0.022,48.392h-20.32V30.872c0-15.478-12.927-28.522-28.521-28.522c-15.53,0-28.099,12.565-28.1,28.099
		c-0.023,1.236-0.064-8.882,0.366,50.108c-10.814,3.431-19.135,13.861-18.694,26.572c1.245,35.914,4.687,59.447,10.219,69.946
		c9.789,18.554,13.823,17.583,18.212,39.59l5.416,41.067c2.833,21.49,20.803,37.865,42.254,38.921l-0.381,76.013
		c-0.038,7.997,9.68,12.017,15.31,6.384c1.61-1.61,2.617-3.834,2.627-6.294l0.375-76.103c21.508-1.018,39.508-17.411,42.345-38.921
		l5.416-41.067c4.384-22.009,8.418-21.031,18.208-39.593c5.538-10.496,8.979-34.029,10.219-69.944
		c0.443-12.713-7.878-23.164-18.751-26.591L258.409,30.9C258.406,15.371,245.843,2.8,230.311,2.801L230.311,2.801z M163.978,155.389
		c0-15.493,12.605-28.098,28.099-28.098c15.531,0.001,28.098,12.57,28.098,28.099c0,15.534-12.566,28.1-28.098,28.099
		C176.584,183.492,163.978,170.885,163.978,155.389L163.978,155.389z M202.238,155.394c0,5.614-4.543,10.162-10.162,10.162
		c-5.602,0-10.161-4.561-10.163-10.164c-0.003-5.603,4.558-10.163,10.162-10.162C197.693,145.228,202.243,149.775,202.238,155.394
		L202.238,155.394z M143.23,30.421c0.025-8.915,10.794-13.715,17.56-6.948c2.027,2.025,3.188,4.723,3.188,7.396l0.002,48.427
		h-20.393L143.23,30.421L143.23,30.421z M225.561,255.389c-1.759,13.328-13.226,23.382-26.673,23.384l-13.62-0.002
		c-13.451,0-24.916-10.054-26.674-23.384l-2.473-18.762h71.913L225.561,255.389L225.561,255.389z M259.261,106.505
		c-1.083,31.319-4.134,54.572-8.158,62.203c-9.031,17.117-14.86,18.791-19.994,44.755c-0.083,0.409-0.049,0.233-0.708,5.229h-76.646
		c-0.682-5.165-0.632-4.842-0.709-5.23c-5.136-25.968-10.976-27.654-19.996-44.756c-4.021-7.627-7.074-30.881-8.158-62.199
		c-0.176-5.066,3.866-9.276,8.962-9.276c12.989,0,103.711,0,116.446,0.002C255.38,97.233,259.438,101.427,259.261,106.505
		L259.261,106.505z M240.473,30.902l0.027,48.394h-20.326l-0.029-48.399c0-2.711,1.062-5.266,2.979-7.188
		C229.546,17.289,240.476,21.924,240.473,30.902z"/>
</g>
</svg>
