<?xml version="1.0" encoding="utf-8"?>
<!-- Generator: Adobe Illustrator 16.0.0, SVG Export Plug-In . SVG Version: 6.00 Build 0)  -->
<!DOCTYPE svg PUBLIC "-//W3C//DTD SVG 1.1//EN" "http://www.w3.org/Graphics/SVG/1.1/DTD/svg11.dtd">
<svg version="1.1" id="Layer_1" xmlns="http://www.w3.org/2000/svg" xmlns:xlink="http://www.w3.org/1999/xlink" x="0px" y="0px"
	 width="384px" height="384px" viewBox="0 0 384 384" enable-background="new 0 0 384 384" xml:space="preserve">
<g>
	<path fill-rule="evenodd" clip-rule="evenodd" fill="#3ABCA8" d="M339.689,2.241H44.875c-23.39,0-42.419,19.028-42.419,42.419
		v294.813c0,23.39,19.029,42.419,42.419,42.419h294.814c23.389,0,42.416-19.029,42.416-42.419V44.66
		C382.105,21.269,363.078,2.241,339.689,2.241L339.689,2.241z M133.956,268.526v-7.527h21.208v63.626h-21.208v-7.53
		c-3.25,1.427-6.834,2.227-10.605,2.227c-8.645,0-16.314-4.176-21.158-10.603H75.629v-31.813h26.563
		c4.84-6.427,12.514-10.608,21.158-10.608C127.122,266.297,130.707,267.1,133.956,268.526L133.956,268.526z M213.492,94.187
		c6.487,5.83,10.603,14.253,10.603,23.646c0,13.825-8.871,25.578-21.208,29.96v26.016c6.309,3.676,10.605,10.442,10.605,18.257
		c0,11.696-9.517,21.209-21.211,21.209c-11.695,0-21.209-9.513-21.209-21.209c0-7.814,4.296-14.581,10.605-18.257v-26.016
		c-12.335-4.382-21.209-16.14-21.209-29.96c0-9.388,4.114-17.816,10.604-23.646V64.809h42.42V94.187L213.492,94.187z
		 M261.212,266.297c8.647,0,16.32,4.182,21.16,10.608h26.56v31.813h-26.56c-4.84,6.427-12.513,10.603-21.16,10.603
		c-3.771,0-7.355-0.8-10.603-2.227v7.53h-21.211v-63.626h21.211v7.527C253.856,267.1,257.44,266.297,261.212,266.297z"/>
</g>
</svg>
