<?xml version="1.0" encoding="utf-8"?>
<!-- Generator: Adobe Illustrator 16.0.0, SVG Export Plug-In . SVG Version: 6.00 Build 0)  -->
<!DOCTYPE svg PUBLIC "-//W3C//DTD SVG 1.1//EN" "http://www.w3.org/Graphics/SVG/1.1/DTD/svg11.dtd">
<svg version="1.1" id="Layer_1" xmlns="http://www.w3.org/2000/svg" xmlns:xlink="http://www.w3.org/1999/xlink" x="0px" y="0px"
	 width="384px" height="384px" viewBox="0 0 384 384" enable-background="new 0 0 384 384" xml:space="preserve">
<g>
	<linearGradient id="SVGID_1_" gradientUnits="userSpaceOnUse" x1="135.7744" y1="11.2383" x2="286.9212" y2="324.7282">
		<stop  offset="0" style="stop-color:#4B5763"/>
		<stop  offset="1" style="stop-color:#101E29"/>
	</linearGradient>
	<path fill-rule="evenodd" clip-rule="evenodd" fill="url(#SVGID_1_)" d="M294.523,94.05h-12.847V23.982
		c0-11.85-9.638-21.493-21.482-21.493h-22.9c-11.845,0-21.482,9.643-21.482,21.493V94.05h-48.584V23.982
		c0-11.85-9.646-21.493-21.494-21.493h-22.891c-11.85,0-21.493,9.643-21.493,21.493V94.05H88.505
		c-5.546,0-10.046,4.502-10.046,10.048v57.238c0,46.59,28.335,86.679,68.676,103.963v33.379c0,11.852,9.644,21.495,21.495,21.495
		h12.844v51.711c0,5.548,4.5,10.048,10.044,10.048c5.547,0,10.049-4.5,10.049-10.048v-51.711h12.844
		c11.847,0,21.491-9.644,21.491-21.495v-33.381c40.335-17.282,68.67-57.371,68.67-103.961v-57.238
		C304.571,98.546,300.069,94.05,294.523,94.05L294.523,94.05z M235.901,23.982c0-0.782,0.614-1.4,1.393-1.4h22.9
		c0.769,0,1.394,0.629,1.394,1.4V94.05h-25.687V23.982L235.901,23.982z M121.442,23.982c0-0.771,0.627-1.4,1.4-1.4h22.891
		c0.774,0,1.401,0.629,1.401,1.4V94.05h-25.692V23.982L121.442,23.982z M215.812,298.672c0,0.775-0.627,1.402-1.401,1.402h-45.776
		c-0.773,0-1.402-0.627-1.402-1.402v-26.943c7.832,1.722,15.954,2.651,24.292,2.651c8.34,0,16.459-0.933,24.295-2.653v26.945
		H215.812L215.812,298.672z M284.475,161.336c0,51.255-41.698,92.96-92.958,92.96c-51.258,0-92.966-41.705-92.966-92.96v-47.191
		h185.923V161.336z"/>
</g>
</svg>
