<?xml version="1.0" encoding="utf-8"?>
<!-- Generator: Adobe Illustrator 16.0.0, SVG Export Plug-In . SVG Version: 6.00 Build 0)  -->
<!DOCTYPE svg PUBLIC "-//W3C//DTD SVG 1.1//EN" "http://www.w3.org/Graphics/SVG/1.1/DTD/svg11.dtd">
<svg version="1.1" id="Layer_1" xmlns="http://www.w3.org/2000/svg" xmlns:xlink="http://www.w3.org/1999/xlink" x="0px" y="0px"
	 width="384px" height="384px" viewBox="0 0 384 384" enable-background="new 0 0 384 384" xml:space="preserve">
<g>
	<linearGradient id="SVGID_1_" gradientUnits="userSpaceOnUse" x1="156.6533" y1="15.0356" x2="266.7094" y2="348.3897">
		<stop  offset="0" style="stop-color:#3ABCA8"/>
		<stop  offset="1" style="stop-color:#009383"/>
	</linearGradient>
	<path fill-rule="evenodd" clip-rule="evenodd" fill="url(#SVGID_1_)" d="M140.226,257.445c2.927,22.19,22.014,38.925,44.395,38.924
		l13.609,0.001c22.308,0,41.457-16.67,44.393-38.929l2.783-21.073l-107.959-0.003L140.226,257.445L140.226,257.445z
		 M185.462,147.031c4.546-3.273,10.887-2.247,14.161,2.299c3.276,4.542,2.245,10.88-2.298,14.159
		c-4.541,3.276-10.881,2.248-14.157-2.296C179.892,156.649,180.917,150.309,185.462,147.031L185.462,147.031z M110.879,97.151
		c-1.853,0-3.437,1.3-3.838,3.107c-0.485,2.197-0.696,4.467-0.615,6.777c1.234,35.862,4.667,59.365,10.199,69.857
		c3.075,5.824,5.646,9.81,7.915,13.327c4.553,7.066,7.313,11.35,10.275,26.215l0.267,2.018h112.679l0.269-2.021
		c2.967-14.859,5.722-19.142,10.279-26.206c2.271-3.521,4.841-7.508,7.917-13.335c5.523-10.478,8.953-33.979,10.201-69.852
		c0-0.002,0-0.002,0-0.006c0.077-2.311-0.134-4.582-0.622-6.778c-0.399-1.807-1.983-3.104-3.834-3.104H110.879L110.879,97.151z
		 M219.487,155.239c0-7.494-2.92-14.545-8.221-19.842c-5.3-5.303-12.348-8.219-19.843-8.223c-15.473,0-28.062,12.589-28.062,28.063
		c0,0,0,0-0.001,0.001c0.001,15.473,12.593,28.063,28.067,28.063c7.492,0,14.54-2.92,19.84-8.22
		C216.567,169.781,219.487,162.734,219.487,155.239L219.487,155.239z M181.275,79.238V30.877c0-7.495-2.996-14.617-8.433-20.052
		c-5.437-5.437-12.558-8.433-20.052-8.433c-7.486,0-14.525,2.914-19.826,8.201c-0.009,0.01-0.015,0.017-0.022,0.021
		c-5.297,5.3-8.216,12.344-8.218,19.842c0,0.023,0,0.043,0.002,0.064l0.356,48.72L181.275,79.238L181.275,79.238z M257.697,79.241
		l-0.025-48.333c0-7.509-2.926-14.562-8.236-19.862c-5.303-5.289-12.344-8.204-19.827-8.204
		c-15.474,0.002-28.064,12.589-28.064,28.066l0.029,48.332H257.697L257.697,79.241z M182.335,314.23l-0.289,58.003
		c-0.04,7.986,9.667,11.998,15.289,6.374c1.612-1.608,2.615-3.829,2.625-6.287l0.287-58.073
		C198.531,314.303,184.794,314.319,182.335,314.23z"/>
</g>
</svg>
