<?xml version="1.0" encoding="utf-8"?>
<!-- Generator: Adobe Illustrator 16.0.0, SVG Export Plug-In . SVG Version: 6.00 Build 0)  -->
<!DOCTYPE svg PUBLIC "-//W3C//DTD SVG 1.1//EN" "http://www.w3.org/Graphics/SVG/1.1/DTD/svg11.dtd">
<svg version="1.1" id="Layer_1" xmlns="http://www.w3.org/2000/svg" xmlns:xlink="http://www.w3.org/1999/xlink" x="0px" y="0px"
	 width="384px" height="384px" viewBox="0 0 384 384" enable-background="new 0 0 384 384" xml:space="preserve">
<g>
	<linearGradient id="SVGID_1_" gradientUnits="userSpaceOnUse" x1="56.0952" y1="87.4331" x2="353.5947" y2="368.3838">
		<stop  offset="0" style="stop-color:#4B5763"/>
		<stop  offset="1" style="stop-color:#101E29"/>
	</linearGradient>
	<path fill-rule="evenodd" clip-rule="evenodd" fill="url(#SVGID_1_)" d="M107.384,200.642c-34.852,0-62.983,28.135-62.983,62.984
		c0,34.851,28.131,62.981,62.983,62.981c34.851,0,62.983-28.131,62.983-62.981C170.367,228.776,142.234,200.642,107.384,200.642
		L107.384,200.642z M106.879,306.931c-25.613,0-42.945-17.404-42.945-43.017c0-25.611,18.125-41.865,43.736-43.595
		c24.461,2.018,43.883,17.694,43.883,43.307S132.491,306.931,106.879,306.931L106.879,306.931z M340.055,234.233v83.978
		c0,4.619-5.511,8.396-10.13,8.396c-4.62,0-8.397-3.777-8.397-8.396v-83.978c0-4.619,3.777-8.397,8.397-8.397
		C334.544,225.836,340.055,229.614,340.055,234.233L340.055,234.233z M298.063,234.521v83.978c0,4.619-5.508,8.108-10.127,8.108
		s-8.397-3.777-8.397-8.396v-83.978c0-4.619,3.778-8.397,8.397-8.397S298.063,229.902,298.063,234.521L298.063,234.521z
		 M256.076,234.521v83.978c0,4.619-5.511,8.108-10.126,8.108c-4.622,0-8.401-3.777-8.401-8.396v-83.978
		c0-4.619,3.779-8.397,8.401-8.397C250.565,225.836,256.076,229.902,256.076,234.521L256.076,234.521z M214.084,234.233v83.978
		c0,4.619-5.508,8.396-10.126,8.396c-4.619,0-8.397-3.777-8.397-8.396v-83.978c0-4.619,3.778-8.397,8.397-8.397
		C208.576,225.836,214.084,229.614,214.084,234.233L214.084,234.233z M355.119,183.847c13.857,0,25.191,11.337,25.191,25.191
		v134.367c0,13.857-11.334,25.191-25.191,25.191H27.604c-13.857,0-25.193-11.334-25.193-25.191V209.038
		c0-13.437,10.917-24.772,24.354-25.191c21.414-21.415,50.386-33.592,80.618-33.592c26.033,0,51.227,8.818,71.381,25.195V74.675
		h-67.182c-16.375,0-29.392-13.017-29.392-29.392c0-16.376,13.017-29.392,29.392-29.392H304.73
		c16.379,0,29.396,13.016,29.396,29.392c0,16.375-13.017,29.392-29.396,29.392h-67.182v109.172H355.119L355.119,183.847z
		 M100.538,45.699c0,7.137,3.907,9.01,11.044,9.01H304.73c7.142,0,11.589-2.289,11.589-9.425c0-7.139-4.165-9.714-11.302-9.714
		H111.871C104.732,35.569,100.538,38.56,100.538,45.699L100.538,45.699z M217.869,74.675H198.3v109.172h19.569V74.675
		L217.869,74.675z M359.479,343.693c0,4.619,0.259,4.649-4.36,4.649H27.604c-4.619,0-4.099,0.069-4.099-4.55V209.429
		c0.598-4.22,0.611-8.022,4.082-8.787h2.958c2.519,0,6.059-0.553,7.739-2.232c18.056-19.734,41.937-27.035,68.811-27.035
		c26.872,0,50.468,7.589,68.944,27.324c1.679,1.679,6.373,4.683,8.893,4.683h170.476c4.619,0,4.072,1.326,4.072,5.946V343.693z"/>
</g>
</svg>
