<?xml version="1.0" encoding="utf-8"?>
<!-- Generator: Adobe Illustrator 16.0.0, SVG Export Plug-In . SVG Version: 6.00 Build 0)  -->
<!DOCTYPE svg PUBLIC "-//W3C//DTD SVG 1.1//EN" "http://www.w3.org/Graphics/SVG/1.1/DTD/svg11.dtd">
<svg version="1.1" id="Layer_1" xmlns="http://www.w3.org/2000/svg" xmlns:xlink="http://www.w3.org/1999/xlink" x="0px" y="0px"
	 width="384px" height="384px" viewBox="0 0 384 384" enable-background="new 0 0 384 384" xml:space="preserve">
<g>
	<linearGradient id="SVGID_1_" gradientUnits="userSpaceOnUse" x1="49.8774" y1="84.9023" x2="363.1758" y2="378.3437">
		<stop  offset="0" style="stop-color:#3ABCA8"/>
		<stop  offset="1" style="stop-color:#009383"/>
	</linearGradient>
	<path fill-rule="evenodd" clip-rule="evenodd" fill="url(#SVGID_1_)" d="M372.874,202.057H184.003c-2.319,0-5.103-0.926-6.96-2.782
		c-19.955-21.81-48.26-34.341-77.96-34.341s-58.007,12.531-78.426,34.341c-1.855,1.856-4.176,2.782-6.96,2.782h-2.785
		c-5.104,0-9.281,4.179-9.281,9.284v148.496c0,5.104,4.178,9.277,9.281,9.277h361.962c5.104,0,9.278-4.173,9.278-9.277V211.341
		C382.152,206.235,377.979,202.057,372.874,202.057L372.874,202.057z M99.083,341.274c-38.517,0-69.607-31.094-69.607-69.609
		c0-38.515,31.091-69.608,69.607-69.608c38.515,0,69.606,31.094,69.606,69.608C168.689,310.181,137.598,341.274,99.083,341.274
		L99.083,341.274z M215.094,331.99c0,5.105-4.173,9.284-9.277,9.284c-5.105,0-9.284-4.179-9.284-9.284v-92.81
		c0-5.102,4.179-9.278,9.284-9.278c5.104,0,9.277,4.177,9.277,9.278V331.99L215.094,331.99z M261.502,331.99
		c0,5.105-4.179,9.284-9.284,9.284c-5.104,0-9.277-4.179-9.277-9.284v-92.81c0-5.102,4.173-9.278,9.277-9.278
		c5.105,0,9.284,4.177,9.284,9.278V331.99L261.502,331.99z M307.904,331.99c0,5.105-4.174,9.284-9.278,9.284
		s-9.284-4.179-9.284-9.284v-92.81c0-5.102,4.18-9.278,9.284-9.278s9.278,4.177,9.278,9.278V331.99L307.904,331.99z M354.313,331.99
		c0,5.105-4.18,9.284-9.284,9.284s-9.278-4.179-9.278-9.284v-92.81c0-5.102,4.174-9.278,9.278-9.278s9.284,4.177,9.284,9.278V331.99
		L354.313,331.99z M150.127,271.665c0,28.306-22.737,51.048-51.044,51.048s-51.047-22.742-51.047-51.048s22.74-51.047,51.047-51.047
		S150.127,243.359,150.127,271.665L150.127,271.665z M196.532,183.496V62.843h27.846v120.653H196.532L196.532,183.496z
		 M89.802,30.359c0-7.889,6.032-13.922,13.92-13.922h213.466c7.887,0,13.92,6.033,13.92,13.922c0,7.426-6.033,13.921-13.92,13.921
		H103.722C95.833,44.281,89.802,37.785,89.802,30.359z"/>
</g>
</svg>
