<?xml version="1.0" encoding="utf-8"?>
<!-- Generator: Adobe Illustrator 16.0.0, SVG Export Plug-In . SVG Version: 6.00 Build 0)  -->
<!DOCTYPE svg PUBLIC "-//W3C//DTD SVG 1.1//EN" "http://www.w3.org/Graphics/SVG/1.1/DTD/svg11.dtd">
<svg version="1.1" id="Layer_1" xmlns="http://www.w3.org/2000/svg" xmlns:xlink="http://www.w3.org/1999/xlink" x="0px" y="0px"
	 width="384px" height="384px" viewBox="0 0 384 384" enable-background="new 0 0 384 384" xml:space="preserve">
<linearGradient id="SVGID_1_" gradientUnits="userSpaceOnUse" x1="39.7935" y1="67.8652" x2="364.3727" y2="362.902">
	<stop  offset="0" style="stop-color:#3ABCA8"/>
	<stop  offset="1" style="stop-color:#009383"/>
</linearGradient>
<path fill-rule="evenodd" clip-rule="evenodd" fill="url(#SVGID_1_)" d="M376.641,71.206h-25.433V39.415
	c0.013-3.511-2.823-6.368-6.336-6.38c-0.186-0.001-0.371,0.007-0.556,0.022l-16.589,1.398C287.5,37.782,248.044,47.403,210.8,62.965
	l-18.546,7.712l-18.528-7.687c-37.248-15.565-76.708-25.187-116.94-28.517l-16.595-1.417c-3.499-0.295-6.575,2.302-6.87,5.802
	c-0.016,0.185-0.023,0.371-0.022,0.556v31.792l-25.433,0c-3.511,0-6.358,2.847-6.358,6.358v267.044c0,3.512,2.847,6.357,6.358,6.357
	h368.775c3.512,0,6.359-2.846,6.359-6.357V77.564C383,74.053,380.152,71.206,376.641,71.206L376.641,71.206z M14.224,338.263V83.922
	h19.075v222.536c-0.012,3.313,2.519,6.078,5.818,6.359l17.11,1.463c4.663,0.389,9.325,0.871,13.988,1.443
	c1.558,0.184,3.103,0.432,4.66,0.635c3.084,0.414,6.167,0.826,9.239,1.316c1.831,0.293,3.656,0.635,5.48,0.959
	c2.785,0.49,5.57,0.98,8.342,1.527c1.908,0.381,3.815,0.801,5.723,1.215c2.677,0.572,5.354,1.156,8.018,1.793
	c1.907,0.457,3.846,0.947,5.767,1.436c2.626,0.674,5.246,1.361,7.858,2.086c1.908,0.535,3.815,1.094,5.723,1.654
	c2.594,0.766,5.182,1.563,7.763,2.391c1.891,0.602,3.777,1.219,5.659,1.855c2.601,0.871,5.182,1.787,7.764,2.721
	c1.832,0.637,3.669,1.33,5.487,2.023c0.789,0.297,1.571,0.635,2.353,0.928H14.224L14.224,338.263z M185.895,335.071l-11.725-4.896
	c-37.219-15.594-76.656-25.248-116.87-28.611l-11.286-0.941V46.332l9.702,0.814c38.917,3.216,77.088,12.521,113.119,27.576
	l17.059,7.083V335.071L185.895,335.071z M198.611,335.071V81.805l17.078-7.089c36.025-15.052,74.189-24.354,113.1-27.569
	l9.703-0.814v254.271l-10.447,0.852c-40.238,3.342-79.71,12.939-116.99,28.447L198.611,335.071L198.611,335.071z M370.283,338.249
	h-145.73c0.871-0.336,1.736-0.693,2.606-1.023c1.908-0.73,3.815-1.424,5.768-2.117c2.492-0.902,4.995-1.777,7.509-2.625
	c1.958-0.637,3.93-1.271,5.895-1.908c2.512-0.801,5.035-1.564,7.56-2.314c1.983-0.584,3.974-1.164,5.964-1.709
	c2.544-0.713,5.087-1.381,7.693-2.035c1.972-0.504,3.949-1.006,5.933-1.475c2.646-0.637,5.31-1.209,7.973-1.775
	c1.908-0.412,3.815-0.838,5.761-1.221c2.798-0.553,5.608-1.043,8.412-1.531c1.818-0.318,3.631-0.637,5.455-0.955
	c3.135-0.496,6.276-0.922,9.424-1.342c1.506-0.195,3.013-0.438,4.526-0.635c4.663-0.563,9.349-1.045,14.058-1.443l16.284-1.322
	c3.306-0.271,5.848-3.041,5.836-6.359V83.922h19.075V338.249z"/>
</svg>
