<?xml version="1.0" encoding="utf-8"?>
<!-- Generator: Adobe Illustrator 16.0.0, SVG Export Plug-In . SVG Version: 6.00 Build 0)  -->
<!DOCTYPE svg PUBLIC "-//W3C//DTD SVG 1.1//EN" "http://www.w3.org/Graphics/SVG/1.1/DTD/svg11.dtd">
<svg version="1.1" id="Layer_1" xmlns="http://www.w3.org/2000/svg" xmlns:xlink="http://www.w3.org/1999/xlink" x="0px" y="0px"
	 width="384px" height="384px" viewBox="0 0 384 384" enable-background="new 0 0 384 384" xml:space="preserve">
<g>
	<g>
		<path fill-rule="evenodd" clip-rule="evenodd" fill="#000003" d="M191.839,3.119C87.162,3.119,2.287,87.996,2.287,192.672
			c0,104.678,84.875,189.554,189.552,189.554c17.481,0,31.595-14.11,31.595-31.594c0-8.213-3.055-15.586-8.216-21.166
			c-4.951-5.579-7.897-12.846-7.897-20.957c0-17.48,14.108-31.592,31.593-31.592h37.174c58.129,0,105.306-47.177,105.306-105.307
			C381.393,78.519,296.517,3.119,191.839,3.119L191.839,3.119z M76.001,192.672c-17.481,0-31.591-14.111-31.591-31.592
			c0-17.482,14.11-31.592,31.591-31.592c17.48,0,31.593,14.11,31.593,31.592C107.594,178.562,93.482,192.672,76.001,192.672
			L76.001,192.672z M139.186,108.428c-17.481,0-31.592-14.112-31.592-31.593c0-17.482,14.111-31.593,31.592-31.593
			c17.482,0,31.592,14.111,31.592,31.593C170.778,94.316,156.667,108.428,139.186,108.428L139.186,108.428z M244.494,108.428
			c-17.48,0-31.594-14.112-31.594-31.593c0-17.482,14.113-31.593,31.594-31.593s31.593,14.111,31.593,31.593
			C276.087,94.316,261.975,108.428,244.494,108.428L244.494,108.428z M307.679,192.672c-17.483,0-31.592-14.111-31.592-31.592
			c0-17.482,14.108-31.592,31.592-31.592c17.481,0,31.592,14.11,31.592,31.592C339.271,178.562,325.16,192.672,307.679,192.672z"/>
	</g>
</g>
</svg>
