<?xml version="1.0" encoding="utf-8"?>
<!-- Generator: Adobe Illustrator 16.0.0, SVG Export Plug-In . SVG Version: 6.00 Build 0)  -->
<!DOCTYPE svg PUBLIC "-//W3C//DTD SVG 1.1//EN" "http://www.w3.org/Graphics/SVG/1.1/DTD/svg11.dtd">
<svg version="1.1" id="Layer_1" xmlns="http://www.w3.org/2000/svg" xmlns:xlink="http://www.w3.org/1999/xlink" x="0px" y="0px"
	 width="384px" height="384px" viewBox="0 0 384 384" enable-background="new 0 0 384 384" xml:space="preserve">
<g>
	<linearGradient id="SVGID_1_" gradientUnits="userSpaceOnUse" x1="64.5093" y1="101.335" x2="348.8422" y2="408.1331">
		<stop  offset="0" style="stop-color:#4B5763"/>
		<stop  offset="1" style="stop-color:#101E29"/>
	</linearGradient>
	<path fill-rule="evenodd" clip-rule="evenodd" fill="url(#SVGID_1_)" d="M381.015,258.821c0-55.1-37.124-103.249-89.479-117.753
		C288.243,64.374,224.827,2.982,147.333,2.982C67.735,2.982,2.986,67.738,2.986,147.33c0,25.945,6.904,51.194,20.015,73.372
		l-19.485,70.44l70.444-19.48c20.388,12.055,43.377,18.842,67.106,19.864c14.505,52.359,62.651,89.492,117.76,89.492
		c21.989,0,43.38-5.859,62.173-16.993l59.488,16.461l-16.458-59.488C375.161,302.209,381.015,280.818,381.015,258.821
		L381.015,258.821L381.015,258.821z M169.484,113.734h-0.003c0-12.216-9.932-22.147-22.148-22.147s-22.151,9.931-22.151,22.147
		H103.03c0-24.426,19.871-44.303,44.303-44.303c24.428,0,44.302,19.877,44.302,44.303c0,12.396-5.252,24.318-14.409,32.692
		l-18.82,17.223v17.281h-22.148v-27.034l26.012-23.811C166.92,125.83,169.484,120.025,169.484,113.734L169.484,113.734z
		 M136.257,203.076h22.148v22.149h-22.148V203.076L136.257,203.076z M77.458,247.71l-42.175,11.668l11.669-42.176l-2.658-4.155
		c-12.532-19.607-19.159-42.333-19.159-65.717c0-67.382,54.816-122.192,122.198-122.192c67.381,0,122.196,54.81,122.196,122.192
		c0,67.381-54.814,122.2-122.196,122.2c-23.387,0-46.111-6.63-65.718-19.163L77.458,247.71L77.458,247.71z M348.719,348.716
		l-31.293-8.653l-4.183,2.716c-16.201,10.527-35.018,16.092-54.418,16.092c-43.313,0-81.372-28.007-94.852-68.163
		c66.318-7.644,119.093-60.416,126.743-126.733c40.147,13.484,68.152,51.54,68.152,94.848c0,19.4-5.566,38.218-16.095,54.419
		l-2.716,4.183L348.719,348.716z"/>
</g>
</svg>
