<?xml version="1.0" encoding="utf-8"?>
<!-- Generator: Adobe Illustrator 16.0.0, SVG Export Plug-In . SVG Version: 6.00 Build 0)  -->
<!DOCTYPE svg PUBLIC "-//W3C//DTD SVG 1.1//EN" "http://www.w3.org/Graphics/SVG/1.1/DTD/svg11.dtd">
<svg version="1.1" id="Layer_1" xmlns="http://www.w3.org/2000/svg" xmlns:xlink="http://www.w3.org/1999/xlink" x="0px" y="0px"
	 width="384px" height="384px" viewBox="0 0 384 384" enable-background="new 0 0 384 384" xml:space="preserve">
<g>
	<linearGradient id="SVGID_1_" gradientUnits="userSpaceOnUse" x1="30.3892" y1="149.332" x2="370.6956" y2="245.253">
		<stop  offset="0" style="stop-color:#3ABCA8"/>
		<stop  offset="1" style="stop-color:#009383"/>
	</linearGradient>
	<path fill-rule="evenodd" clip-rule="evenodd" fill="url(#SVGID_1_)" d="M337.289,134.508H47.048
		c-24.892,0-45.141,20.252-45.141,45.141v48.083c0,12.137,9.874,22.01,22.012,22.01h336.498c12.139,0,22.013-9.873,22.013-22.01
		v-48.083C382.43,154.76,362.18,134.508,337.289,134.508L337.289,134.508z M66.988,204.474h-0.416
		c-6.181,0-11.192-5.012-11.192-11.192c0-6.181,5.011-11.192,11.192-11.192h0.416c6.179,0,11.19,5.011,11.19,11.192
		C78.179,199.462,73.167,204.474,66.988,204.474L66.988,204.474z M100.146,204.474h-0.415c-6.18,0-11.192-5.012-11.192-11.192
		c0-6.181,5.013-11.192,11.192-11.192h0.415c6.181,0,11.192,5.011,11.192,11.192C111.338,199.462,106.327,204.474,100.146,204.474
		L100.146,204.474z M133.309,204.474h-0.415c-6.18,0-11.189-5.012-11.189-11.192c0-6.181,5.009-11.192,11.189-11.192h0.415
		c6.18,0,11.192,5.011,11.192,11.192C144.501,199.462,139.488,204.474,133.309,204.474L133.309,204.474z M311.492,204.474h-48.028
		c-6.182,0-11.192-5.012-11.192-11.192c0-6.181,5.011-11.192,11.192-11.192h48.028c6.182,0,11.193,5.011,11.193,11.192
		C322.686,199.462,317.674,204.474,311.492,204.474z"/>
</g>
</svg>
