<?xml version="1.0" encoding="utf-8"?>
<!-- Generator: Adobe Illustrator 16.0.0, SVG Export Plug-In . SVG Version: 6.00 Build 0)  -->
<!DOCTYPE svg PUBLIC "-//W3C//DTD SVG 1.1//EN" "http://www.w3.org/Graphics/SVG/1.1/DTD/svg11.dtd">
<svg version="1.1" id="Layer_1" xmlns="http://www.w3.org/2000/svg" xmlns:xlink="http://www.w3.org/1999/xlink" x="0px" y="0px"
	 width="384px" height="384px" viewBox="0 0 384 384" enable-background="new 0 0 384 384" xml:space="preserve">
<g>
	<linearGradient id="SVGID_1_" gradientUnits="userSpaceOnUse" x1="28.0801" y1="148.4326" x2="369.5569" y2="244.8825">
		<stop  offset="0" style="stop-color:#4B5763"/>
		<stop  offset="1" style="stop-color:#101E29"/>
	</linearGradient>
	<path fill-rule="evenodd" clip-rule="evenodd" fill="url(#SVGID_1_)" d="M337.549,134.329c-0.608,0-114.305,0-290.512,0
		c-24.915,0-45.183,20.268-45.183,45.183v48.129c0,12.146,9.884,22.03,22.033,22.03h336.814c12.147,0,22.034-9.884,22.034-22.03
		v-48.129C382.735,154.597,362.463,134.329,337.549,134.329L337.549,134.329z M363.835,231.987l-344.437,0.284l0.29-52.697
		c0-12.559,14.16-27.478,26.722-27.478h290.512c12.562,0,27.204,14.635,27.204,27.194L363.835,231.987L363.835,231.987z
		 M66.996,181.955c6.187,0,11.202,5.016,11.202,11.203c0,6.188-5.015,11.202-11.202,11.202h-0.417
		c-6.187,0-11.201-5.015-11.201-11.202c0-6.187,5.014-11.203,11.201-11.203H66.996L66.996,181.955z M100.188,181.955
		c6.185,0,11.201,5.016,11.201,11.203c0,6.188-5.016,11.202-11.201,11.202h-0.417c-6.186,0-11.205-5.015-11.205-11.202
		c0-6.187,5.019-11.203,11.205-11.203H100.188L100.188,181.955z M133.377,181.955c6.187,0,11.204,5.016,11.204,11.203
		c0,6.188-5.017,11.202-11.204,11.202h-0.413c-6.186,0-11.202-5.015-11.202-11.202c0-6.187,5.016-11.203,11.202-11.203H133.377
		L133.377,181.955z M311.731,181.955c6.185,0,11.203,5.016,11.203,11.203c0,6.188-5.019,11.202-11.203,11.202h-48.073
		c-6.19,0-11.203-5.015-11.203-11.202c0-6.187,5.013-11.203,11.203-11.203H311.731z"/>
</g>
</svg>
