<?xml version="1.0" encoding="utf-8"?>
<!-- Generator: Adobe Illustrator 16.0.0, SVG Export Plug-In . SVG Version: 6.00 Build 0)  -->
<!DOCTYPE svg PUBLIC "-//W3C//DTD SVG 1.1//EN" "http://www.w3.org/Graphics/SVG/1.1/DTD/svg11.dtd">
<svg version="1.1" id="Layer_1" xmlns="http://www.w3.org/2000/svg" xmlns:xlink="http://www.w3.org/1999/xlink" x="0px" y="0px"
	 width="384px" height="384px" viewBox="0 0 384 384" enable-background="new 0 0 384 384" xml:space="preserve">
<g>
	<linearGradient id="SVGID_1_" gradientUnits="userSpaceOnUse" x1="97.1479" y1="96.7563" x2="285.5525" y2="288.0404">
		<stop  offset="0" style="stop-color:#3ABCA8"/>
		<stop  offset="1" style="stop-color:#009383"/>
	</linearGradient>
	<path fill-rule="evenodd" clip-rule="evenodd" fill="url(#SVGID_1_)" d="M346.235,145.549h-8.062
		c-2.616-8.196-5.92-16.154-9.878-23.802l5.708-5.707c13.843-13.826,13.472-35.983,0.003-49.433l-16.839-16.839
		c-13.441-13.458-35.603-13.849-49.43-0.003l-5.712,5.712c-7.648-3.958-15.607-7.261-23.803-9.88v-8.059
		c0-19.272-15.674-34.951-34.947-34.951h-23.828c-19.272,0-34.947,15.679-34.947,34.951v8.059
		c-8.198,2.619-16.154,5.921-23.802,9.88l-5.708-5.708c-13.801-13.817-35.958-13.495-49.427-0.003L48.722,66.602
		c-13.459,13.448-13.851,35.604-0.005,49.434l5.712,5.711c-3.958,7.648-7.261,15.606-9.88,23.802H36.49
		c-19.271,0-34.951,15.676-34.951,34.947v23.828c0,19.271,15.68,34.947,34.951,34.947h8.059c2.619,8.195,5.921,16.154,9.88,23.8
		l-5.707,5.708c-13.843,13.825-13.472,35.983-0.005,49.434l16.837,16.839c13.445,13.46,35.603,13.849,49.434,0.003l5.711-5.708
		c7.648,3.955,15.604,7.259,23.802,9.878v8.059c0,19.271,15.674,34.951,34.947,34.951h23.828c19.273,0,34.95-15.681,34.95-34.951
		v-8.059c8.192-2.619,16.151-5.923,23.8-9.878l5.706,5.705c13.803,13.818,35.961,13.496,49.433,0.003l16.839-16.842
		c13.463-13.444,13.849-35.6,0.006-49.427l-5.714-5.715c3.958-7.646,7.262-15.604,9.878-23.8h8.062
		c19.271,0,34.951-15.68,34.951-34.95v-23.825C381.187,161.225,365.506,145.549,346.235,145.549L346.235,145.549z M191.361,275.014
		c-45.547,0-82.604-37.058-82.604-82.603c0-45.549,37.057-82.604,82.604-82.604c45.55,0,82.607,37.055,82.607,82.604
		C273.969,237.956,236.911,275.014,191.361,275.014z"/>
</g>
</svg>
