<?xml version="1.0" encoding="utf-8"?>
<!-- Generator: Adobe Illustrator 16.0.0, SVG Export Plug-In . SVG Version: 6.00 Build 0)  -->
<!DOCTYPE svg PUBLIC "-//W3C//DTD SVG 1.1//EN" "http://www.w3.org/Graphics/SVG/1.1/DTD/svg11.dtd">
<svg version="1.1" id="Layer_1" xmlns="http://www.w3.org/2000/svg" xmlns:xlink="http://www.w3.org/1999/xlink" x="0px" y="0px"
	 width="384px" height="384px" viewBox="0 0 384 384" enable-background="new 0 0 384 384" xml:space="preserve">
<g>
	<path fill-rule="evenodd" clip-rule="evenodd" fill="#D1D3D4" d="M203.249,382.196h-23.772c-19.229,0-34.871-15.642-34.871-34.87
		v-8.041c-8.174-2.609-16.114-5.906-23.745-9.855l-5.699,5.698c-13.805,13.823-35.918,13.417-49.319-0.006l-16.803-16.797
		c-13.424-13.414-13.808-35.518,0.009-49.319l5.695-5.695c-3.95-7.628-7.246-15.569-9.857-23.745h-8.042
		c-19.227,0-34.871-15.642-34.871-34.867v-23.775c0-19.227,15.644-34.866,34.871-34.866h8.042
		c2.611-8.177,5.907-16.117,9.857-23.748l-5.7-5.699c-13.809-13.792-13.429-35.898,0.005-49.318l16.803-16.8
		c13.432-13.456,35.541-13.79,49.315,0.004l5.694,5.694c7.631-3.95,15.57-7.244,23.748-9.857v-8.04
		c0-19.228,15.638-34.871,34.868-34.871h23.772c19.229,0,34.867,15.643,34.867,34.871v8.04c8.179,2.613,16.117,5.908,23.748,9.857
		l5.698-5.699c13.805-13.821,35.915-13.417,49.319,0.004l16.8,16.799c13.426,13.414,13.812,35.518-0.006,49.32l-5.695,5.694
		c3.949,7.631,7.246,15.57,9.855,23.748h8.044c19.226,0,34.87,15.64,34.87,34.866v23.775c0,19.226-15.645,34.867-34.87,34.867
		h-8.044c-2.609,8.176-5.906,16.117-9.855,23.745l5.701,5.698c13.809,13.796,13.426,35.902-0.006,49.322l-16.803,16.8
		c-13.432,13.453-35.539,13.79-49.313-0.009l-5.695-5.689c-7.631,3.946-15.569,7.243-23.748,9.855v8.044
		C238.116,366.555,222.479,382.196,203.249,382.196L203.249,382.196z M191.363,275.225c45.444,0,82.416-36.972,82.416-82.414
		s-36.972-82.414-82.416-82.414s-82.414,36.972-82.414,82.414S145.919,275.225,191.363,275.225L191.363,275.225z M191.363,132.591
		c-33.206,0-60.221,27.014-60.221,60.22s27.016,60.223,60.221,60.223c33.205,0,60.221-27.017,60.221-60.223
		S224.567,132.591,191.363,132.591L191.363,132.591z M124.573,306.128c10.596,6.261,22.005,10.999,33.904,14.069
		c4.9,1.271,8.326,5.687,8.326,10.747v16.382c0,6.989,5.687,12.679,12.673,12.679h23.772c6.989,0,12.679-5.689,12.679-12.679
		v-16.382c0-5.061,3.42-9.477,8.32-10.747c11.899-3.07,23.309-7.809,33.907-14.069c4.358-2.583,9.913-1.882,13.495,1.7
		l11.604,11.604c5.006,5.016,13.04,4.901,17.923,0.01l16.815-16.815c4.867-4.861,5.029-12.899,0-17.92L306.385,273.1
		c-3.582-3.585-4.283-9.14-1.706-13.498c6.267-10.596,11.002-22.008,14.072-33.904c1.268-4.903,5.687-8.323,10.747-8.323h16.382
		c6.989,0,12.676-5.689,12.676-12.676v-23.775c0-6.985-5.687-12.672-12.676-12.672h-16.382c-5.061,0-9.479-3.425-10.747-8.323
		c-3.07-11.902-7.806-23.307-14.072-33.907c-2.577-4.362-1.876-9.914,1.706-13.495l11.608-11.609c5.015-5.007,4.882-13.042,0-17.92
		l-16.81-16.812c-4.874-4.881-12.911-5.024-17.92-0.003l-11.613,11.61c-3.579,3.583-9.137,4.284-13.495,1.707
		c-10.599-6.269-22.008-11.005-33.907-14.078c-4.9-1.263-8.32-5.682-8.32-10.745V38.294c0-6.99-5.689-12.678-12.679-12.678H179.48
		c-6.99,0-12.676,5.688-12.676,12.678v16.383c0,5.06-3.426,9.479-8.326,10.745c-11.899,3.072-23.305,7.809-33.904,14.073
		c-4.362,2.577-9.914,1.875-13.498-1.703L99.471,66.185c-5.006-5.012-13.041-4.896-17.921-0.007L64.739,82.994
		c-4.871,4.863-5.033,12.896-0.007,17.92l11.613,11.609c3.578,3.584,4.279,9.136,1.703,13.498
		c-6.265,10.596-11,22.005-14.073,33.903c-1.267,4.902-5.686,8.323-10.743,8.323H36.846c-6.99,0.004-12.676,5.687-12.676,12.676
		v23.775c0,6.986,5.687,12.67,12.676,12.67h16.385c5.057,0,9.476,3.426,10.743,8.329c3.074,11.896,7.809,23.309,14.073,33.904
		c2.577,4.358,1.875,9.913-1.703,13.498l-11.61,11.602c-5.017,5.015-4.884,13.049-0.003,17.923l16.811,16.809
		c4.874,4.883,12.911,5.027,17.924,0.006l11.609-11.61C113.715,305.188,119.206,302.952,124.573,306.128z"/>
</g>
</svg>
