<?xml version="1.0" encoding="utf-8"?>
<!-- Generator: Adobe Illustrator 16.0.0, SVG Export Plug-In . SVG Version: 6.00 Build 0)  -->
<!DOCTYPE svg PUBLIC "-//W3C//DTD SVG 1.1//EN" "http://www.w3.org/Graphics/SVG/1.1/DTD/svg11.dtd">
<svg version="1.1" id="Layer_1" xmlns="http://www.w3.org/2000/svg" xmlns:xlink="http://www.w3.org/1999/xlink" x="0px" y="0px"
	 width="384px" height="384px" viewBox="0 0 384 384" enable-background="new 0 0 384 384" xml:space="preserve">
<g>
	<linearGradient id="SVGID_1_" gradientUnits="userSpaceOnUse" x1="97.1475" y1="96.7563" x2="285.5534" y2="288.0419">
		<stop  offset="0" style="stop-color:#4B5763"/>
		<stop  offset="1" style="stop-color:#101E29"/>
	</linearGradient>
	<path fill-rule="evenodd" clip-rule="evenodd" fill="url(#SVGID_1_)" d="M346.236,145.55h-8.062
		c-2.616-8.196-5.92-16.154-9.879-23.803l5.709-5.707c13.843-13.826,13.472-35.983,0.003-49.433l-16.839-16.839
		c-13.441-13.458-35.603-13.849-49.431-0.003l-5.711,5.71c-7.649-3.959-15.608-7.259-23.803-9.879v-8.059
		c0-19.272-15.675-34.953-34.948-34.953h-23.828c-19.272,0-34.947,15.68-34.947,34.953v8.059c-8.198,2.62-16.154,5.92-23.803,9.879
		l-5.708-5.708c-13.801-13.817-35.959-13.494-49.428-0.003L48.721,66.603c-13.459,13.448-13.85,35.604-0.004,49.434l5.711,5.711
		c-3.958,7.648-7.261,15.606-9.879,23.803h-8.059c-19.271,0-34.951,15.674-34.951,34.947v23.828
		c0,19.271,15.68,34.948,34.951,34.948h8.059c2.619,8.194,5.921,16.153,9.879,23.799l-5.707,5.709
		c-13.843,13.825-13.471,35.983-0.004,49.434l16.837,16.838c13.444,13.46,35.603,13.85,49.434,0.004l5.711-5.712
		c7.649,3.959,15.605,7.263,23.803,9.882v8.056c0,19.274,15.674,34.951,34.947,34.951h23.828c19.273,0,34.951-15.677,34.951-34.951
		v-8.056c8.191-2.619,16.15-5.923,23.8-9.882l5.704,5.708c13.804,13.819,35.963,13.496,49.435,0.004l16.839-16.842
		c13.463-13.444,13.849-35.601,0.006-49.428l-5.715-5.715c3.959-7.646,7.263-15.604,9.879-23.799h8.062
		c19.271,0,34.951-15.681,34.951-34.951v-23.825C381.188,161.225,365.508,145.55,346.236,145.55L346.236,145.55z M191.361,275.015
		c-45.547,0-82.604-37.058-82.604-82.603c0-45.549,37.057-82.604,82.604-82.604c45.55,0,82.607,37.056,82.607,82.604
		C273.969,237.957,236.911,275.015,191.361,275.015z"/>
</g>
</svg>
