<?xml version="1.0" encoding="utf-8"?>
<!-- Generator: Adobe Illustrator 16.0.0, SVG Export Plug-In . SVG Version: 6.00 Build 0)  -->
<!DOCTYPE svg PUBLIC "-//W3C//DTD SVG 1.1//EN" "http://www.w3.org/Graphics/SVG/1.1/DTD/svg11.dtd">
<svg version="1.1" id="Layer_1" xmlns="http://www.w3.org/2000/svg" xmlns:xlink="http://www.w3.org/1999/xlink" x="0px" y="0px"
	 width="384px" height="384px" viewBox="0 0 384 384" enable-background="new 0 0 384 384" xml:space="preserve">
<g>
	<linearGradient id="SVGID_1_" gradientUnits="userSpaceOnUse" x1="95.9966" y1="97.9448" x2="287.5177" y2="287.8132">
		<stop  offset="0" style="stop-color:#4B5763"/>
		<stop  offset="0.0341" style="stop-color:#495560"/>
		<stop  offset="0.475" style="stop-color:#2B3742"/>
		<stop  offset="0.8109" style="stop-color:#182530"/>
		<stop  offset="1" style="stop-color:#101E29"/>
	</linearGradient>
	<path fill-rule="evenodd" clip-rule="evenodd" fill="url(#SVGID_1_)" d="M203.664,383.62h-23.952
		c-19.373,0-35.133-15.759-35.133-35.133v-8.101c-8.236-2.63-16.233-5.95-23.922-9.93l-5.741,5.741
		c-13.909,13.927-36.188,13.518-49.69-0.006l-16.929-16.924c-13.527-13.515-13.914-35.784,0.009-49.69l5.737-5.738
		c-3.979-7.685-7.298-15.686-9.931-23.923h-8.101c-19.371,0-35.133-15.759-35.133-35.13v-23.953
		c0-19.371,15.762-35.128,35.133-35.128h8.101c2.633-8.239,5.952-16.238,9.931-23.926l-5.741-5.741
		C34.388,102.142,34.77,79.87,48.306,66.349l16.93-16.926c13.533-13.557,35.806-13.894,49.685,0.004l5.738,5.737
		c7.688-3.979,15.686-7.299,23.926-9.931v-8.101C144.584,17.76,160.34,2,179.712,2h23.952c19.374,0,35.13,15.76,35.13,35.133v8.101
		c8.237,2.632,16.238,5.952,23.926,9.931l5.741-5.741c13.909-13.925,36.183-13.518,49.688,0.004l16.927,16.925
		c13.529,13.515,13.918,35.785-0.003,49.691l-5.738,5.736c3.979,7.688,7.3,15.688,9.93,23.926h8.104
		c19.371,0,35.133,15.757,35.133,35.128v23.953c0,19.371-15.762,35.13-35.133,35.13h-8.104c-2.63,8.237-5.95,16.238-9.93,23.923
		l5.741,5.741c13.912,13.899,13.529,36.173-0.003,49.693l-16.93,16.927c-13.532,13.554-35.809,13.894-49.688-0.009l-5.735-5.732
		c-7.688,3.977-15.688,7.297-23.926,9.93v8.104C238.794,367.861,223.038,383.62,203.664,383.62L203.664,383.62z M191.688,275.844
		c45.787,0,83.037-37.249,83.037-83.033s-37.25-83.034-83.037-83.034c-45.784,0-83.034,37.25-83.034,83.034
		S145.903,275.844,191.688,275.844L191.688,275.844z M191.688,132.138c-33.456,0-60.672,27.217-60.672,60.672
		c0,33.455,27.217,60.676,60.672,60.676c33.455,0,60.673-27.221,60.673-60.676C252.36,159.355,225.143,132.138,191.688,132.138
		L191.688,132.138z M124.397,306.979c10.674,6.309,22.17,11.082,34.158,14.176c4.938,1.28,8.39,5.729,8.39,10.827v16.505
		c0,7.042,5.729,12.774,12.767,12.774h23.952c7.043,0,12.771-5.732,12.771-12.774v-16.505c0-5.098,3.448-9.547,8.386-10.827
		c11.989-3.094,23.483-7.867,34.162-14.176c4.392-2.603,9.984-1.896,13.597,1.714l11.691,11.691
		c5.041,5.053,13.139,4.938,18.055,0.009l16.941-16.941c4.907-4.897,5.071-12.995,0.003-18.055l-11.694-11.694
		c-3.609-3.612-4.315-9.208-1.72-13.6c6.314-10.676,11.085-22.173,14.179-34.159c1.273-4.94,5.727-8.386,10.824-8.386h16.508
		c7.043,0,12.771-5.732,12.771-12.771v-23.953c0-7.038-5.729-12.767-12.771-12.767h-16.508c-5.098,0-9.551-3.451-10.824-8.386
		c-3.094-11.992-7.864-23.482-14.179-34.162c-2.596-4.395-1.89-9.989,1.72-13.597l11.691-11.696
		c5.056-5.045,4.923-13.14,0.003-18.055l-16.936-16.937c-4.91-4.919-13.008-5.063-18.058-0.005L272.58,76.928
		c-3.606,3.609-9.205,4.316-13.597,1.72c-10.679-6.316-22.173-11.088-34.162-14.183c-4.938-1.272-8.386-5.725-8.386-10.826V37.132
		c0-7.042-5.729-12.773-12.771-12.773h-23.947c-7.042,0-12.771,5.73-12.771,12.773v16.506c0,5.098-3.453,9.55-8.39,10.826
		c-11.988,3.095-23.479,7.867-34.158,14.179c-4.395,2.596-9.99,1.889-13.6-1.715L99.105,65.235
		c-5.042-5.051-13.137-4.935-18.056-0.009L64.112,82.168c-4.907,4.9-5.07,12.993-0.008,18.055l11.701,11.696
		c3.606,3.611,4.313,9.205,1.717,13.6c-6.312,10.675-11.083,22.17-14.179,34.158c-1.277,4.939-5.729,8.386-10.826,8.386H36.011
		c-7.042,0.004-12.773,5.729-12.773,12.771v23.953c0,7.039,5.73,12.766,12.773,12.766h16.506c5.097,0,9.549,3.451,10.826,8.392
		c3.095,11.986,7.867,23.483,14.179,34.159c2.596,4.392,1.89,9.987-1.717,13.6l-11.696,11.688
		c-5.054,5.053-4.922,13.147-0.004,18.058l16.938,16.936c4.91,4.919,13.008,5.064,18.058,0.006l11.698-11.697
		C113.458,306.033,118.99,303.78,124.397,306.979z"/>
</g>
</svg>
