<?xml version="1.0" encoding="utf-8"?>
<!-- Generator: Adobe Illustrator 16.0.0, SVG Export Plug-In . SVG Version: 6.00 Build 0)  -->
<!DOCTYPE svg PUBLIC "-//W3C//DTD SVG 1.1//EN" "http://www.w3.org/Graphics/SVG/1.1/DTD/svg11.dtd">
<svg version="1.1" id="Layer_1" xmlns="http://www.w3.org/2000/svg" xmlns:xlink="http://www.w3.org/1999/xlink" x="0px" y="0px"
	 width="384px" height="384px" viewBox="0 0 384 384" enable-background="new 0 0 384 384" xml:space="preserve">
<linearGradient id="SVGID_1_" gradientUnits="userSpaceOnUse" x1="97.2402" y1="97.7437" x2="286.8523" y2="287.9282">
	<stop  offset="0" style="stop-color:#4B5763"/>
	<stop  offset="1" style="stop-color:#101E29"/>
</linearGradient>
<path fill-rule="evenodd" clip-rule="evenodd" fill="url(#SVGID_1_)" d="M203.978,382.785h-23.84
	c-19.279,0-34.972-15.687-34.972-34.969v-8.066c-8.2-2.617-16.161-5.927-23.814-9.884l-5.715,5.714
	c-13.848,13.861-36.019,13.456-49.46-0.006l-16.852-16.848c-13.465-13.451-13.851-35.619,0.006-49.461l5.709-5.712
	c-3.958-7.653-7.264-15.616-9.887-23.813h-8.061c-19.285,0-34.972-15.689-34.972-34.972v-23.841
	c0-19.282,15.687-34.969,34.972-34.969h8.067c2.617-8.199,5.923-16.164,9.884-23.817l-5.718-5.714
	c-13.848-13.833-13.465-36.004,0.006-49.46l16.852-16.852c13.471-13.492,35.642-13.827,49.457,0.006l5.712,5.709
	c7.653-3.958,15.621-7.264,23.814-9.884v-8.063c0-19.282,15.692-34.972,34.972-34.972h23.844c19.278,0,34.966,15.689,34.966,34.969
	v8.066c8.2,2.621,16.163,5.926,23.817,9.887l5.715-5.718c13.844-13.86,36.019-13.456,49.462,0.006l16.852,16.849
	c13.465,13.449,13.852,35.618-0.006,49.459l-5.712,5.712c3.962,7.653,7.264,15.618,9.885,23.817h8.066
	c19.278,0,34.972,15.687,34.972,34.969v23.841c0,19.282-15.693,34.972-34.972,34.972h-8.066c-2.621,8.197-5.93,16.16-9.885,23.813
	l5.718,5.716c13.846,13.836,13.465,36.003-0.006,49.462l-16.852,16.853c-13.47,13.488-35.642,13.826-49.46-0.007l-5.711-5.711
	c-7.654,3.961-15.617,7.267-23.817,9.884v8.066C238.947,367.099,223.26,382.785,203.978,382.785L203.978,382.785z M192.063,275.5
	c45.575,0,82.648-37.075,82.648-82.65c0-45.575-37.073-82.653-82.648-82.653c-45.581,0-82.66,37.079-82.66,82.653
	C109.403,238.425,146.482,275.5,192.063,275.5L192.063,275.5z M192.063,132.455c-33.306,0-60.398,27.092-60.398,60.395
	c0,33.3,27.092,60.395,60.398,60.395c33.299,0,60.391-27.095,60.391-60.395C252.454,159.547,225.362,132.455,192.063,132.455
	L192.063,132.455z M125.072,306.492c10.632,6.286,22.075,11.035,34.005,14.114c4.915,1.268,8.351,5.703,8.351,10.777v16.433
	c0,7.01,5.702,12.71,12.709,12.71h23.844c7.01,0,12.71-5.7,12.71-12.71v-16.433c0-5.074,3.436-9.51,8.35-10.777
	c11.932-3.079,23.374-7.828,34.001-14.114c4.377-2.587,9.944-1.884,13.537,1.709l11.641,11.642
	c5.018,5.023,13.078,4.909,17.972,0.006l16.861-16.863c4.885-4.876,5.048-12.937,0.006-17.973l-11.645-11.644
	c-3.592-3.593-4.295-9.162-1.712-13.535c6.286-10.629,11.037-22.071,14.117-34.006c1.268-4.914,5.7-8.347,10.774-8.347h16.433
	c7.01,0,12.713-5.703,12.713-12.713v-23.841c0-7.01-5.703-12.71-12.713-12.71h-16.433c-5.074,0-9.507-3.436-10.774-8.347
	c-3.08-11.934-7.831-23.376-14.117-34.006c-2.583-4.371-1.88-9.941,1.712-13.534l11.639-11.641
	c5.036-5.023,4.902-13.082,0.006-17.972L302.2,65.857c-4.89-4.894-12.95-5.036-17.975-0.006l-11.646,11.647
	c-3.593,3.592-9.16,4.296-13.537,1.709c-10.627-6.286-22.069-11.035-34.001-14.117c-4.914-1.268-8.35-5.7-8.35-10.775V37.883
	c0-7.01-5.7-12.713-12.71-12.713h-23.844c-7.007,0-12.709,5.703-12.709,12.71v16.432c0,5.078-3.436,9.51-8.351,10.778
	c-11.931,3.08-23.373,7.828-34.002,14.117c-4.375,2.584-9.942,1.881-13.534-1.711L99.899,65.854
	c-5.018-5.024-13.078-4.906-17.972-0.003L65.066,82.711c-4.885,4.876-5.047,12.937-0.006,17.972l11.645,11.644
	c3.596,3.596,4.296,9.163,1.712,13.534c-6.285,10.63-11.038,22.072-14.117,34.006c-1.268,4.915-5.7,8.348-10.774,8.348H37.093
	c-7.01,0-12.713,5.703-12.713,12.713v23.841c0,7.01,5.703,12.713,12.713,12.713h16.432c5.075,0,9.507,3.433,10.774,8.347
	c3.08,11.935,7.832,23.377,14.117,34.004c2.584,4.375,1.877,9.944-1.712,13.533l-11.641,11.642
	c-5.032,5.026-4.9,13.084-0.003,17.972l16.861,16.864c4.888,4.891,12.949,5.036,17.972,0.003l11.644-11.645
	C114.186,305.554,119.692,303.308,125.072,306.492L125.072,306.492z"/>
</svg>
