<?xml version="1.0" encoding="utf-8"?>
<!-- Generator: Adobe Illustrator 16.0.0, SVG Export Plug-In . SVG Version: 6.00 Build 0)  -->
<!DOCTYPE svg PUBLIC "-//W3C//DTD SVG 1.1//EN" "http://www.w3.org/Graphics/SVG/1.1/DTD/svg11.dtd">
<svg version="1.1" id="Layer_1" xmlns="http://www.w3.org/2000/svg" xmlns:xlink="http://www.w3.org/1999/xlink" x="0px" y="0px"
	 width="384px" height="384px" viewBox="0 0 384 384" enable-background="new 0 0 384 384" xml:space="preserve">
<linearGradient id="SVGID_1_" gradientUnits="userSpaceOnUse" x1="153.6387" y1="101.1079" x2="380.7916" y2="271.213">
	<stop  offset="0" style="stop-color:#4B5763"/>
	<stop  offset="1" style="stop-color:#101E29"/>
</linearGradient>
<path fill-rule="evenodd" clip-rule="evenodd" fill="url(#SVGID_1_)" d="M77.096,125.745c-36.749,0-66.571,29.823-66.571,66.572
	c0,36.747,29.823,66.572,66.571,66.572c20.504,0,38.878-9.323,51.036-23.967l116.015,62.398c-1.864,6.126-2.841,12.516-2.841,19.176
	c0,36.745,29.821,66.571,66.57,66.571s66.572-29.826,66.572-66.571c0-36.749-29.823-66.572-66.572-66.572
	c-20.502,0-38.878,9.319-51.038,23.964l-116.009-62.398c1.862-6.127,2.838-12.516,2.838-19.172s-0.977-13.137-2.838-19.172
	l116.009-62.402c12.249,14.645,30.536,23.967,51.038,23.967c36.749,0,66.572-29.826,66.572-66.572
	c0-36.75-29.823-66.66-66.572-66.66s-66.57,29.823-66.57,66.569c0,6.659,0.977,13.137,2.838,19.175l-116.012,62.487
	C115.974,135.065,97.6,125.745,77.096,125.745L77.096,125.745z M77.096,232.259c-22.016,0-39.945-17.932-39.945-39.942
	c0-22.014,17.929-39.946,39.945-39.946c22.011,0,39.94,17.932,39.94,39.946C117.036,214.327,99.106,232.259,77.096,232.259
	L77.096,232.259z M307.876,276.642c22.015,0,39.943,17.929,39.943,39.942c0,22.013-17.929,39.942-39.943,39.942
	c-22.013,0-39.941-17.93-39.941-39.942C267.935,294.57,285.863,276.642,307.876,276.642L307.876,276.642z M307.876,28.108
	c22.015,0,39.943,17.928,39.943,39.939c0,22.017-17.929,39.945-39.943,39.945c-22.013,0-39.941-17.928-39.941-39.945
	C267.935,46.036,285.863,28.108,307.876,28.108z"/>
</svg>
