<?xml version="1.0" encoding="utf-8"?>
<!-- Generator: Adobe Illustrator 16.0.0, SVG Export Plug-In . SVG Version: 6.00 Build 0)  -->
<!DOCTYPE svg PUBLIC "-//W3C//DTD SVG 1.1//EN" "http://www.w3.org/Graphics/SVG/1.1/DTD/svg11.dtd">
<svg version="1.1" id="Layer_1" xmlns="http://www.w3.org/2000/svg" xmlns:xlink="http://www.w3.org/1999/xlink" x="0px" y="0px"
	 width="384px" height="384px" viewBox="0 0 384 384" enable-background="new 0 0 384 384" xml:space="preserve">
<linearGradient id="SVGID_1_" gradientUnits="userSpaceOnUse" x1="34.7549" y1="51.937" x2="286.851" y2="256.0104">
	<stop  offset="0" style="stop-color:#3ABCA8"/>
	<stop  offset="1" style="stop-color:#009383"/>
</linearGradient>
<path fill-rule="evenodd" clip-rule="evenodd" fill="url(#SVGID_1_)" d="M355.432,145.401h20.88c3.082,0,5.579-2.498,5.579-5.58
	c0-3.083-2.497-5.58-5.579-5.58h-10.255l14.004-20.307c1.178-1.707,1.312-3.926,0.349-5.761c-0.965-1.836-2.867-2.986-4.941-2.986
	l-19.51,0c-3.083,0-5.58,2.497-5.58,5.579c0,3.083,2.497,5.58,5.58,5.58h8.884l-14.005,20.307
	C348.287,140.35,350.943,145.401,355.432,145.401L355.432,145.401z M256.185,335.469c-22.604,0-43.854-8.802-59.837-24.785
	c-12.177-12.177-20.185-27.412-23.308-43.973c-39.505-0.06-93.843-6.695-120.378-18.349c-5.475-2.404-12.026-1.139-16.31,3.146
	l-1.778,1.778c-7.67,7.669-20.15,7.669-27.821,0c-7.67-7.67-7.67-20.15,0-27.821l4.638-4.639c3.741-3.738,5.206-9.235,3.824-14.342
	c-7.013-25.938-6.401-62.81,1.486-89.666c1.54-5.24,0.114-10.877-3.72-14.71l-6.229-6.228c-7.669-7.671-7.669-20.152,0-27.822
	c7.67-7.669,20.15-7.669,27.821,0l2.703,2.704c4.407,4.409,11.141,5.592,16.754,2.941c3.052-1.173,6.939-2.446,10.635-3.832
	c44.165-14.797,147.569-16.792,185.655,1.837c5.716,2.797,12.563,1.669,17.038-2.805c0.336-0.232,5.651-6.767,15.104-6.602
	c5.386,0.096,10.377,2.323,14.055,6.271c7.25,7.786,6.929,19.885-0.732,27.547l-5.707,5.706c-3.767,3.766-5.223,9.297-3.799,14.432
	c3.735,13.48,7.776,49.219,4.571,57.344c9.258,4.16,17.777,10.015,25.169,17.406c15.983,15.983,24.786,37.233,24.786,59.837
	s-8.803,43.854-24.786,59.837S278.788,335.469,256.185,335.469L256.185,335.469z M171.832,257.639
	c-0.178-2.248-0.269-4.513-0.269-6.792c0-22.604,8.802-43.854,24.785-59.837c15.983-15.983,37.233-24.785,59.837-24.785
	c8.594,0,16.992,1.274,24.979,3.729c-1.829-11.988-2.624-39.845-5.636-50.715c-2.496-9.003,0.058-18.699,6.662-25.304l5.706-5.706
	c3.335-3.334,3.541-8.74,0.458-12.051c-1.596-1.71-3.756-2.676-6.086-2.718c-4.396-0.123-6.586,3.021-7.015,3.333
	c-7.847,7.847-19.838,9.83-29.835,4.94c-17.756-8.686-43.792-14.223-73.312-15.592c-28.605-1.333-79.615,5.888-103.783,13.214
	c-3.412,1.28-6.569,3.046-9.531,4.443c-9.863,4.651-21.678,2.585-29.408-5.143l-2.704-2.704c-3.318-3.32-8.72-3.32-12.039,0
	c-3.319,3.319-3.319,8.72,0,12.04l6.228,6.227c6.721,6.721,9.227,16.586,6.536,25.746c-7.366,25.079-7.951,59.46-1.421,83.608
	c2.421,8.954-0.149,18.59-6.706,25.147l-4.638,4.638c-3.32,3.319-3.32,8.721,0,12.039c3.318,3.321,8.72,3.321,12.039,0l1.778-1.777
	c7.511-7.51,19.04-9.708,28.688-5.472C85.087,250.419,130.305,254.254,171.832,257.639L171.832,257.639z M291.188,255.805v-9.916
	h-30.045v-30.045h-9.917v39.961H291.188L291.188,255.805z M206.867,208.549l9.355,9.356l7.011-7.012l-9.355-9.355L206.867,208.549
	L206.867,208.549z M191.408,245.889v9.916h13.232v-9.916H191.408L191.408,245.889z M206.857,293.137l7.012,7.011l9.354-9.356
	l-7.01-7.011L206.857,293.137L206.857,293.137z M251.227,302.391v13.232h9.917v-13.232H251.227L251.227,302.391z M289.101,290.801
	l9.355,9.355l7.011-7.011l-9.356-9.356L289.101,290.801L289.101,290.801z M307.729,245.889v9.916h13.233v-9.916H307.729
	L307.729,245.889z M289.109,210.902l7.011,7.012l9.355-9.356l-7.012-7.011L289.109,210.902L289.109,210.902z M251.227,186.07v13.232
	h9.917V186.07H251.227L251.227,186.07z M256.185,176.142c-19.954,0-38.714,7.771-52.825,21.881
	c-14.109,14.11-21.88,32.87-21.88,52.824c0,19.955,7.771,38.715,21.88,52.825c14.111,14.109,32.871,21.88,52.825,21.88
	c19.955,0,38.715-7.771,52.825-21.88c14.109-14.11,21.88-32.87,21.88-52.825c0-19.954-7.771-38.714-21.88-52.824
	C294.899,183.912,276.14,176.142,256.185,176.142L256.185,176.142z M320.224,162.703h15.675c3.082,0,5.579-2.498,5.579-5.58
	s-2.497-5.58-5.579-5.58h-5.05l9.009-13.065c1.178-1.707,1.312-3.926,0.348-5.761c-0.964-1.836-2.867-2.986-4.94-2.986h-14.646
	c-3.083,0-5.579,2.498-5.579,5.58c0,3.083,2.496,5.58,5.579,5.58l4.021,0l-9.01,13.065
	C313.079,157.651,315.734,162.703,320.224,162.703L320.224,162.703z"/>
</svg>
