<?xml version="1.0" encoding="utf-8"?>
<!-- Generator: Adobe Illustrator 16.0.0, SVG Export Plug-In . SVG Version: 6.00 Build 0)  -->
<!DOCTYPE svg PUBLIC "-//W3C//DTD SVG 1.1//EN" "http://www.w3.org/Graphics/SVG/1.1/DTD/svg11.dtd">
<svg version="1.1" id="Layer_1" xmlns="http://www.w3.org/2000/svg" xmlns:xlink="http://www.w3.org/1999/xlink" x="0px" y="0px"
	 width="384px" height="384px" viewBox="0 0 384 384" enable-background="new 0 0 384 384" xml:space="preserve">
<linearGradient id="SVGID_1_" gradientUnits="userSpaceOnUse" x1="33.8608" y1="84.3062" x2="316.4585" y2="336.8284">
	<stop  offset="0" style="stop-color:#4B5763"/>
	<stop  offset="1" style="stop-color:#101E29"/>
</linearGradient>
<path fill-rule="evenodd" clip-rule="evenodd" fill="url(#SVGID_1_)" d="M321.479,228.571c-8.267-8.614-18.238-13.214-28.814-13.214
	c-10.479,0-20.534,4.517-29.15,13.129l-26.928,26.849c-2.22-1.193-4.434-2.308-6.566-3.406c-3.068-1.535-5.966-2.988-8.439-4.525
	c-25.229-16.019-48.16-36.903-70.148-63.924c-10.656-13.47-17.813-24.807-23.012-36.312c6.984-6.393,13.462-13.04,19.77-19.439
	c2.389-2.381,4.777-4.848,7.161-7.245c17.902-17.894,17.902-41.076,0-58.978l-23.267-23.271c-2.643-2.636-5.37-5.37-7.929-8.091
	c-5.113-5.286-10.484-10.741-16.022-15.858C99.862,6.102,89.974,1.754,79.578,1.754s-20.46,4.348-28.982,12.531
	c-0.083,0.085-0.083,0.085-0.168,0.17L21.445,43.689c-10.91,10.91-17.132,24.21-18.496,39.638
	c-2.048,24.888,5.283,48.067,10.907,63.249c13.813,37.241,34.44,71.763,65.208,108.759c37.332,44.577,82.257,79.774,133.565,104.584
	c19.606,9.288,45.775,20.285,75.01,22.157c1.792,0.085,3.666,0.171,5.371,0.171c19.688,0,36.226-7.071,49.182-21.133
	c0.087-0.173,0.254-0.26,0.338-0.427c4.433-5.372,9.551-10.229,14.919-15.43c3.668-3.496,7.414-7.161,11.083-10.994
	c8.437-8.783,12.869-19.009,12.869-29.491c0-10.569-4.52-20.718-13.127-29.234L321.479,228.571L321.479,228.571z M351.994,318.32
	C351.91,318.32,351.91,318.406,351.994,318.32c-3.325,3.582-6.733,6.823-10.401,10.402c-5.539,5.287-11.162,10.826-16.449,17.043
	c-8.606,9.207-18.752,13.56-32.049,13.56c-1.281,0-2.641,0-3.919-0.083c-25.318-1.623-48.842-11.517-66.487-19.948
	c-48.246-23.355-90.604-56.509-125.808-98.535c-29.066-35.035-48.501-67.422-61.371-102.204
	C27.584,117.333,24.682,100.8,25.964,85.2c0.853-9.972,4.687-18.239,11.763-25.315L66.792,30.82
	c4.176-3.92,8.609-6.048,12.955-6.048c5.37,0,9.719,3.235,12.447,5.963c0.083,0.085,0.168,0.17,0.254,0.254
	c5.201,4.863,10.143,9.888,15.343,15.26c2.643,2.728,5.37,5.455,8.098,8.268l23.267,23.271c9.035,9.035,9.035,17.388,0,26.416
	c-2.467,2.479-4.857,4.947-7.331,7.337c-7.158,7.331-13.977,14.145-21.392,20.798c-0.169,0.17-0.342,0.254-0.429,0.424
	c-7.331,7.329-5.963,14.489-4.43,19.353c0.083,0.253,0.171,0.507,0.257,0.761c6.054,14.66,14.576,28.473,27.53,44.925l0.083,0.083
	c23.527,28.98,48.329,51.565,75.693,68.874c3.492,2.214,7.074,4.004,10.482,5.709c3.068,1.535,5.966,2.982,8.439,4.517
	c0.341,0.171,0.681,0.431,1.022,0.601c2.9,1.443,5.628,2.127,8.441,2.127c7.071,0,11.508-4.433,12.953-5.879l29.151-29.15
	c2.897-2.9,7.501-6.396,12.87-6.396c5.287,0,9.634,3.325,12.277,6.229c0.083,0.084,0.083,0.084,0.168,0.168l46.967,46.961
	C360.688,300.336,360.688,309.286,351.994,318.32z"/>
</svg>
