<?xml version="1.0" encoding="utf-8"?>
<!-- Generator: Adobe Illustrator 16.0.0, SVG Export Plug-In . SVG Version: 6.00 Build 0)  -->
<!DOCTYPE svg PUBLIC "-//W3C//DTD SVG 1.1//EN" "http://www.w3.org/Graphics/SVG/1.1/DTD/svg11.dtd">
<svg version="1.1" id="Layer_1" xmlns="http://www.w3.org/2000/svg" xmlns:xlink="http://www.w3.org/1999/xlink" x="0px" y="0px"
	 width="384px" height="384px" viewBox="0 0 384 384" enable-background="new 0 0 384 384" xml:space="preserve">
<linearGradient id="SVGID_1_" gradientUnits="userSpaceOnUse" x1="25.543" y1="81.46" x2="360.1198" y2="316.4908">
	<stop  offset="0" style="stop-color:#4B5763"/>
	<stop  offset="1" style="stop-color:#101E29"/>
</linearGradient>
<path fill-rule="evenodd" clip-rule="evenodd" fill="url(#SVGID_1_)" d="M348.131,65.209H35.873
	c-18.399,0-33.301,14.994-33.301,33.298v199.786c0,18.414,15.012,33.295,33.301,33.295h312.258
	c18.245,0,33.298-14.813,33.298-33.295V98.507C381.429,80.233,366.589,65.209,348.131,65.209L348.131,65.209z M343.467,87.404
	c-6.801,6.768-123.88,123.229-127.922,127.252c-6.288,6.288-14.653,9.749-23.546,9.749c-8.896,0-17.252-3.461-23.566-9.772
	C165.718,211.928,49.934,96.75,40.534,87.404H343.467L343.467,87.404z M24.772,293.771V103.038l95.926,95.419L24.772,293.771
	L24.772,293.771z M40.546,309.391l95.89-95.276l16.318,16.235c10.487,10.484,24.423,16.26,39.245,16.26
	c14.825,0,28.761-5.775,39.221-16.236l16.343-16.259l95.89,95.276H40.546L40.546,309.391z M359.229,293.771l-95.926-95.314
	l95.926-95.419V293.771z"/>
</svg>
