<?xml version="1.0" encoding="utf-8"?>
<!-- Generator: Adobe Illustrator 16.0.0, SVG Export Plug-In . SVG Version: 6.00 Build 0)  -->
<!DOCTYPE svg PUBLIC "-//W3C//DTD SVG 1.1//EN" "http://www.w3.org/Graphics/SVG/1.1/DTD/svg11.dtd">
<svg version="1.1" id="Layer_1" xmlns="http://www.w3.org/2000/svg" xmlns:xlink="http://www.w3.org/1999/xlink" x="0px" y="0px"
	 width="384px" height="384px" viewBox="0 0 384 384" enable-background="new 0 0 384 384" xml:space="preserve">
<g>
	<linearGradient id="SVGID_1_" gradientUnits="userSpaceOnUse" x1="102.0508" y1="71.3525" x2="273.1774" y2="330.2123">
		<stop  offset="0" style="stop-color:#4B5763"/>
		<stop  offset="1" style="stop-color:#101E29"/>
	</linearGradient>
	<path fill-rule="evenodd" clip-rule="evenodd" fill="url(#SVGID_1_)" d="M68.877,224.552c0.436,0,0.866-0.018,1.297-0.032
		l26.819,68.145h-5.907c-18.369,0-33.315,14.945-33.315,33.313v44.422c0,6.133,4.973,11.103,11.105,11.103h177.682
		c6.133,0,11.103-4.97,11.103-11.103v-22.211c0-30.617-24.906-55.523-55.523-55.523h-33.315v-11.105
		c0-6.136-4.971-11.105-11.105-11.105c-6.134,0-11.105,4.97-11.105,11.105v11.105H120.86l-30.057-76.377
		c6.973-6.111,11.39-15.072,11.39-25.051c0-5.681-1.432-11.033-3.95-15.717l81.858-81.858l16.873,16.874
		c-14.168,21.339-12.104,50.717,7.069,69.889l15.705,15.705c4.334,4.337,11.367,4.337,15.705,0L345.388,86.192
		c4.337-4.336,4.337-11.367,0-15.705l-15.705-15.705c-18.961-18.959-48.334-21.313-69.883-7.062l-32.198-32.2
		c-17.361-17.36-45.458-17.363-62.822,0c-17.188,17.189-17.308,45.074-0.374,62.424l-82.59,82.59
		c-3.98-1.682-8.353-2.614-12.94-2.614c-18.369,0-33.313,14.946-33.313,33.314c0,18.371,14.946,33.313,33.313,33.313L68.877,224.552
		L68.877,224.552z M235.454,348.188v11.105H79.982v-33.316c0-6.12,4.98-11.103,11.104-11.103h111.051
		C220.508,314.874,235.454,329.817,235.454,348.188L235.454,348.188z M313.978,70.488l7.853,7.854l-94.229,94.229l-7.853-7.853
		c-13.021-13.021-13.021-34.093,0-47.114l47.111-47.114l0.003-0.001C279.852,57.5,300.986,57.498,313.978,70.488L313.978,70.488z
		 M180.487,31.226c8.678-8.679,22.729-8.681,31.41,0l31.406,31.41l-31.406,31.411c-30.334-30.932-26.215-26.489-31.41-31.41
		C171.826,53.977,171.826,39.885,180.487,31.226L180.487,31.226z M68.877,180.131c6.124,0,11.105,4.981,11.105,11.105
		S75,202.342,68.877,202.342s-11.105-4.982-11.105-11.106S62.753,180.131,68.877,180.131z"/>
</g>
</svg>
