<?xml version="1.0" encoding="utf-8"?>
<!-- Generator: Adobe Illustrator 16.0.0, SVG Export Plug-In . SVG Version: 6.00 Build 0)  -->
<!DOCTYPE svg PUBLIC "-//W3C//DTD SVG 1.1//EN" "http://www.w3.org/Graphics/SVG/1.1/DTD/svg11.dtd">
<svg version="1.1" id="Layer_1" xmlns="http://www.w3.org/2000/svg" xmlns:xlink="http://www.w3.org/1999/xlink" x="0px" y="0px"
	 width="384px" height="384px" viewBox="0 0 384 384" enable-background="new 0 0 384 384" xml:space="preserve">
<g>
	<g>
		<linearGradient id="SVGID_1_" gradientUnits="userSpaceOnUse" x1="160.2104" y1="49.4395" x2="236.4217" y2="363.1672">
			<stop  offset="0" style="stop-color:#3ABCA8"/>
			<stop  offset="1" style="stop-color:#009383"/>
		</linearGradient>
		<path fill-rule="evenodd" clip-rule="evenodd" fill="url(#SVGID_1_)" d="M68.7,226.318c0.228,0,0.441-0.066,0.667-0.069
			L97.9,315.846h-7.005c-18.388,0-33.294,14.906-33.294,33.296v22.197c0,6.129,4.968,11.096,11.099,11.096h177.578
			c6.129,0,11.096-4.967,11.096-11.096v-11.102c0-24.516-19.873-44.392-44.392-44.392h-44.395v-11.1
			c0-6.135-4.964-11.099-11.099-11.099c-6.133,0-11.099,4.964-11.099,11.099v11.1h-25.229l-31.078-97.517
			c7.222-6.114,11.913-15.13,11.913-25.308c0-5.666-1.555-10.924-4.063-15.6l66.613-66.612l-15.698-15.692l-67.222,67.222
			c-3.976-1.683-8.344-2.613-12.929-2.613c-18.359,0-33.296,14.196-33.296,32.555S50.339,226.318,68.7,226.318L68.7,226.318
			L68.7,226.318z M203.791,181.445c-21.634-21.633-21.634-56.847,0-78.48l47.083-47.083c21.644-21.644,56.857-21.624,78.479,0
			l15.695,15.694c4.335,4.335,4.335,11.359,0,15.694l-109.87,109.87c-4.335,4.335-11.357,4.335-15.692,0L203.791,181.445
			L203.791,181.445z M181.04,95.914l-16.496-16.49c-17.297-17.309-17.297-45.479,0-62.789c17.33-17.297,45.479-17.297,62.787,0
			l16.466,16.472c-2.965,2.22-5.954,4.416-8.618,7.082L188.096,87.27C185.408,89.958,183.25,92.953,181.04,95.914z"/>
	</g>
</g>
</svg>
