<?xml version="1.0" encoding="utf-8"?>
<!-- Generator: Adobe Illustrator 16.0.0, SVG Export Plug-In . SVG Version: 6.00 Build 0)  -->
<!DOCTYPE svg PUBLIC "-//W3C//DTD SVG 1.1//EN" "http://www.w3.org/Graphics/SVG/1.1/DTD/svg11.dtd">
<svg version="1.1" id="Layer_1" xmlns="http://www.w3.org/2000/svg" xmlns:xlink="http://www.w3.org/1999/xlink" x="0px" y="0px"
	 width="384px" height="384px" viewBox="0 0 384 384" enable-background="new 0 0 384 384" xml:space="preserve">
<linearGradient id="SVGID_1_" gradientUnits="userSpaceOnUse" x1="104.8076" y1="100.4404" x2="338.5529" y2="342.3809">
	<stop  offset="0" style="stop-color:#4B5763"/>
	<stop  offset="1" style="stop-color:#101E29"/>
</linearGradient>
<path fill-rule="evenodd" clip-rule="evenodd" fill="url(#SVGID_1_)" d="M203.403,380.527h-11.103
	c-50.629,0-98.227-19.715-134.02-55.515C22.482,289.221,2.767,241.626,2.767,191c0-50.629,19.715-98.226,55.514-134.019
	c35.793-35.796,83.39-55.508,134.02-55.508c50.621,0,98.222,19.712,134.011,55.508c35.803,35.793,55.518,83.39,55.518,134.019
	v11.103h-22.218V191c0-44.694-17.398-86.711-49.001-118.314c-31.604-31.606-73.62-49.007-118.31-49.007
	c-44.698,0-86.711,17.401-118.314,49.007C42.384,104.289,24.982,146.306,24.982,191s17.402,86.705,49.004,118.312
	c31.603,31.603,73.617,49.007,118.314,49.007h11.103V380.527L203.403,380.527z M368.305,224.498h-29.569l-53.881,93.9h60.998
	l-0.078,31.317l22.206,0.054l0.084-31.371h13.765v-22.209h-13.705L368.305,224.498L368.305,224.498z M345.912,296.189l0.103-39.739
	l-22.802,39.739H345.912L345.912,296.189z M275.174,293.792c7.449-11.026,12.538-20.743,13.225-32.15
	c0-20.34-16.558-36.896-36.903-36.896c-17.592,0-32.816,12.513-36.204,29.759l-2.138,10.898l21.791,4.277l2.143-10.893
	c1.347-6.858,7.405-11.833,14.408-11.833c7.898,0,14.36,6.265,14.679,14.08c-0.589,6.157-4.055,12.345-9.198,20.022
	c-28.223,39.752-31.772,42.498-38.05,49.368l-0.073,18.876l73.781,0.223l0.065-22.209l-41.963-0.127
	C256.62,319.602,264.676,308.787,275.174,293.792L275.174,293.792L275.174,293.792z M181.194,313.216
	c-58.826-5.301-105.803-52.29-111.103-111.113h22.629v-22.208H70.097c5.297-58.82,52.277-105.797,111.097-111.1v22.63h22.209v-22.63
	c58.824,5.297,105.811,52.274,111.105,111.1h-22.634v22.208h45.351V191c0-79.91-65.017-144.927-144.925-144.927
	C112.388,46.073,47.374,111.09,47.374,191c0,79.91,65.014,144.918,144.927,144.918h11.103v-45.345h-22.209V313.216L181.194,313.216z
	 M155.421,243.578l22.449-22.449c4.368,2.097,9.259,3.279,14.43,3.279c18.418,0,33.404-14.989,33.404-33.414
	c0-14.52-9.321-26.907-22.302-31.501v-35.402h-22.209v35.402c-12.982,4.594-22.302,16.981-22.302,31.507
	c0,5.162,1.173,10.056,3.276,14.424l-22.456,22.455L155.421,243.578L155.421,243.578z M192.301,179.798
	c-6.176,0-11.199,5.026-11.199,11.202c0,6.175,5.023,11.199,11.199,11.199c6.172,0,11.193-5.024,11.193-11.199
	C203.494,184.825,198.473,179.798,192.301,179.798z"/>
</svg>
