<?xml version="1.0" encoding="utf-8"?>
<!-- Generator: Adobe Illustrator 16.0.0, SVG Export Plug-In . SVG Version: 6.00 Build 0)  -->
<!DOCTYPE svg PUBLIC "-//W3C//DTD SVG 1.1//EN" "http://www.w3.org/Graphics/SVG/1.1/DTD/svg11.dtd">
<svg version="1.1" id="Layer_1" xmlns="http://www.w3.org/2000/svg" xmlns:xlink="http://www.w3.org/1999/xlink" x="0px" y="0px"
	 width="384px" height="384px" viewBox="0 0 384 384" enable-background="new 0 0 384 384" xml:space="preserve">
<g>
	<linearGradient id="SVGID_1_" gradientUnits="userSpaceOnUse" x1="23.1206" y1="46.3604" x2="352.4276" y2="289.3673">
		<stop  offset="0" style="stop-color:#4B5763"/>
		<stop  offset="1" style="stop-color:#101E29"/>
	</linearGradient>
	<path fill-rule="evenodd" clip-rule="evenodd" fill="url(#SVGID_1_)" d="M370.14,57.909H14.432
		c-6.128,0-11.097,4.969-11.097,11.099v204.372c0,6.13,4.969,11.1,11.097,11.1h138.722v20.314h-29.94
		c-6.13,0-11.1,4.968-11.1,11.095c0,6.133,4.97,11.101,11.1,11.101H261.36c6.126,0,11.097-4.968,11.097-11.101
		c0-6.127-4.971-11.095-11.097-11.095h-29.94v-20.314h138.72c6.13,0,11.098-4.97,11.098-11.1V69.007
		C381.237,62.877,376.27,57.909,370.14,57.909L370.14,57.909z M209.223,304.793h-33.875v-20.314h33.875V304.793L209.223,304.793z
		 M359.043,262.281H25.53V80.106h333.513V262.281z"/>
</g>
</svg>
