<?xml version="1.0" encoding="utf-8"?>
<!-- Generator: Adobe Illustrator 16.0.0, SVG Export Plug-In . SVG Version: 6.00 Build 0)  -->
<!DOCTYPE svg PUBLIC "-//W3C//DTD SVG 1.1//EN" "http://www.w3.org/Graphics/SVG/1.1/DTD/svg11.dtd">
<svg version="1.1" id="Layer_1" xmlns="http://www.w3.org/2000/svg" xmlns:xlink="http://www.w3.org/1999/xlink" x="0px" y="0px"
	 width="384px" height="384px" viewBox="0 0 384 384" enable-background="new 0 0 384 384" xml:space="preserve">
<g>
	<g>
		<linearGradient id="SVGID_1_" gradientUnits="userSpaceOnUse" x1="53.3369" y1="18.0215" x2="287.473" y2="259.3359">
			<stop  offset="0" style="stop-color:#3ABCA8"/>
			<stop  offset="1" style="stop-color:#009383"/>
		</linearGradient>
		<path fill-rule="evenodd" clip-rule="evenodd" fill="url(#SVGID_1_)" d="M369.054,52.676H16.021
			c-7.108,0-12.873,5.763-12.873,12.872v191.881c0,7.11,5.765,12.872,12.873,12.872h353.032c7.107,0,12.869-5.762,12.869-12.872
			V65.547C381.923,58.439,376.161,52.676,369.054,52.676L369.054,52.676L369.054,52.676z M266.089,309.891H222.39V292.63h-59.707
			v17.261h-43.7c-6.166,0-11.166,4.997-11.166,11.168c0,6.165,5,11.162,11.166,11.162h147.105c6.168,0,11.165-4.997,11.165-11.165
			S272.257,309.891,266.089,309.891L266.089,309.891z"/>
	</g>
</g>
</svg>
