<?xml version="1.0" encoding="utf-8"?>
<!-- Generator: Adobe Illustrator 16.0.0, SVG Export Plug-In . SVG Version: 6.00 Build 0)  -->
<!DOCTYPE svg PUBLIC "-//W3C//DTD SVG 1.1//EN" "http://www.w3.org/Graphics/SVG/1.1/DTD/svg11.dtd">
<svg version="1.1" id="Layer_1" xmlns="http://www.w3.org/2000/svg" xmlns:xlink="http://www.w3.org/1999/xlink" x="0px" y="0px"
	 width="384px" height="384px" viewBox="0 0 384 384" enable-background="new 0 0 384 384" xml:space="preserve">
<g>
	<linearGradient id="SVGID_1_" gradientUnits="userSpaceOnUse" x1="54.0737" y1="74.0459" x2="343.7558" y2="414.7068">
		<stop  offset="0" style="stop-color:#4B5763"/>
		<stop  offset="0.2903" style="stop-color:#34404A"/>
		<stop  offset="0.5807" style="stop-color:#212E38"/>
		<stop  offset="0.8275" style="stop-color:#15222D"/>
		<stop  offset="1" style="stop-color:#101E29"/>
	</linearGradient>
	<path fill-rule="evenodd" clip-rule="evenodd" fill="url(#SVGID_1_)" d="M236.773,307.961v-44.517h-33.389v-22.277h55.627v-22.242
		H125.514v22.242h55.628v22.277h-33.387v44.517H2.473v74.179h379.581v-74.179H236.773L236.773,307.961z M169.996,285.683h44.536
		v22.278h-44.536V285.683L169.996,285.683z M359.813,359.898H24.715v-29.696h335.098V359.898L359.813,359.898z M181.142,52.024
		h22.243v22.258h-22.243V52.024L181.142,52.024z M181.142,2.561h22.243v22.258l-22.243-0.001V2.561L181.142,2.561z M181.142,101.488
		h22.243v22.26h-22.243V101.488L181.142,101.488z M181.142,150.951h22.243v22.26h-22.243V150.951L181.142,150.951z M281.299,74.282
		h22.238v22.258h-22.238V74.282L281.299,74.282z M80.987,74.282h22.24v22.258h-22.24V74.282L80.987,74.282z M303.555,24.817H325.8
		v22.259h-22.245V24.817L303.555,24.817z M58.727,24.817h22.242v22.259H58.727V24.817L58.727,24.817z M259.039,123.748h22.241
		v22.258h-22.241V123.748L259.039,123.748z M103.245,123.748h22.242v22.258h-22.242V123.748L103.245,123.748z M236.779,173.211
		h22.241v22.257h-22.241V173.211L236.779,173.211z M125.505,173.211h22.241v22.257h-22.241V173.211z"/>
</g>
</svg>
