<?xml version="1.0" encoding="utf-8"?>
<!-- Generator: Adobe Illustrator 16.0.0, SVG Export Plug-In . SVG Version: 6.00 Build 0)  -->
<!DOCTYPE svg PUBLIC "-//W3C//DTD SVG 1.1//EN" "http://www.w3.org/Graphics/SVG/1.1/DTD/svg11.dtd">
<svg version="1.1" id="Layer_1" xmlns="http://www.w3.org/2000/svg" xmlns:xlink="http://www.w3.org/1999/xlink" x="0px" y="0px"
	 width="384px" height="384px" viewBox="0 0 384 384" enable-background="new 0 0 384 384" xml:space="preserve">
<g>
	<linearGradient id="SVGID_1_" gradientUnits="userSpaceOnUse" x1="60.5977" y1="88.7012" x2="351.2525" y2="409.975">
		<stop  offset="0" style="stop-color:#3ABCA8"/>
		<stop  offset="1" style="stop-color:#009383"/>
	</linearGradient>
	<path fill-rule="evenodd" clip-rule="evenodd" fill="url(#SVGID_1_)" d="M2.315,330.051h380.021v51.998H2.315V330.051
		L2.315,330.051z M236.887,307.783v-44.568h-33.428v-22.304h55.694v-22.268H125.498v22.268h55.694v22.304h-33.427v44.568H236.887
		L236.887,307.783z M181.192,51.547h22.267v22.286h-22.267V51.547L181.192,51.547z M181.192,2.026h22.267v22.286l-22.267-0.001
		V2.026L181.192,2.026z M181.192,101.07h22.267v22.284h-22.267V101.07L181.192,101.07z M181.192,150.591h22.267v22.286
		l-22.267-0.001V150.591L181.192,150.591z M281.464,73.833h22.267v22.284h-22.267V73.833L281.464,73.833z M80.92,73.833h22.268
		v22.284H80.92V73.833L80.92,73.833z M303.749,24.311h22.268v22.286h-22.268V24.311L303.749,24.311z M58.635,24.311h22.268v22.286
		H58.635V24.311L58.635,24.311z M259.181,123.354h22.265v22.284h-22.265V123.354L259.181,123.354z M103.206,123.354h22.266v22.284
		h-22.266V123.354L103.206,123.354z M236.896,172.875h22.268v22.284h-22.268V172.875L236.896,172.875z M125.49,172.875h22.266
		v22.284H125.49V172.875z"/>
</g>
</svg>
