<?xml version="1.0" encoding="utf-8"?>
<!-- Generator: Adobe Illustrator 16.0.0, SVG Export Plug-In . SVG Version: 6.00 Build 0)  -->
<!DOCTYPE svg PUBLIC "-//W3C//DTD SVG 1.1//EN" "http://www.w3.org/Graphics/SVG/1.1/DTD/svg11.dtd">
<svg version="1.1" id="Layer_1" xmlns="http://www.w3.org/2000/svg" xmlns:xlink="http://www.w3.org/1999/xlink" x="0px" y="0px"
	 width="384px" height="384px" viewBox="0 0 384 384" enable-background="new 0 0 384 384" xml:space="preserve">
<linearGradient id="SVGID_1_" gradientUnits="userSpaceOnUse" x1="37.8926" y1="71.9961" x2="349.6305" y2="326.8471">
	<stop  offset="0" style="stop-color:#3ABCA8"/>
	<stop  offset="0.177" style="stop-color:#32B19F"/>
	<stop  offset="1" style="stop-color:#009383"/>
</linearGradient>
<path fill-rule="evenodd" clip-rule="evenodd" fill="url(#SVGID_1_)" d="M167.935,157.193c-4.364,4.364-4.364,11.434,0,15.798
	c4.362,4.362,11.434,4.362,15.796,0c1.233-1.223,3.885-3.285,7.854-3.285c3.974,0,6.622,2.064,7.855,3.285
	c4.367,4.362,11.434,4.364,15.798,0c4.364-4.364,4.364-11.434,0-15.798c-3.667-3.676-11.619-9.829-23.651-9.829
	C179.554,147.364,171.6,153.518,167.935,157.193L167.935,157.193L167.935,157.193z M191.586,13.306
	c-44.751,0-86.841,17.456-118.501,49.136c-4.362,4.364-4.362,11.445,0,15.798c4.364,4.364,11.434,4.364,15.798,0
	c27.449-27.472,63.919-42.592,102.703-42.592c38.785,0,75.257,15.121,102.707,42.592c4.363,4.364,11.431,4.365,15.795,0
	c4.363-4.354,4.363-11.434,0-15.798C278.428,30.761,236.338,13.306,191.586,13.306L191.586,13.306z M278.474,109.824
	c-4.364,4.364-11.438,4.364-15.801,0c-19.001-19.016-44.236-29.49-71.087-29.49c-26.848,0-52.082,10.475-71.086,29.49
	c-4.364,4.364-11.434,4.364-15.798,0c-4.364-4.353-4.364-11.434,0-15.798c23.215-23.238,54.068-36.036,86.884-36.036
	c32.817,0,63.671,12.798,86.888,36.036C282.838,98.39,282.838,105.471,278.474,109.824L278.474,109.824z M246.856,141.408
	c4.364-4.355,4.364-11.434,0-15.798c-29.544-29.565-80.994-29.565-110.537,0c-4.365,4.364-4.365,11.443,0,15.798
	c4.362,4.364,11.433,4.364,15.796,0c21.121-21.144,57.82-21.144,78.943,0C235.423,145.771,242.492,145.771,246.856,141.408
	L246.856,141.408L246.856,141.408z M348.732,214.394H34.44c-18.481,0-33.514,15.034-33.514,33.515v67.028
	c0,18.483,15.033,33.518,33.514,33.518h11.172v11.915c0,6.177,4.996,11.171,11.172,11.171c6.174,0,11.17-4.994,11.17-11.171v-11.915
	h247.264v11.915c0,6.177,4.997,11.171,11.173,11.171c6.173,0,11.171-4.994,11.171-11.171v-11.915h11.17
	c18.483,0,33.518-15.038,33.518-33.518v-67.028C382.25,229.428,367.216,214.394,348.732,214.394L348.732,214.394L348.732,214.394z
	 M248.189,292.596c0,6.173-4.997,11.17-11.173,11.17c-6.177,0-11.171-4.997-11.171-11.17v-22.344
	c0-6.176,4.994-11.174,11.171-11.174c6.176,0,11.173,4.998,11.173,11.174V292.596L248.189,292.596z M292.875,292.596
	c0,6.173-4.995,11.17-11.171,11.17s-11.171-4.997-11.171-11.17v-22.344c0-6.176,4.995-11.174,11.171-11.174
	s11.171,4.998,11.171,11.174V292.596L292.875,292.596z M337.563,292.596c0,6.173-4.998,11.17-11.171,11.17
	c-6.176,0-11.173-4.997-11.173-11.17v-22.344c0-6.176,4.997-11.174,11.173-11.174c6.173,0,11.171,4.998,11.171,11.174V292.596
	L337.563,292.596z M8.446,58.896H8.445c5.597-2.465,12.231,0.174,14.663,5.87l54.55,127.284h-24.3L2.576,73.56
	C0.143,67.897,2.771,61.328,8.446,58.896L8.446,58.896z M329.816,192.05h-24.299l54.549-127.284
	c2.431-5.686,9.021-8.313,14.662-5.87c5.673,2.434,8.303,9,5.869,14.663L329.816,192.05z"/>
</svg>
