<?xml version="1.0" encoding="utf-8"?>
<!-- Generator: Adobe Illustrator 16.0.0, SVG Export Plug-In . SVG Version: 6.00 Build 0)  -->
<!DOCTYPE svg PUBLIC "-//W3C//DTD SVG 1.1//EN" "http://www.w3.org/Graphics/SVG/1.1/DTD/svg11.dtd">
<svg version="1.1" id="Layer_1" xmlns="http://www.w3.org/2000/svg" xmlns:xlink="http://www.w3.org/1999/xlink" x="0px" y="0px"
	 width="384px" height="384px" viewBox="0 0 384 384" enable-background="new 0 0 384 384" xml:space="preserve">
<g>
	<linearGradient id="SVGID_1_" gradientUnits="userSpaceOnUse" x1="46.4785" y1="57.4546" x2="348.6543" y2="347.3087">
		<stop  offset="0" style="stop-color:#4B5763"/>
		<stop  offset="1" style="stop-color:#101E29"/>
	</linearGradient>
	<path fill-rule="evenodd" clip-rule="evenodd" fill="url(#SVGID_1_)" d="M349.457,214.471h-28.509l60.402-140.938
		c2.433-5.674-0.197-12.247-5.871-14.679c-5.678-2.432-12.251,0.197-14.68,5.872l-64.181,149.746H87.759L23.581,64.725
		c-2.431-5.676-9.004-8.307-14.68-5.872c-5.675,2.431-8.303,9.003-5.872,14.679l60.404,140.938H34.921
		c-18.494,0-33.54,15.047-33.54,33.545v67.08c0,18.493,15.046,33.541,33.54,33.541h11.925v11.924
		c0,6.175,5.005,11.183,11.181,11.183c6.175,0,11.181-5.008,11.181-11.183v-11.924h245.966v11.924
		c0,6.175,5.005,11.183,11.179,11.183c6.175,0,11.18-5.008,11.18-11.183v-11.924h11.925c18.494,0,33.543-15.048,33.543-33.541
		v-67.084C383,229.518,367.951,214.471,349.457,214.471L349.457,214.471L349.457,214.471z M360.639,315.096
		c0,6.162-5.016,11.18-11.182,11.18H34.921c-6.164,0-11.18-5.018-11.18-11.18v-67.084c0-6.166,5.016-11.179,11.18-11.179h314.536
		c6.166,0,11.182,5.017,11.182,11.183V315.096L360.639,315.096z M168.518,157.227c3.674-3.673,11.634-9.836,23.672-9.836
		c12.037,0,19.997,6.163,23.67,9.836c4.368,4.367,4.368,11.446,0,15.81c-4.362,4.367-11.445,4.367-15.81,0
		c-1.228-1.227-3.882-3.284-7.86-3.284c-3.978,0-6.632,2.058-7.86,3.284c-4.366,4.367-11.446,4.367-15.812,0
		C164.152,168.673,164.152,161.594,168.518,157.227L168.518,157.227z M89.409,78.212V78.21c-4.363,4.368-11.443,4.371-15.811,0.005
		c-4.367-4.364-4.37-11.443-0.006-15.81c31.689-31.713,73.807-49.178,118.597-49.178c44.792,0,86.908,17.464,118.6,49.178
		c4.36,4.369,4.36,11.447-0.007,15.812c-4.371,4.366-11.452,4.359-15.813-0.005c-27.465-27.486-63.966-42.623-102.779-42.623
		C153.376,35.589,116.875,50.726,89.409,78.212L89.409,78.212z M279.137,109.827h0.003c-4.372,4.366-11.452,4.356-15.813-0.009
		c-19.01-19.029-44.273-29.508-71.138-29.508c-26.865,0-52.129,10.479-71.139,29.508c-4.363,4.368-11.441,4.373-15.811,0.009
		c-4.369-4.364-4.372-11.443-0.009-15.813c23.235-23.256,54.116-36.064,86.958-36.064s63.724,12.808,86.96,36.064
		C283.511,98.384,283.508,105.462,279.137,109.827L279.137,109.827z M247.509,141.424c-4.365,4.368-11.446,4.368-15.811,0
		c-10.573-10.571-24.603-16.394-39.509-16.394c-14.904,0-28.934,5.823-39.506,16.394c-4.366,4.369-11.446,4.368-15.812,0
		c-4.366-4.366-4.366-11.444,0-15.81c14.795-14.797,34.442-22.945,55.318-22.945c20.874,0,40.521,8.15,55.319,22.945
		C251.872,129.98,251.872,137.058,247.509,141.424L247.509,141.424z M236.911,259.194c6.175,0,11.18,5.004,11.18,11.18v22.361
		c0,6.175-5.005,11.181-11.18,11.181s-11.182-5.006-11.182-11.181v-22.361C225.729,264.198,230.736,259.194,236.911,259.194
		L236.911,259.194z M281.631,259.194c6.175,0,11.182,5.004,11.182,11.18v22.361c0,6.175-5.007,11.181-11.182,11.181
		c-6.176,0-11.179-5.006-11.179-11.181v-22.361C270.452,264.198,275.455,259.194,281.631,259.194L281.631,259.194z M326.353,259.194
		c6.175,0,11.18,5.004,11.18,11.18v22.361c0,6.175-5.005,11.181-11.18,11.181c-6.174,0-11.179-5.006-11.179-11.181v-22.361
		C315.174,264.198,320.179,259.194,326.353,259.194z"/>
</g>
</svg>
