<?xml version="1.0" encoding="utf-8"?>
<!-- Generator: Adobe Illustrator 16.0.0, SVG Export Plug-In . SVG Version: 6.00 Build 0)  -->
<!DOCTYPE svg PUBLIC "-//W3C//DTD SVG 1.1//EN" "http://www.w3.org/Graphics/SVG/1.1/DTD/svg11.dtd">
<svg version="1.1" id="Layer_1" xmlns="http://www.w3.org/2000/svg" xmlns:xlink="http://www.w3.org/1999/xlink" x="0px" y="0px"
	 width="384px" height="384px" viewBox="0 0 384 384" enable-background="new 0 0 384 384" xml:space="preserve">
<linearGradient id="SVGID_1_" gradientUnits="userSpaceOnUse" x1="51.687" y1="50.8184" x2="354.8038" y2="389.0832">
	<stop  offset="0" style="stop-color:#3ABCA8"/>
	<stop  offset="1" style="stop-color:#009383"/>
</linearGradient>
<path fill-rule="evenodd" clip-rule="evenodd" fill="url(#SVGID_1_)" d="M134.563,17.692c0-1.991,1.619-3.612,3.61-3.612h206.923
	c1.991,0,3.611,1.621,3.611,3.612v107.546h-16.931V66.147c0-1.831-0.903-3.543-2.414-4.577c-1.508-1.034-3.431-1.256-5.138-0.595
	c-1.451,0.563-32.051,13.059-38.563,64.263h-151.1V66.446V17.692L134.563,17.692z M380.877,286.96l-0.002-94.025
	c0-3.063-2.482-5.546-5.546-5.546h-43.553v-19.999l13.319,0c8.107,0,14.704-6.596,14.704-14.704V17.692
	c0-8.108-6.597-14.705-14.704-14.705H138.174c-8.107,0-14.703,6.597-14.703,14.705v48.754v86.24c0,8.108,6.596,14.704,14.703,14.704
	h74.504v19.999l-125.932,0c12.285-12.272,13.484-31.704,13.484-48.031c0-3.063-2.482-5.546-5.546-5.546h-29.95v-10.471
	c17.793,3.782,37.189-10.809,36.951-29.318c-0.032-2.479-0.339-4.998-2.629-6.51c-10.535-6.954-25.043-4.056-34.321,3.537V81.045
	c15.85-10.939,17.027-36.701,1.796-48.726c-1.534-1.212-3.233-2.364-5.053-3.107c-7.818-3.191-16.411,10.732-18.274,16.107
	c-4.401,12.7-0.42,27.307,10.438,35.367v10.302c-7.12-5.792-16.417-8.649-25.5-6.83c-3.754,0.752-10.332,2.451-11.15,7.001
	c-3.519,19.58,18.661,35.972,36.652,32.198v10.454H21.473c-3.063,0-5.546,2.483-5.546,5.546c0,16.304,0.885,35.76,13.168,48.031
	H7.792c-3.063,0-5.546,2.483-5.546,5.546v183.137c0,7.152,11.092,7.152,11.092,0v-25.883h100.205v25.883
	c0,7.152,11.093,7.152,11.093,0V234.824h196.13c0.028,1.934,0.214,12.341,0.236,15.461h-93.866
	c-21.926,0-38.173,5.707-48.288,16.964c-12.144,13.515-10.546,29.896-10.471,30.586c0.302,2.818,2.68,4.955,5.514,4.955h71.655
	v9.982h-21.816c-7.152,0-7.152,11.094,0,11.094h21.816v46.659h-70.993c-7.153,0-7.153,11.093,0,11.093h74.562
	c0.615,0.235,1.279,0.37,1.979,0.37c0.697,0,1.362-0.135,1.978-0.37h74.562c7.153,0,7.153-11.093,0-11.093h-70.993v-67.734h37.054
	c12.733,0,21.938-3.07,28.14-9.385c10.87-11.066,10.539-29.598,10.119-53.058c-0.031-1.815-0.063-3.66-0.091-5.524h37.924v52.137
	v89.111c0,7.152,11.092,7.152,11.092,0L380.877,286.96L380.877,286.96z M73.997,98.012c7.139-4.529,13.348-3.462,16.581-2.32
	c-0.976,11.498-14.954,19.864-25.637,16.242C65.389,108.376,67.194,102.328,73.997,98.012L73.997,98.012z M37.131,109.549
	c-4.712-2.99-8.72-8.138-9.238-13.86c11.107-3.904,24.169,4.746,25.616,16.245C48.122,113.761,41.854,112.545,37.131,109.549
	L37.131,109.549z M59.474,40.828c9.289,7.065,8.872,23.19-0.033,30.359c-2.747-2.259-6.891-7.011-6.891-15.116
	C52.549,47.619,56.778,42.947,59.474,40.828L59.474,40.828z M27.098,144.905h61.957c-0.939,29.961-9.881,41.783-30.977,41.783
	C36.693,186.688,27.997,175.247,27.098,144.905L27.098,144.905z M313.918,285.633c-4.009,4.082-10.624,6.065-20.227,6.065H179.553
	c0.514-4.429,2.224-11.112,7.546-17.035c7.92-8.815,21.391-13.285,40.037-13.285h93.723
	C320.4,272.248,318.758,280.706,313.918,285.633L313.918,285.633z M348.707,136.332v16.355c0,1.992-1.62,3.611-3.611,3.611h-13.319
	v-19.967H348.707L348.707,136.332z M312.01,85.338c-10.774,14.234-16.47,34.959-16.47,59.936c0,25.012,5.714,45.948,16.521,60.545
	c2.999,4.049,6.014,7.099,8.622,9.334V76.226C318.065,78.38,315.029,81.349,312.01,85.338L312.01,85.338z M285.939,167.391
	c1.06,7.465,2.627,14.107,4.539,19.999h-19.886v-19.999H285.939L285.939,167.391z M134.563,152.687v-16.356h150.115
	c-0.346,6.65-0.307,13.322,0.125,19.967h-146.63C136.183,156.298,134.563,154.678,134.563,152.687L134.563,152.687z
	 M223.771,167.391H259.5v19.999h-35.729V167.391L223.771,167.391z M294.834,198.481c5.779,12.351,12.954,20.327,18.758,25.251
	H13.337v-25.251H294.834L294.834,198.481z M13.337,339.096v-46.589h100.205v46.589H13.337L13.337,339.096z M113.542,281.415H13.337
	v-46.591h100.205V281.415L113.542,281.415z M331.776,223.732v-25.251h38.007v25.251H331.776z"/>
</svg>
