<?xml version="1.0" encoding="utf-8"?>
<!-- Generator: Adobe Illustrator 16.0.0, SVG Export Plug-In . SVG Version: 6.00 Build 0)  -->
<!DOCTYPE svg PUBLIC "-//W3C//DTD SVG 1.1//EN" "http://www.w3.org/Graphics/SVG/1.1/DTD/svg11.dtd">
<svg version="1.1" id="Layer_1" xmlns="http://www.w3.org/2000/svg" xmlns:xlink="http://www.w3.org/1999/xlink" x="0px" y="0px"
	 width="384px" height="384px" viewBox="0 0 384 384" enable-background="new 0 0 384 384" xml:space="preserve">
<g>
	<linearGradient id="SVGID_1_" gradientUnits="userSpaceOnUse" x1="85.502" y1="157.8428" x2="319.0363" y2="403.3672">
		<stop  offset="0" style="stop-color:#3ABCA8"/>
		<stop  offset="1" style="stop-color:#009383"/>
	</linearGradient>
	<path fill-rule="evenodd" clip-rule="evenodd" fill="url(#SVGID_1_)" d="M355.257,337.151c4.981-6.803,7.033-15.432,5.446-23.998
		c-0.859-4.62-2.726-8.867-5.36-12.524c4.723-1.09,9.247-3.229,13.212-6.402c2.245-1.797,3.559-4.478,3.604-7.351
		c0.047-2.877-1.179-5.599-3.365-7.468l-51.738-44.233c-3.809-3.258-6.664-7.488-8.257-12.24l-12.088-36.094
		c-0.003-0.012-0.009-0.024-0.012-0.036l-10.886-32.494c-4.936-14.734-16.731-26.31-31.556-30.965l-37.488-11.773
		c10.179-7.177,16.846-19.017,16.846-32.392V53.161c0-21.85-17.777-39.625-39.624-39.625c-21.847,0-39.624,17.774-39.624,39.625
		v26.022c0,12.758,6.067,24.121,15.462,31.37c-0.973,0.268-1.942,0.55-2.909,0.853l-38.017,11.939
		c-14.825,4.655-26.622,16.231-31.557,30.965l-22.989,68.624c-1.592,4.752-4.446,8.984-8.253,12.24l-51.739,44.236
		c-2.186,1.868-3.412,4.588-3.365,7.465c0.046,2.876,1.359,5.554,3.604,7.351c4.146,3.318,8.9,5.508,13.855,6.545
		c-4.679,8.608-5.567,19.107-1.96,28.624c1.095,2.88,2.536,5.474,4.271,7.759H6.37c-3.089,0-5.59,2.502-5.59,5.59
		c0,3.087,2.5,5.59,5.59,5.59c61.761,0,123.521,0,185.282,0c30.881,0,61.761,0,92.642,0c30.88,0,61.761,0,92.641,0
		c4.588-0.242,6.255-2.608,6.399-5.171c-0.156-2.295-1.823-5.006-7.482-5.439C371.535,337.394,366.494,337.151,355.257,337.151
		L355.257,337.151z M249.578,206.751l19.742,49.124c0.11,0.273,0.241,0.538,0.394,0.791c3.493,5.817,8.47,10.637,14.394,13.94
		l6.545,3.647l-41.074-12.541V206.751L249.578,206.751z M309.788,243.673l50.243,42.952c-6.737,4.501-15.411,4.899-22.588,0.911
		l-47.892-26.694c-4.097-2.283-7.559-5.587-10.033-9.567l-17.596-43.787l26.098-11.392l10.178,30.389
		C300.435,233.157,304.443,239.1,309.788,243.673L309.788,243.673z M165.547,79.183V53.161c0-15.684,12.76-28.444,28.444-28.444
		c15.684,0,28.444,12.76,28.444,28.444v26.022c0,15.684-12.761,28.444-28.444,28.444C178.307,107.627,165.547,94.866,165.547,79.183
		L165.547,79.183z M132.252,134.01l38.02-11.937c13.94-4.379,28.677-4.379,42.617,0l38.021,11.937
		c11.418,3.587,20.504,12.501,24.304,23.853l9.244,27.592l-26.706,11.654l-8.577-21.34c-0.998-2.484-3.616-3.913-6.248-3.404
		c-2.629,0.51-4.527,2.813-4.527,5.488v82.407h-93.636v-82.407c0-2.675-1.898-4.979-4.527-5.488c-2.623-0.509-5.25,0.92-6.248,3.404
		l-7.424,18.47l-26.38-13.192l7.765-23.184C111.747,146.511,120.833,137.597,132.252,134.01L132.252,134.01L132.252,134.01z
		 M103.639,251.274c-2.475,3.983-5.934,7.284-10.03,9.566l-47.887,26.692c-7.183,3.991-15.853,3.593-22.592-0.908l50.239-42.952
		c5.349-4.573,9.357-10.516,11.59-17.188l11.634-34.732l25.786,12.894l-4.064,10.112L103.639,251.274L103.639,251.274z
		 M128.688,218.926l4.894-12.172v54.941l-40.268,12.111l5.735-3.2c5.925-3.301,10.903-8.12,14.397-13.938
		c0.152-0.253,0.283-0.518,0.394-0.794L128.688,218.926L128.688,218.926z M54.204,337.151h-0.02c-8.123,0-14.4-4.271-17.227-11.721
		c-3.197-8.431-1.007-18.37,5.302-24.598l97.735-29.394h103.162l92.786,28.333c7.241,2.21,12.389,7.975,13.769,15.419
		s-1.357,14.671-7.325,19.328l-3.368,2.635H220.971c-0.722-3.918-2.463-9.13-6.583-13.768l47.248-2.738
		c7.425-1.261,7.64-10.208-0.614-11.162l-66.407,3.798c-1.281-0.229-2.618-0.422-4.021-0.564l-86.215-9.005
		c-3.092-0.323-5.82,1.909-6.14,4.979c-0.32,3.071,1.91,5.82,4.979,6.14l86.221,9.006c1.305,0.134,2.53,0.316,3.677,0.538
		c0.023,0.006,0.051,0.009,0.073,0.015c11.16,2.189,15.084,8.262,16.438,12.76H54.204z"/>
</g>
</svg>
